<svg width="345" height="345" viewBox="0 0 345 345" fill="none" xmlns="http://www.w3.org/2000/svg">
<path opacity="0.1" d="M172.694 0.187672V0.0913086H0.246837V165.884C0.167894 168.039 0.124023 170.203 0.124023 172.376C0.124023 174.549 0.167894 176.704 0.246837 178.868V344.801H171.23V344.897H344.177V173.331V171.71V0.196442H172.694V0.187672ZM40.8852 280.291H99.891C101.645 280.405 103.391 280.475 105.136 280.492C107.075 280.51 109.005 280.448 110.934 280.291H171.037V342.164C118.697 341.866 71.8924 317.825 40.8852 280.291ZM106.689 198.547V278.81H99.9349C84.5848 277.829 68.9715 273.308 57.323 266.342C27.149 248.311 14.0619 224.007 8.39554 206.8C2.26426 188.155 3.26424 173.629 3.27301 173.489C3.27301 173.471 3.27301 173.454 3.27301 173.436H106.698V194.472C106.689 194.534 106.68 194.595 106.671 194.648C106.522 195.909 106.531 197.232 106.689 198.547ZM237.27 146.434V66.17H244.059C259.48 67.1512 275.154 71.6722 286.855 78.6376C317.161 96.6686 330.301 120.973 335.993 138.18C342.151 156.825 341.151 171.351 341.134 171.491C341.134 171.509 341.134 171.526 341.134 171.544H237.261V150.508C237.27 150.446 237.279 150.385 237.288 150.332C237.437 149.071 237.428 147.757 237.27 146.434ZM167.037 196.435C169.598 201.552 170.765 206.896 171.037 212.118V212.626H133.091V173.603C135.319 173.471 137.573 173.541 139.626 173.848C152.432 175.723 162.177 186.745 167.037 196.435ZM144.389 173.436H171.028V202.813C170.379 200.439 169.493 198.082 168.335 195.76C165.397 189.89 161.406 184.66 156.8 180.638C152.897 177.212 148.739 174.803 144.389 173.436ZM145.354 127.106C145.284 127.544 145.161 127.947 144.994 128.245C144.257 129.594 142.959 130.531 141.459 130.952V127.106H145.354ZM141.459 125.634V123.181H142.442V125.634H141.459ZM143.915 125.634V124.127C144.442 124.127 144.81 124.328 145.055 124.749C145.205 124.994 145.301 125.301 145.354 125.634H143.915ZM146.248 129.016V131.889H143.187C144.459 131.267 145.538 130.286 146.248 129.016ZM145.582 123.181H146.248V123.882C146.064 123.601 145.836 123.373 145.582 123.181ZM132.346 121.709C132.539 118.931 133.968 115.453 135.521 113.543C137.731 110.836 141.907 108.847 146.003 108.339H146.248V121.709H132.346ZM139.986 123.181V131.189C139.179 131.224 138.345 131.119 137.53 130.847C134.1 129.699 132.854 125.757 132.416 123.514C132.398 123.408 132.381 123.286 132.372 123.181H139.986ZM134.381 112.623C133.433 113.788 132.539 115.418 131.889 117.162V108.339H140.398C137.968 109.373 135.828 110.853 134.381 112.623ZM136.223 131.889H131.881V126.896C132.863 129.27 134.346 130.978 136.223 131.889ZM170.756 133.361C170.765 133.563 170.774 133.764 170.782 133.966V136.98C170.738 137.987 170.651 138.978 170.51 139.924C168.642 152.768 157.66 162.546 148.011 167.417C142.749 170.072 137.24 171.237 131.881 171.456V133.37H170.756V133.361ZM172.694 142.351C173.344 144.664 174.212 146.959 175.352 149.22C178.308 155.09 182.317 160.32 186.939 164.342C190.86 167.759 195.044 170.168 199.404 171.544H172.694V142.351ZM176.659 148.554C174.221 143.7 173.037 138.653 172.694 133.694V132.363H210.754V171.386C208.517 171.518 206.254 171.447 204.193 171.141C191.334 169.257 181.536 158.235 176.659 148.554ZM170.782 125.45C168.423 118.52 162.677 111.44 155.371 108.339H170.782V125.45ZM169.984 127.964C170.282 129.208 170.493 130.531 170.633 131.889H147.722V108.348H149.915C159.879 109.662 167.923 119.299 169.984 127.964ZM148.687 168.723C154.529 165.77 159.748 161.766 163.756 157.149C167.054 153.355 169.405 149.325 170.791 145.119V171.605H140.977C143.564 170.939 146.152 170.002 148.687 168.723ZM218.491 142.955V141.974H220.946V142.955H218.491ZM220.938 146.109V146.784H220.236C220.525 146.591 220.753 146.363 220.938 146.109ZM219.999 144.436C219.999 144.962 219.797 145.33 219.376 145.584C219.131 145.733 218.824 145.829 218.491 145.882V144.436H219.999ZM212.929 140.493C212.894 139.678 212.999 138.846 213.271 138.031C214.42 134.588 218.368 133.335 220.613 132.897C220.718 132.88 220.841 132.862 220.946 132.853V140.493H212.929ZM217.017 141.965V145.873C216.578 145.803 216.175 145.68 215.877 145.514C214.526 144.778 213.587 143.472 213.166 141.965H217.017ZM212.228 136.708V132.354H217.227C214.85 133.335 213.131 134.825 212.228 136.708ZM215.105 146.775H212.228V143.7C212.85 144.979 213.833 146.057 215.105 146.775ZM235.797 148.256V150.464C234.481 160.461 224.832 168.539 216.157 170.606C214.912 170.904 213.587 171.123 212.228 171.263V148.256H235.797ZM230.586 136.007C233.297 138.224 235.288 142.421 235.797 146.53V146.784H222.411V132.809C225.192 133.011 228.683 134.448 230.586 136.007ZM226.964 132.354H235.797V140.896C234.762 138.461 233.288 136.314 231.507 134.86C230.35 133.905 228.718 133.011 226.964 132.354ZM235.797 155.931V171.544H218.254C225.323 169.275 232.63 163.422 235.797 155.931ZM235.797 130.873H172.694V127.15C173.44 115.961 177.694 105.991 180.247 100.909C188.694 84.1046 205.184 71.6021 224.341 67.4404C227.218 66.8184 230.148 66.3891 233.086 66.1613H235.788V130.873H235.797ZM178.94 100.243C177.098 103.905 174.396 110.056 172.694 117.389V66.1613H223.306C204.035 70.5771 187.483 83.2635 178.94 100.243ZM170.782 3.12273V106.876H149.968C149.906 106.867 149.853 106.858 149.792 106.849C148.529 106.7 147.222 106.718 145.906 106.876H65.9542V100.094C66.9278 84.6917 71.4363 69.035 78.3745 57.3472C96.3298 27.0765 120.539 13.9519 137.679 8.26569C155.537 2.34296 169.598 3.04388 170.782 3.12273ZM130.416 108.348V171.491C117.811 171.596 106.18 166.664 100.575 163.834C83.8392 155.396 71.3837 138.925 67.2435 119.79C66.6208 116.916 66.1997 113.99 65.9717 111.055V108.356H130.416V108.348ZM99.8998 165.13C103.724 167.058 110.268 169.932 118.039 171.605H65.9629V120.815C70.3486 140.073 82.9884 156.606 99.8998 165.13ZM125.39 202.025V203.006H122.943V202.025H125.39ZM122.943 198.879V198.205H123.636C123.364 198.398 123.136 198.617 122.943 198.879ZM123.89 200.544C123.89 200.018 124.092 199.65 124.513 199.396C124.758 199.247 125.065 199.151 125.399 199.098V200.544H123.89ZM130.925 204.495C130.96 205.31 130.854 206.143 130.582 206.957C129.433 210.401 125.513 211.654 123.276 212.092C123.171 212.109 123.057 212.127 122.943 212.136V204.495H130.925ZM126.855 203.015V199.107C127.284 199.177 127.688 199.3 127.995 199.466C129.337 200.202 130.275 201.508 130.697 203.015H126.855ZM131.626 208.272V212.626H126.644C129.012 211.654 130.723 210.164 131.626 208.272ZM128.758 198.205H131.626V201.28C131.004 200.001 130.03 198.923 128.758 198.205ZM108.154 196.724V194.516C109.47 184.519 119.074 176.441 127.706 174.374C128.942 174.076 130.267 173.857 131.618 173.717V196.724H108.154ZM113.347 208.981C110.645 206.765 108.671 202.568 108.163 198.459V198.205H121.486V212.17C118.715 211.978 115.241 210.541 113.347 208.981ZM116.952 212.626H108.154V204.084C109.18 206.519 110.654 208.666 112.426 210.12C113.583 211.075 115.206 211.978 116.952 212.626ZM108.154 189.049V173.436H125.618C118.583 175.714 111.303 181.558 108.154 189.049ZM108.154 214.107H171.028V216.954C170.458 228.493 166.063 238.858 163.458 244.071C155.046 260.875 138.635 273.378 119.557 277.54C116.688 278.162 113.776 278.591 110.847 278.819H108.154V214.107ZM164.765 244.737C166.616 241.039 169.344 234.801 171.037 227.38V278.819H120.592C139.784 274.412 156.257 261.716 164.765 244.737ZM198.474 217.874C198.544 217.436 198.667 217.033 198.834 216.735C199.57 215.386 200.877 214.448 202.395 214.028V217.874H198.474ZM202.395 219.346V221.799H201.404V219.346H202.395ZM199.921 219.346V220.853C199.395 220.853 199.026 220.652 198.772 220.231C198.623 219.986 198.527 219.679 198.474 219.346H199.921ZM197.57 215.973V213.099H200.658C199.377 213.721 198.29 214.694 197.57 215.973ZM198.246 221.799H197.57V221.098C197.755 221.379 197.983 221.615 198.246 221.799ZM211.579 223.271C211.386 226.049 209.938 229.527 208.377 231.437C206.149 234.144 201.947 236.133 197.825 236.641H197.57V223.271H211.579ZM203.877 221.799V213.791C204.693 213.756 205.535 213.861 206.351 214.133C209.807 215.281 211.061 219.223 211.5 221.466C211.517 221.571 211.535 221.694 211.543 221.799H203.877ZM209.526 232.357C210.482 231.192 211.385 229.562 212.035 227.818V236.641H203.465C205.912 235.607 208.07 234.127 209.526 232.357ZM207.666 213.09H212.035V218.084C211.061 215.719 209.561 214.002 207.666 213.09ZM172.905 211.618V207.141C172.958 206.432 173.028 205.731 173.124 205.056C175.01 192.212 186.062 182.434 195.781 177.563C201.088 174.908 206.631 173.743 212.035 173.524V211.61H172.905V211.618ZM196.088 213.09V236.632H193.878C183.852 235.318 175.747 225.681 173.668 217.016C173.37 215.771 173.151 214.449 173.01 213.09H196.088ZM195.114 176.266C189.229 179.219 183.975 183.223 179.94 187.84C176.659 191.59 174.308 195.568 172.905 199.712V173.375H202.895C200.272 174.041 197.676 174.987 195.114 176.266ZM188.378 236.641H172.905V219.679C175.317 226.566 181.071 233.566 188.378 236.641ZM172.905 341.866V238.104H193.825C193.886 238.113 193.948 238.122 194 238.131C195.272 238.28 196.588 238.262 197.913 238.104H278.444V244.886C277.461 260.288 272.918 275.945 265.936 287.633C247.849 317.903 223.464 331.028 206.193 336.714C188.439 342.567 174.405 341.954 172.905 341.866ZM213.526 236.641V173.498C226.227 173.392 237.937 178.325 243.586 181.155C260.445 189.592 272.996 206.064 277.163 225.199C277.786 228.072 278.216 230.999 278.444 233.934V236.632H213.526V236.641ZM244.261 179.85C240.41 177.922 233.814 175.048 225.99 173.375H278.452V224.165C274.023 204.907 261.295 188.383 244.261 179.85ZM340.406 148.834C339.66 145.365 338.677 141.632 337.388 137.716C333.713 126.606 328.292 116.277 321.257 106.99C312.477 95.3894 301.153 85.4276 287.601 77.3671C278.777 72.119 267.751 68.2377 256.261 66.17H304.583C323.345 89.4841 336.081 117.827 340.406 148.834ZM307.135 66.17H342.502V150.026C340.52 134.719 336.485 119.825 330.432 105.535C324.424 91.3504 316.626 78.1731 307.135 66.17ZM244.103 64.6893C242.34 64.5754 240.586 64.5054 238.84 64.4878C236.902 64.4703 234.955 64.5316 233.016 64.6893H172.694V2.57076C225.28 2.77227 272.312 26.9451 303.381 64.6893H244.103ZM152.406 1.756C136.117 3.5959 120.285 7.73997 105.119 14.1533C91.0231 20.1111 77.9097 27.8388 65.9629 37.2223V1.76477H152.406V1.756ZM144.02 4.87502C141.828 5.44451 139.565 6.10164 137.223 6.87265C126.162 10.5437 115.864 15.9583 106.619 22.9849C95.0667 31.7551 85.1374 43.0661 77.1115 56.6025C71.8837 65.4165 68.0154 76.4296 65.9629 87.9071V39.7719C88.1284 22.0387 114.829 9.72885 144.02 4.87502ZM64.4893 100.05C64.3752 101.812 64.3139 103.564 64.2875 105.307C64.27 107.244 64.3314 109.189 64.4893 111.125V171.614H2.0362C2.26426 119.01 26.5701 71.9789 64.4893 40.9634V100.05ZM1.90466 197.224C3.99228 211.645 7.91313 225.698 13.6322 239.208C19.6757 253.489 27.5437 266.746 37.1222 278.819H1.90466V197.224ZM3.09757 191.406C3.87824 196.111 5.10626 201.499 7.0009 207.273C10.6586 218.382 16.0619 228.712 23.0615 237.999C31.8067 249.599 43.0868 259.561 56.5686 267.622C65.3489 272.87 76.3308 276.751 87.7689 278.819H39.6659C19.9038 254.331 6.7816 224.27 3.09757 191.406ZM189.387 343.224C206.474 341.524 223.087 337.293 238.954 330.59C253.191 324.58 266.409 316.756 278.452 307.25V343.224H189.387ZM201.947 339.544C203.482 339.115 205.061 338.642 206.666 338.116C217.806 334.445 228.183 329.03 237.498 322.004C249.129 313.234 259.138 301.923 267.225 288.386C272.488 279.572 276.391 268.559 278.461 257.082V304.7C256.69 322.197 230.542 334.454 201.947 339.544ZM279.926 244.929C280.04 243.168 280.11 241.416 280.128 239.673C280.145 237.736 280.084 235.791 279.926 233.855V173.366H342.019C341.712 225.707 317.582 272.519 279.926 303.491V244.929ZM342.502 64.6893H305.96C302.1 59.9144 297.978 55.3321 293.592 50.9514C277.803 35.1808 259.418 22.8009 238.946 14.1533C224.069 7.86264 208.535 3.76237 192.571 1.8699H342.502V64.6893ZM1.91344 1.756H64.4893V38.3875C59.6211 42.2951 54.9459 46.4918 50.4724 50.9514C34.6837 66.7219 22.2896 85.0859 13.6322 105.535C7.92191 119.028 4.00106 133.055 1.91344 147.459V1.756ZM1.90466 280.291H38.3064C42.1044 284.978 46.1656 289.481 50.4724 293.783C66.2611 309.554 84.6462 321.934 105.119 330.581C120.671 337.152 136.933 341.34 153.66 343.11H1.90466V280.291ZM279.926 343.224V306.067C284.671 302.238 289.233 298.146 293.592 293.792C309.381 278.021 321.775 259.657 330.432 239.208C336.485 224.927 340.511 210.041 342.502 194.753V343.224H279.926Z" fill="white"/>
</svg>
