<svg width="232" height="35" viewBox="0 0 232 35" fill="none" xmlns="http://www.w3.org/2000/svg">
<path fill-rule="evenodd" clip-rule="evenodd" d="M123.906 0.613522C120.705 1.04966 117.1 2.9366 114.65 5.45866C111.382 8.82284 109.71 13.1319 109.699 18.2194C109.692 21.4265 110.15 23.6439 111.336 26.1361C113.029 29.6973 115.772 32.1306 119.81 33.6561C122.316 34.6024 126.979 34.845 129.759 34.1737C134.588 33.0078 138.5 29.4351 140.318 24.5294L140.85 23.0952H136.138H131.426L130.747 23.8509C128.918 25.8863 125.158 26.5763 122.714 25.3253C120.262 24.0697 119.157 21.5192 119.34 17.536C119.473 14.6522 120.163 12.8063 121.705 11.2071C124.274 8.54318 128.985 8.46021 131.572 11.0334L132.729 12.1847H137.351C142.507 12.1847 142.236 12.3251 141.557 10.0118C140.675 7.00767 137.878 3.78533 134.845 2.27738C131.772 0.750193 127.58 0.112499 123.906 0.613522ZM9.34907 1.34596C9.28521 1.5435 9.04319 2.9323 8.81099 4.4325C8.5785 5.93269 8.16646 8.54519 7.89504 10.2378L7.40122 13.3157L4.32481 13.3961L1.24813 13.4768L0.764392 16.4915C0.000823677 21.2502 -0.252672 20.7983 3.18002 20.7983C6.59563 20.7983 6.37351 20.4747 5.71246 24.4898C5.48753 25.8547 5.10351 28.2634 4.85898 29.8425C4.61417 31.4217 4.35451 33.0043 4.28196 33.3598L4.14975 34.0058L16.1296 34.0023C25.2383 33.9997 28.445 33.907 29.51 33.615C34.4177 32.269 37.058 28.9292 37.0314 24.1002C37.0173 21.5712 36.0157 19.2137 34.3838 17.8694L33.2807 16.9609L34.1286 16.5957C35.7605 15.8923 36.9232 14.7157 37.8089 12.8715C38.6013 11.2214 38.6753 10.8465 38.5526 9.09962C38.2465 4.74603 35.6135 2.04797 30.9105 1.26873C28.2783 0.832883 9.49305 0.900068 9.34907 1.34596ZM45.7844 1.48952C45.702 1.76602 45.3704 3.73623 45.0474 5.86809C44.7242 7.99995 44.2872 10.8424 44.076 12.1847C43.8648 13.527 43.4349 16.3049 43.1206 18.3578C42.8063 20.4107 42.2254 24.1576 41.8296 26.6842C41.4338 29.2109 41.0349 31.8917 40.943 32.642L40.7761 34.0058H55.3755H69.9746L70.1225 33.3598C70.2037 33.0043 70.4975 31.2279 70.7754 29.4119L71.2804 26.11L61.2594 26.0348C53.4492 25.9759 51.263 25.8809 51.3504 25.6041C51.4117 25.4086 51.6075 24.3121 51.7856 23.167L52.1092 21.0854H57.3892C60.8989 21.0854 62.7327 20.9803 62.8582 20.7725C63.0126 20.5163 64.0887 14.0053 64.0999 13.2614C64.1016 13.1431 61.6919 13.0461 58.7449 13.0461H53.3867L53.5786 11.5387C53.6842 10.7098 53.8399 9.74076 53.9251 9.3853L54.08 8.73928H63.1212H72.1628L72.4748 6.94479C72.8283 4.91342 73.3412 1.52685 73.3443 1.2024C73.3457 1.08411 67.1786 0.987065 59.6401 0.987065C46.8303 0.987065 45.9241 1.0198 45.7844 1.48952ZM76.8579 1.34596C76.7459 1.70285 75.5873 8.81192 75.5873 9.14125C75.5873 9.236 78.1814 9.31352 81.3516 9.31352H87.1162L86.9535 10.1031C86.8641 10.5372 86.3507 13.7998 85.8129 17.3529C85.2748 20.906 84.7101 24.5237 84.558 25.3922C84.4056 26.2607 84.0866 28.328 83.8485 29.9861C83.6107 31.6442 83.3477 33.2268 83.2642 33.5033C83.1239 33.9682 83.4664 34.0058 87.8369 34.0058H92.5612L93.206 29.7708C93.5606 27.4414 94.085 24.0499 94.3715 22.2339C95.0639 17.8407 96.0115 11.7273 96.207 10.3902L96.3645 9.31352H102.063C107.246 9.31352 107.775 9.26816 107.913 8.81106C107.996 8.53457 108.259 7.01657 108.498 5.43741C108.737 3.85826 109.003 2.21105 109.088 1.77664L109.245 0.987065H93.1074C80.4444 0.987065 76.9461 1.0643 76.8579 1.34596ZM148.296 1.63308C148.225 1.98825 147.904 4.02335 147.582 6.15521C147.261 8.28707 146.183 15.2641 145.187 21.6596C144.191 28.0552 143.375 33.4496 143.374 33.6469C143.373 33.9196 144.482 34.0058 147.989 34.0058C152.552 34.0058 152.607 33.9983 152.734 33.3598C153.09 31.5727 157.658 1.94604 157.658 1.42779C157.658 1.04937 157.006 0.987065 153.042 0.987065C148.48 0.987065 148.424 0.99453 148.296 1.63308ZM162.016 1.34596C161.957 1.5435 161.707 3.1261 161.459 4.86317C161.211 6.60025 160.933 8.31205 160.841 8.66751L160.674 9.31352H166.449C169.625 9.31352 172.224 9.42665 172.224 9.56475C172.224 9.70286 171.978 11.3501 171.678 13.2255C170.492 20.6252 168.878 31.0697 168.699 32.4984L168.51 34.0058H173.133H177.756L177.897 33.2162C177.975 32.7821 178.84 27.2286 179.819 20.8758L181.599 9.32472L187.345 9.24749L193.092 9.16996L193.701 5.58097C194.036 3.60703 194.319 1.76602 194.331 1.48952C194.351 1.01664 193.406 0.987065 178.237 0.987065C165.589 0.987065 162.099 1.0643 162.016 1.34596ZM195.23 1.63308C195.7 2.5332 202.765 14.3416 204.772 17.5817C205.764 19.1815 206.368 20.4469 206.281 20.74C206.142 21.2077 205.249 26.9136 204.7 30.8475C204.557 31.8739 204.373 33.0043 204.292 33.3598L204.145 34.0058H209.192C211.968 34.0058 214.24 33.8958 214.24 33.7614C214.24 33.6271 214.689 30.5612 215.239 26.9484C216.233 20.4147 216.244 20.3731 217.27 19.0856C218.286 17.8108 223.876 10.9952 228.898 4.90854C230.31 3.19673 231.567 1.61385 231.69 1.39133C231.88 1.04966 231.05 0.987065 226.322 0.987065H220.73L218.408 3.78648C217.131 5.32601 215.575 7.16731 214.95 7.87793C214.325 8.58855 213.426 9.65778 212.953 10.2538L212.093 11.3374L209.069 6.16239L206.046 0.987065H200.469H194.893L195.23 1.63308ZM26.94 8.72062C28.9273 9.19351 29.4343 11.0144 27.9909 12.4939L27.1722 13.3332H21.8611H16.55L16.936 11.2516C17.1481 10.1065 17.3817 9.0086 17.4548 8.81106C17.6139 8.38182 25.2117 8.30975 26.94 8.72062ZM25.4521 21.113C26.6683 21.3803 26.9509 21.5724 27.3313 22.3898C27.905 23.6227 27.5702 24.9561 26.4767 25.7936C25.7487 26.3515 25.2641 26.4043 20.081 26.4907C14.7596 26.5797 14.4806 26.5576 14.6237 26.06C14.7067 25.7718 14.9218 24.4697 15.1019 23.167L15.429 20.7983H19.7247C22.0872 20.7983 24.6647 20.9398 25.4521 21.113Z" fill="white"/>
</svg>
