<svg width="270" height="52" viewBox="0 0 270 52" fill="none" xmlns="http://www.w3.org/2000/svg">
<path fill-rule="evenodd" clip-rule="evenodd" d="M24.7575 7.3218V14.0218L23.4303 12.7705C21.1581 10.6284 18.8754 9.81948 15.1595 9.8396C12.5302 9.85385 10.8404 10.2502 8.5216 11.3968C3.25633 14.0002 0 19.5789 0 25.9958C0 32.4126 3.25633 37.9913 8.5216 40.5948C10.8404 41.7413 12.5302 42.1377 15.1595 42.152C18.8754 42.1721 21.1581 41.3631 23.4303 39.221L24.7575 37.9698V39.684V41.3982H28.7043H32.6512V21.01V0.621826H28.7043H24.7575V7.3218ZM142.983 5.60758V10.5933H140.382H137.781V13.4423V16.2914H140.375H142.969L143.021 25.9513C143.073 35.5423 143.076 35.6183 143.483 36.6178C144.28 38.5745 145.843 40.1235 147.8 40.8954C148.73 41.2623 149.167 41.301 153.075 41.361L157.336 41.4265V38.0291V34.6318L154.958 34.6311C152.251 34.6304 151.707 34.4434 151.175 33.3313C150.904 32.7645 150.878 31.8747 150.92 24.5406L150.967 16.3804L153.882 16.3314L156.797 16.2824V13.4379V10.5933H153.837H150.877V5.60758V0.621826H146.93H142.983V5.60758ZM49.7841 9.89427C42.8708 10.8054 37.192 16.0232 35.805 22.7387C35.4421 24.4961 35.4421 27.4954 35.805 29.2529C37.0878 35.463 41.9469 40.3327 48.396 41.8708C50.3314 42.3323 53.6726 42.252 55.8421 41.6917C57.8078 41.184 60.0679 40.1311 61.5069 39.0528C63.6308 37.4611 65.671 34.9717 66.6477 32.7796L67.0919 31.7828H62.8781C60.3584 31.7828 58.6645 31.8503 58.6645 31.9507C58.6645 32.0431 58.2238 32.591 57.6853 33.1683C55.9697 35.0077 53.8588 35.8218 51.2397 35.6543C47.4836 35.4141 45.0191 33.2333 43.6951 28.9783L43.5705 28.5777H55.5129H67.4551L67.4544 26.7525C67.451 18.1062 62.7632 11.6261 55.4383 10.142C53.7989 9.80969 51.2665 9.69876 49.7841 9.89427ZM85.9336 9.8672C83.3076 10.2347 81.2641 11.1831 79.5451 12.8314L78.3987 13.9308V12.2621V10.5933H74.4518H70.505V30.9815V51.3697H74.4518H78.3987V44.7152V38.0608L79.5451 39.1601C81.7164 41.2421 84.2472 42.1722 87.7276 42.1674C93.873 42.1589 98.9117 38.942 101.527 33.3576C102.692 30.871 103.059 29.108 103.059 25.9958C103.059 23.7768 102.988 23.0536 102.641 21.7223C101.366 16.8296 98.1316 12.8809 93.8674 11.0091C91.7569 10.0828 88.1258 9.56022 85.9336 9.8672ZM119.841 9.87807C118.072 10.0989 116.497 10.5504 114.876 11.3022C113 12.1717 111.977 12.8693 110.447 14.3218C107.147 17.4536 105.432 21.4461 105.432 25.9958C105.432 30.5455 107.147 34.538 110.447 37.6698C111.979 39.1242 112.998 39.8181 114.898 40.7018C119.158 42.6833 124.29 42.6833 128.55 40.7018C132.822 38.715 135.881 35.2497 137.297 30.7926C139.431 24.0773 136.795 16.5957 130.87 12.5495C127.907 10.5262 123.398 9.43416 119.841 9.87807ZM262.42 10.5973C260.258 11.1393 258.403 12.8595 257.778 14.9019C257.024 17.3636 257.708 20.1706 259.44 21.7235C261.649 23.7039 265.189 23.9785 267.46 22.3455C268.832 21.3587 270 19.0287 270 17.2764V16.4694H266.591H263.183V17.5378V18.6062H265.246C266.381 18.6062 267.309 18.6592 267.309 18.724C267.309 18.7889 267.104 19.1897 266.853 19.6147C266.259 20.6211 265.328 21.099 263.964 21.099C261.482 21.099 259.748 19.0711 260.034 16.5008C260.407 13.1402 263.826 11.6161 266.446 13.6425C267.033 14.0962 267.253 14.1546 268.375 14.1546C269.071 14.1546 269.641 14.0866 269.641 14.0032C269.641 13.7306 268.641 12.4758 267.932 11.8587C267.55 11.5262 266.884 11.0989 266.451 10.9089C265.544 10.5105 263.42 10.3464 262.42 10.5973ZM172.047 17.0168V23.262L175.679 23.2045C179.076 23.1505 179.368 23.1194 180.176 22.7246C181.243 22.203 181.887 21.2864 182.03 20.0834C182.157 19.0237 181.894 18.1176 181.266 17.4448L180.815 16.9612L181.176 16.5793C182.765 14.9012 182.176 12.091 180.03 11.1079C179.408 10.823 178.827 10.7787 175.679 10.7753L172.047 10.7714V17.0168ZM184.425 17.0036V23.2358H185.681H186.937V20.832V18.4281H187.899H188.86L190.704 20.832L192.548 23.2358H194.048C194.873 23.2358 195.547 23.1756 195.546 23.1023C195.545 23.0289 194.744 21.9327 193.768 20.6667L191.992 18.3647L192.835 17.9767C194.869 17.0417 195.592 14.7675 194.51 12.7121C194.106 11.9438 193.829 11.6685 193.055 11.2671L192.099 10.7714H188.262H184.425V17.0036ZM201.323 11.0754C201.01 11.676 196.086 23.0132 196.086 23.1323C196.086 23.1979 196.662 23.2278 197.366 23.1991L198.646 23.1468L199.238 21.8113L199.83 20.4758L202.636 20.4267L205.441 20.3775L206.095 21.8067L206.749 23.2358H208.068C209.25 23.2358 209.376 23.203 209.285 22.9194C209.229 22.7452 208.025 19.9609 206.608 16.7317L204.033 10.8604L202.761 10.8083C201.687 10.7643 201.463 10.8058 201.323 11.0754ZM210.797 17.0036V23.2358H212.05H213.303L213.351 18.9424L213.399 14.6491L216.449 18.9395L219.498 23.2299L220.889 23.2328L222.279 23.2358V17.0036V10.7714H221.023H219.767V14.9664C219.767 17.5025 219.702 19.1209 219.601 19.0592C219.509 19.0031 218.123 17.1152 216.521 14.8642L213.607 10.7714H212.202H210.797V17.0036ZM225.15 17.0097V23.2762L228.244 23.1961C232.062 23.0973 232.911 22.8391 234.488 21.2969C235.891 19.9253 236.334 18.7436 236.236 16.6331C236.117 14.0752 235 12.3975 232.706 11.3296C231.752 10.8855 231.522 10.8572 228.424 10.8019L225.15 10.7431V17.0097ZM238.425 17.0036V23.2358H239.681H240.937V17.0036V10.7714H239.681H238.425V17.0036ZM243.807 17.0036V23.2358H245.06H246.312L246.361 18.9196L246.409 14.6031L249.463 18.875L252.517 23.1468L253.903 23.1988L255.289 23.2508V17.0111V10.7714H254.033H252.777V15.0679V19.3644L249.714 15.0679L246.651 10.7714H245.229H243.807V17.0036ZM179.168 13.5194C179.516 13.921 179.59 14.156 179.505 14.5843C179.309 15.5634 178.845 15.7488 176.576 15.7532L174.558 15.7572V14.4514C174.558 13.7331 174.619 13.0844 174.693 13.0098C174.767 12.935 175.703 12.9034 176.774 12.9391C178.664 13.0022 178.735 13.0193 179.168 13.5194ZM191.731 13.2641C192.619 13.8378 192.667 15.1035 191.826 15.76C191.43 16.0691 191.096 16.1133 189.155 16.1133H186.937V14.4924V12.8715L189.135 12.9391C190.649 12.9856 191.456 13.0868 191.731 13.2641ZM231.443 13.3911C232.99 14.0702 233.868 15.5547 233.724 17.2461C233.516 19.6662 231.948 20.8969 229.051 20.9132L227.661 20.921V16.8895V12.8579L229.156 12.9505C230.064 13.0068 230.962 13.1795 231.443 13.3911ZM203.637 16.2545L204.474 18.161L202.768 18.2123C201.831 18.2404 201.027 18.2276 200.983 18.1836C200.939 18.1398 201.292 17.223 201.769 16.1462C202.245 15.0695 202.672 14.2244 202.717 14.2682C202.762 14.3122 203.176 15.2061 203.637 16.2545ZM18.3887 16.5333C21.142 17.2634 23.1744 19.288 24.1798 22.302C24.5774 23.4942 24.6401 23.9945 24.6434 25.9958C24.6466 28.0656 24.5946 28.4614 24.1518 29.7351C23.5501 31.4664 22.8684 32.5576 21.7258 33.6185C18.6512 36.4728 13.643 36.4053 10.6807 33.4694C6.35765 29.1849 7.20299 20.2196 12.2042 17.3106C13.8387 16.3599 16.4815 16.0278 18.3887 16.5333ZM53.9103 16.5333C56.5082 17.2223 58.5071 19.1161 59.5347 21.8626C59.7468 22.4294 59.9203 22.9301 59.9203 22.9755C59.9203 23.0207 56.2786 23.0577 51.8278 23.0577H43.7352L43.85 22.5681C43.9129 22.2987 44.2572 21.4813 44.6148 20.7515C45.6555 18.6268 47.3998 17.1421 49.5193 16.5768C50.7627 16.2452 52.749 16.2255 53.9103 16.5333ZM88.9206 16.5398C91.648 17.2605 93.6703 19.2719 94.6677 22.2565C95.0848 23.5043 95.1439 23.968 95.1442 25.9958C95.1446 28.0036 95.0838 28.4935 94.6848 29.6895C93.4213 33.478 90.5133 35.7007 86.8306 35.6938C83.5947 35.6876 81.0013 34.0862 79.5781 31.2157C77.075 26.1674 78.748 19.2734 82.9815 17.1893C84.8008 16.2937 87.0561 16.0471 88.9206 16.5398ZM123.884 16.5659C126.76 17.3047 128.947 19.6719 129.793 22.9616C130.204 24.5567 130.156 27.6421 129.695 29.293C128.574 33.3077 125.598 35.7002 121.724 35.7002C116.763 35.7002 113.33 31.731 113.33 25.9958C113.33 23.9411 113.663 22.4368 114.494 20.7429C115.141 19.4222 116.69 17.7776 117.831 17.2002C119.595 16.3067 121.924 16.0625 123.884 16.5659ZM178.679 18.2997C179.39 18.6571 179.691 19.3382 179.422 19.9831C179.102 20.749 178.554 20.921 176.433 20.921H174.558V19.4965V18.072L176.397 18.0747C177.507 18.0763 178.412 18.1655 178.679 18.2997ZM189.256 28.8097C187.397 29.3334 186.005 30.5225 185.161 32.3088C184.756 33.1667 184.694 33.5307 184.694 35.0807C184.694 36.7351 184.737 36.9509 185.279 38.044C186.322 40.1464 188.219 41.3849 190.631 41.5385C192.595 41.6635 193.742 41.2433 195.123 39.8922C196.375 38.6662 196.932 37.4559 197.109 35.5743L197.215 34.4457L193.825 34.4942L190.435 34.5428L190.382 35.6557L190.328 36.7686H192.383C194.739 36.7686 194.796 36.8327 193.644 38.169C192.898 39.0339 192.08 39.3257 190.684 39.2255C186.768 38.9443 185.761 33.1062 189.325 31.3435C190.479 30.7727 191.722 30.7465 192.813 31.2704C193.245 31.4782 193.694 31.7987 193.809 31.9826C193.986 32.2632 194.244 32.317 195.416 32.317H196.811L196.464 31.6413C196.007 30.7533 194.65 29.5264 193.628 29.0777C192.601 28.6267 190.388 28.491 189.256 28.8097ZM228.608 28.9383C227.784 29.2052 227.215 29.5536 226.437 30.2686C222.2 34.1626 224.583 41.1756 230.267 41.5376C232.575 41.6847 234.674 40.739 235.857 39.0195C236.184 38.5435 236.452 38.0829 236.452 37.9956C236.452 37.9084 235.859 37.837 235.134 37.837C234.013 37.837 233.765 37.8939 233.475 38.2182C232.573 39.2237 230.409 39.57 229.117 38.9158C227.703 38.1997 226.876 36.7834 226.876 35.077C226.876 31.486 230.652 29.5971 233.338 31.8448C233.833 32.2588 234.059 32.317 235.177 32.317C235.878 32.317 236.451 32.2568 236.451 32.1835C236.45 31.9094 235.744 30.9142 235.093 30.2679C233.557 28.7435 230.894 28.1975 228.608 28.9383ZM176.079 28.94C175.706 29.539 170.674 41.223 170.755 41.3029C170.956 41.5029 173.082 41.3945 173.251 41.1756C173.346 41.0533 173.657 40.4103 173.943 39.7469L174.462 38.5408L177.303 38.5894L180.143 38.6382L180.724 39.9737L181.304 41.3092L182.596 41.3615C183.56 41.4005 183.887 41.3555 183.886 41.1835C183.886 41.0567 182.69 38.2287 181.229 34.8989L178.573 28.8448L177.388 28.7924C176.652 28.76 176.157 28.8158 176.079 28.94ZM199.316 35.077V41.4044L203.756 41.3567L208.196 41.3092L208.249 40.1963L208.303 39.0834H205.065H201.827V37.6589V36.2344H204.967H208.106V35.077V33.9196H204.967H201.827V32.4951V31.0706H205.065H208.303L208.249 29.9577L208.196 28.8448L203.756 28.7972L199.316 28.7495V35.077ZM210.7 28.9796C210.652 29.1026 210.634 31.927 210.66 35.2563L210.708 41.3092H211.963H213.219L213.309 37.1284L213.399 32.9477L216.378 37.1284L219.357 41.3092L220.729 41.3612L222.1 41.4132V35.0845V28.7558H220.847H219.594L219.546 33.0492L219.498 37.3425L216.449 33.0521L213.399 28.7616L212.092 28.7588C211.207 28.7566 210.758 28.8279 210.7 28.9796ZM237.169 28.8626C237.169 28.9297 238.259 30.7661 239.591 32.9434L242.013 36.9023V39.1503V41.3982H243.269H244.525L244.526 39.2169L244.526 37.0357L246.947 33.0293C248.278 30.8257 249.368 28.9627 249.368 28.8893C249.368 28.8159 248.775 28.7558 248.05 28.7558H246.73L245.056 31.518C244.135 33.0373 243.315 34.2144 243.234 34.1338C243.152 34.0531 242.375 32.8302 241.506 31.416L239.926 28.8448L238.548 28.7928C237.79 28.7641 237.169 28.7956 237.169 28.8626ZM177.966 33.7415C178.284 34.476 178.657 35.3375 178.796 35.6557L179.048 36.2344H177.262H175.476L176.109 34.8544C176.458 34.0955 176.858 33.2016 176.999 32.8683C177.139 32.5351 177.284 32.2947 177.321 32.3341C177.358 32.3736 177.648 33.007 177.966 33.7415Z" fill="white"/>
</svg>
