<svg width="228" height="38" viewBox="0 0 228 38" fill="none" xmlns="http://www.w3.org/2000/svg">
<path opacity="0.6" fill-rule="evenodd" clip-rule="evenodd" d="M206.388 7.58781L206.553 15.1756L211.988 15.347L217.423 15.5178V7.7592V0H211.824H206.224L206.388 7.58781ZM219.774 7.43903V13.0927H223.887H228V7.43903V1.78537H223.887H219.774V7.43903ZM199.795 7.43903V11.9024H202.146H204.496V7.43903V2.97561H202.146H199.795V7.43903ZM10.5861 7.6616C0.45241 11.0294 -3.26061 23.2538 3.23173 31.8747C5.41406 34.773 10.5162 37.0957 14.6975 37.0957C19.5728 37.0957 24.8341 34.6081 26.4582 31.5349C26.9794 30.5488 26.7514 30.2251 24.8412 29.2384L22.6177 28.0892L21.0024 29.4966C18.5104 31.6676 15.4561 32.3877 12.3436 31.5391C3.96799 29.255 2.8545 17.4418 10.6302 13.3688C13.9648 11.6227 18.8271 12.5261 21.3626 15.3637L22.4367 16.5664L24.5926 15.3173C25.7784 14.6299 26.8613 13.9794 26.9994 13.8717C27.5235 13.4623 23.7118 9.95639 21.4772 8.79353C18.9446 7.47414 13.0064 6.85759 10.5861 7.6616ZM179.036 8.07164C170.996 10.6747 166.952 21.1185 170.928 29.0122C172.443 32.0188 176.13 35.3622 179.006 36.3358C181.968 37.3392 186.137 37.3326 189.168 36.3197C191.42 35.5669 191.673 35.599 192.936 36.8C194.664 38.4443 195.17 38.4187 196.857 36.6L198.238 35.1122L196.941 33.7149L195.646 32.3181L197.226 29.2318C200.056 23.7079 199.241 16.8955 195.211 12.3768C191.151 7.82585 184.919 6.16725 179.036 8.07164ZM160.426 22.3171V36.8976H163.071H165.715V22.3171V7.73659H163.071H160.426V22.3171ZM188.864 13.8461C190.123 14.5775 191.643 16.1088 192.242 17.249C193.83 20.2716 193.618 25.7337 191.829 27.8749C191.737 27.9856 190.684 26.9817 189.49 25.6432C188.296 24.3048 187.034 23.2098 186.685 23.2098C186.337 23.2098 185.306 23.9328 184.396 24.816L182.74 26.4222L185.14 28.8991L187.54 31.3754L185.656 31.7575C179.592 32.9858 173.607 26.8864 174.761 20.6555C176.009 13.9163 183.094 10.4956 188.864 13.8461ZM35.982 15.866C35.2434 16.026 33.6181 17.1413 32.3706 18.344C25.501 24.9695 29.6906 37.1267 38.8436 37.1267C40.8884 37.1267 42.2316 36.7476 43.4679 35.8216C45.6097 34.2177 45.8453 34.2064 45.8453 35.7073C45.8453 36.6994 46.2373 36.8976 48.1957 36.8976H50.5461V26.4829V16.0683H48.1957C46.2255 16.0683 45.8453 16.2635 45.8453 17.2764C45.8453 18.475 45.8324 18.4744 44.1437 17.2103C42.4461 15.9392 38.5844 15.303 35.982 15.866ZM63.0925 16.0338C62.3985 16.3343 61.6558 16.8664 61.4419 17.2169C60.8719 18.1512 59.9476 17.9929 59.9476 16.961C59.9476 16.3165 59.2948 16.0683 57.5973 16.0683H55.2469V26.4829V36.8976H57.5973H59.9476V30.134C59.9476 24.1923 60.0957 23.1794 61.1657 21.8023C62.6141 19.9366 65.1743 19.711 66.6139 21.3226C67.4072 22.2106 67.5864 23.7519 67.5864 29.6883V36.966L70.0837 36.7827L72.5809 36.6L72.8747 29.2598C73.1298 22.883 73.3184 21.8088 74.3091 21.0768C75.7639 20.0021 77.6249 20.0021 79.0792 21.0774C80.0834 21.8202 80.2432 22.8164 80.4148 29.4092L80.6093 36.8976H82.9121H85.2142L85.2119 29.0122C85.2101 22.2415 85.048 20.8578 84.0626 19.2218C81.7486 15.3774 76.5378 14.4216 72.8695 17.1681C71.2829 18.3565 71.2818 18.3565 70.1083 17.1675C68.7821 15.8243 64.9916 15.2119 63.0925 16.0338ZM94.0106 16.8122C86.2572 20.7793 86.437 31.9688 94.322 36.1543C98.0244 38.1194 104.451 37.0535 107.156 34.0255C108.215 32.8412 108.199 32.7984 106.368 31.839C104.631 30.9297 104.354 30.9315 102.418 31.8616C99.6145 33.2096 96.5102 32.6722 94.6634 30.5202L93.242 28.8634L101.274 28.698L109.306 28.5325V26.4472C109.306 18.184 101.249 13.1088 94.0106 16.8122ZM121.646 16.1736C120.838 16.4825 119.582 17.3014 118.855 17.9929L117.532 19.2516V17.6257C117.532 16.0915 117.397 16.01 115.148 16.1832L112.763 16.3659V26.4829V36.6L115.148 36.7827L117.532 36.966V31.3064C117.532 28.1933 117.826 24.9939 118.184 24.1959C118.877 22.6563 120.95 21.4244 122.848 21.4244C123.814 21.4244 123.996 21.0066 123.996 18.7815C123.996 15.7487 123.679 15.397 121.646 16.1736ZM130.742 16.3028C123.117 19.6676 122.557 31.6379 129.824 35.9359C132.521 37.5314 137.048 37.4677 139.271 35.8031C140.886 34.5939 140.918 34.5927 141.213 35.7353C141.45 36.6494 142.027 36.8976 143.919 36.8976H146.324V26.4829V16.0683H143.68C141.722 16.0683 141.036 16.2998 141.036 16.961C141.036 18.0745 141.149 18.087 138.392 16.6634C135.746 15.2976 133.283 15.181 130.742 16.3028ZM43.864 22.0909C46.5622 24.6583 46.0134 29.8579 42.8645 31.5647C39.987 33.1245 35.9444 32.0289 34.7457 29.3651C33.9289 27.5494 33.906 24.6767 34.6957 23.1818C36.2946 20.1556 41.2151 19.5706 43.864 22.0909ZM102.469 21.4678C105.365 23.7745 104.567 24.4 98.729 24.4C95.8204 24.4 93.4406 24.1715 93.4406 23.8918C93.4406 23.6121 94.0893 22.6747 94.8814 21.8088C96.7153 19.8051 100.186 19.6491 102.469 21.4678ZM139.714 22.3302C141.371 24.2613 141.524 28.4284 140.008 30.2935C137.811 32.9948 132.513 32.8573 130.698 30.0525C128.731 27.012 129.946 22.1153 132.99 20.8073C135.079 19.9104 138.255 20.6299 139.714 22.3302Z" fill="white"/>
</svg>
