<svg width="148" height="67" viewBox="0 0 148 67" fill="none" xmlns="http://www.w3.org/2000/svg">
<path fill-rule="evenodd" clip-rule="evenodd" d="M96.9719 1.13217C86.4362 2.46897 77.7628 9.62819 74.9386 19.3187C74.6725 20.2323 74.3807 21.4998 74.2902 22.1353C73.9625 24.4399 73.9679 24.4286 73.7583 23.2444C73.348 20.9282 72.1925 18.2946 70.7556 16.4018C69.7101 15.0245 67.4804 13.0049 66.0136 12.1065C64.5318 11.199 62.8616 10.5058 60.8427 9.96055L59.4182 9.5759L48.9687 9.52997L38.5194 9.48404L38.6216 10.6098C38.8516 13.1433 39.5653 15.4519 40.7502 17.495C43.4239 22.1053 47.9851 25.1022 53.635 25.9607C54.2412 26.0527 63.3672 26.1057 78.7732 26.1063C105.234 26.1076 104.493 26.1291 107.974 25.258C117.266 22.9324 124.531 15.8286 126.825 6.82459C127.151 5.54253 127.571 2.61284 127.571 1.61735V0.974731L112.747 0.993075C104.594 1.00319 97.4953 1.06573 96.9719 1.13217ZM118.494 8.1429C118.494 8.3847 117.202 10.4977 116.449 11.4873C114.153 14.5037 111.004 16.7322 107.316 17.9489C104.37 18.9208 104.409 18.9181 93.2019 18.9846C87.1322 19.0208 83.0631 18.992 83.0631 18.913C83.0631 18.7066 84.1058 16.8882 84.8123 15.8627C85.7343 14.524 87.9 12.4487 89.4748 11.3943C91.7989 9.8385 94.7626 8.68254 97.2647 8.3561C97.9492 8.26683 98.6739 8.17078 98.8752 8.14276C99.539 8.05017 118.494 8.05032 118.494 8.1429ZM22.5552 20.3376C22.2505 20.4114 21.8133 20.5676 21.5836 20.6849C20.9705 20.9976 20.0383 22.106 19.8405 22.7574C19.7282 23.1271 19.6683 24.5939 19.6683 26.9717C19.6683 30.3787 19.6515 30.6137 19.4121 30.5406C19.2711 30.4976 18.6786 30.2929 18.0954 30.0858C13.1872 28.3428 7.46618 29.7043 3.76659 33.4958C2.28801 35.011 1.24954 36.7724 0.603435 38.8609C0.293049 39.8646 0.27958 40.1688 0.226727 47.4125C0.186904 52.8516 0.220578 55.2 0.348685 55.9264C1.22933 60.9208 4.89408 64.8179 10.0939 66.2898C11.0757 66.5677 11.6025 66.6174 13.5923 66.62C15.5897 66.6227 16.1169 66.5741 17.1695 66.2904C21.41 65.1471 24.7712 62.2398 26.2624 58.4251C27.1667 56.1116 27.1439 56.6429 27.101 38.8902C27.0644 23.7404 27.0455 22.6835 26.8032 22.2461C25.9961 20.789 24.1384 19.9544 22.5552 20.3376ZM123.984 20.2784C123.061 20.4998 122.624 20.7181 122.035 21.2516C120.742 22.4229 120.843 20.9059 120.84 39.0583C120.837 52.321 120.872 55.3007 121.044 56.1841C121.82 60.185 124.67 63.733 128.505 65.4704C130.559 66.4013 131.628 66.6156 134.233 66.6195C136.986 66.6237 138.212 66.3665 140.382 65.329C143.753 63.7173 146.029 61.1187 147.283 57.4512L147.702 56.2234V48.1347C147.702 40.1078 147.7 40.0372 147.363 38.8905C147.177 38.255 146.683 37.085 146.265 36.2906C145.617 35.056 145.283 34.6253 143.969 33.326C142.71 32.0813 142.18 31.6721 141.041 31.0661C138.709 29.8258 136.876 29.3718 134.233 29.3798C132.368 29.3854 130.672 29.6955 129.279 30.2854C128.89 30.4502 128.511 30.5851 128.438 30.5851C128.36 30.5851 128.303 29.06 128.303 26.9548C128.303 24.5679 128.244 23.1281 128.129 22.7512C127.904 22.0097 126.849 20.856 126.139 20.5761C125.504 20.3253 124.416 20.175 123.984 20.2784ZM143.692 20.397C142.776 20.6867 141.958 21.5275 141.682 22.4621C141.312 23.7177 141.778 24.93 142.916 25.6739C145.451 27.3303 148.702 24.8198 147.549 22.0966C146.945 20.6694 145.225 19.912 143.692 20.397ZM145.731 21.2326C146.906 21.8179 147.341 23.0879 146.755 24.2218C145.996 25.689 144.294 25.9645 143.052 24.8212C142.527 24.3385 142.452 24.1855 142.393 23.4822C142.296 22.325 142.848 21.4432 143.896 21.0818C144.583 20.845 145.026 20.8814 145.731 21.2326ZM143.481 21.5817C143.427 21.6346 143.383 22.4145 143.383 23.315C143.383 24.8556 143.401 24.9519 143.676 24.9519C143.93 24.9519 143.969 24.8556 143.969 24.2297C143.969 23.2604 144.315 23.2613 144.958 24.2323C145.266 24.6973 145.539 24.9519 145.727 24.9519C146.107 24.9519 146.095 24.8412 145.642 24.1837L145.266 23.6374L145.642 23.3453C146.026 23.0478 146.153 22.3507 145.896 21.9522C145.666 21.5947 143.764 21.3028 143.481 21.5817ZM145.209 22.2588C145.677 22.5964 145.391 22.9298 144.632 22.9298C143.993 22.9298 143.969 22.9142 143.969 22.4964C143.969 22.1023 144.013 22.0631 144.453 22.0631C144.72 22.0631 145.06 22.1512 145.209 22.2588ZM42.1967 29.4277C36.7644 30.094 32.3168 33.7604 30.774 38.8441C30.4855 39.7948 30.4473 40.3027 30.3958 43.8737L30.3385 47.8458L30.7499 48.6393C31.2078 49.5224 32.0959 50.275 32.9585 50.5113C33.3105 50.6078 37.1644 50.6608 43.8257 50.6608C50.487 50.6608 54.3409 50.6078 54.6928 50.5113C55.5542 50.2753 56.4439 49.5222 56.8926 48.6495L57.2952 47.8662V44.3473C57.2952 40.3674 57.1515 39.327 56.3455 37.4722C55.6187 35.7999 55.0038 34.8646 53.7879 33.5826C52.5947 32.3244 51.0543 31.2213 49.5526 30.5495C47.4894 29.6266 44.4075 29.1566 42.1967 29.4277ZM71.8629 29.5036C68.8469 29.9809 66.5576 31.1301 64.3846 33.2573C62.8456 34.7638 62.1715 35.7558 61.3754 37.6859C60.5158 39.7697 60.5161 39.7639 60.5177 52.3535L60.5192 63.8788L60.8651 64.601C61.5103 65.9473 62.7127 66.689 64.2496 66.689C65.706 66.689 66.9152 65.9863 67.5939 64.7454C67.9082 64.1706 67.9101 64.1097 67.9831 52.5402L68.0563 40.9127L68.5196 39.9478C69.1684 38.5968 70.001 37.76 71.3383 37.1149C72.4043 36.6008 72.5097 36.5794 73.9858 36.5794C75.408 36.5794 75.5963 36.6137 76.5011 37.0366C77.862 37.6726 78.71 38.4915 79.3685 39.806L79.9153 40.8972L79.9885 52.5325C80.0691 65.3359 79.9997 64.4108 80.9655 65.5432C81.9173 66.6591 83.882 67.0225 85.3407 66.3525C86.2332 65.9426 87.0662 65.0257 87.2984 64.1977C87.4236 63.7515 87.4565 60.4399 87.4221 51.7457C87.3756 39.9885 87.3728 39.8939 87.0506 38.8609C85.6311 34.3104 82.0714 30.9496 77.4447 29.7917C75.6414 29.3403 73.5691 29.2335 71.8629 29.5036ZM102.517 29.4277C96.6954 30.1417 92.0811 34.25 90.8945 39.7761C90.7417 40.4882 90.6808 41.7702 90.6788 44.3173L90.6764 47.8662L91.079 48.6495C91.5277 49.5222 92.4174 50.2753 93.2788 50.5113C93.6307 50.6078 97.4846 50.6608 104.146 50.6608C110.807 50.6608 114.661 50.6078 115.013 50.5113C115.876 50.275 116.764 49.5224 117.222 48.6393L117.633 47.8458L117.576 43.8737C117.524 40.2777 117.488 39.799 117.191 38.8183C116.145 35.3614 113.496 32.2887 110.203 30.7134C108.002 29.6604 104.879 29.138 102.517 29.4277ZM16.3305 37.1318C17.6492 37.7575 18.4821 38.5948 19.1317 39.9478L19.5951 40.9127L19.6427 47.557C19.6763 52.274 19.6402 54.4316 19.5176 54.9957C19.0197 57.2888 17.0979 59.0578 14.6474 59.4787C11.5532 60.0104 8.46205 57.9826 7.81346 54.9957C7.69092 54.4316 7.65476 52.274 7.68843 47.557L7.73601 40.9127L8.19939 39.9478C8.78766 38.7227 9.62527 37.8258 10.7178 37.2514C11.8839 36.6382 12.4944 36.5097 13.9756 36.5656C15.0674 36.6067 15.385 36.6831 16.3305 37.1318ZM46.3694 37.0763C46.9112 37.3314 47.5929 37.7465 47.8843 37.9987C49.1257 39.0729 49.8814 40.8911 49.799 42.6046L49.7552 43.5126H43.8257H37.8961L37.8524 42.6046C37.7393 40.2559 38.9763 38.1842 41.1056 37.1565C42.2645 36.5971 42.6997 36.512 44.1292 36.5654C45.1807 36.6049 45.5441 36.6878 46.3694 37.0763ZM106.811 37.1318C108.828 38.089 110.002 39.8556 110.122 42.1137C110.172 43.0427 110.14 43.3573 109.985 43.4541C109.874 43.5236 107.246 43.5803 104.146 43.5803C101.046 43.5803 98.4181 43.5236 98.307 43.4541C98.1523 43.3573 98.1199 43.0427 98.1694 42.1137C98.2211 41.1413 98.3253 40.707 98.6926 39.9325C99.4427 38.3513 100.992 37.0668 102.645 36.6548C102.947 36.5796 103.762 36.5394 104.456 36.5656C105.548 36.6067 105.865 36.6831 106.811 37.1318ZM136.99 37.1312C138.261 37.7509 139.195 38.678 139.826 39.9461L140.236 40.7682V47.9903V55.2123L139.784 56.1516C138.954 57.8794 137.288 59.1232 135.334 59.4728C132.404 59.9969 129.445 58.2202 128.583 55.419C128.304 54.5141 128.292 54.1253 128.333 47.6894L128.377 40.9127L128.844 39.939C129.608 38.3471 131.157 37.0633 132.805 36.656C133.107 36.5812 133.925 36.5368 134.622 36.5575C135.749 36.5908 136.013 36.6547 136.99 37.1312ZM33.6491 54.0997C32.1317 54.6174 31.2447 55.7145 31.1209 57.2267C31.0441 58.1661 31.4444 59.2338 32.4339 60.7295C37.0682 67.7332 47.4724 68.7607 53.5037 62.8104C54.6292 61.7 55.8256 59.9611 56.2757 58.781C56.8751 57.2101 56.3844 55.5223 55.0685 54.6276C53.0047 53.2245 50.6268 53.8461 49.3229 56.1292C48.2042 58.0881 46.7849 59.1391 44.7967 59.4806C42.1749 59.9311 39.6444 58.5921 38.2572 56.0206C37.6875 54.9648 36.9768 54.3799 35.8691 54.0554C34.9366 53.7822 34.5577 53.7897 33.6491 54.0997ZM94.2634 53.9674C93.5174 54.1598 92.9553 54.5135 92.327 55.1862C90.9935 56.6134 91.1147 58.2519 92.7353 60.7008C94.6743 63.6314 97.8028 65.7122 101.363 66.4391C103.168 66.8078 105.975 66.735 107.733 66.2739C109.233 65.8803 111.264 64.8928 112.545 63.9334C114.6 62.3942 116.688 59.4121 116.846 57.7881C116.945 56.7646 116.665 55.9353 115.966 55.187C115.082 54.241 114.389 53.9308 113.146 53.9251C111.804 53.919 110.735 54.4612 110.075 55.4826C108.752 57.5326 108.409 57.9661 107.767 58.4027C106.597 59.1979 105.56 59.5171 104.146 59.5171C102.731 59.5171 101.694 59.1979 100.525 58.4027C99.88 57.9644 99.4625 57.4341 98.2164 55.4709C97.4817 54.3136 95.6387 53.6125 94.2634 53.9674Z" fill="white"/>
</svg>
