<svg width="196" height="39" viewBox="0 0 196 39" fill="none" xmlns="http://www.w3.org/2000/svg">
<path opacity="0.6" fill-rule="evenodd" clip-rule="evenodd" d="M15.5831 0.151513C13.7924 0.487305 10.0541 1.96371 8.54348 2.93158C4.59422 5.46222 1.26653 10.6199 0.297342 15.713C-0.286843 18.7843 0.0218485 24.2031 0.94258 27.0285C2.46772 31.709 6.60357 36.2269 10.873 37.8772C15.7121 39.7475 22.7879 39.2274 26.6361 36.718C29.8596 34.6161 33.4849 30.0529 32.6969 29.0889C32.3718 28.6915 31.7438 29.1726 29.7909 31.3132C28.3978 32.8403 26.4411 34.5042 25.3524 35.0875C23.627 36.0116 22.9928 36.1285 19.7804 36.1177C15.5148 36.103 13.5901 35.3946 10.8501 32.831C7.83337 30.0084 6.42003 25.8235 6.43186 19.7475C6.44827 11.5177 9.25091 5.60204 14.1808 3.3917C19.3965 1.05354 25.4406 2.69765 28.5321 7.29572C29.1842 8.26591 30.0378 9.91505 30.4289 10.9608C31.1146 12.7943 31.7213 13.4662 32.1032 12.8156C32.2036 12.6444 32.0906 9.71791 31.8521 6.31197C31.5049 1.35448 31.3042 0.0972906 30.8459 0.00898533C30.5185 -0.0537579 30.0622 0.385058 29.7798 1.03495C29.5081 1.66006 29.0358 2.26851 28.7301 2.3878C28.4241 2.50709 26.8875 2.08145 25.3151 1.4424C22.4945 0.296365 17.995 -0.30047 15.5831 0.151513ZM36.1879 1.45866C36.1879 2.07254 36.4382 2.24102 37.3517 2.24102C38.7616 2.24102 40.5871 3.14382 40.9114 4.00131C41.0415 4.34601 41.1483 11.419 41.1483 19.7189V34.8098L40.2116 35.7602C39.5259 36.4566 38.8616 36.711 37.7314 36.711C36.4371 36.711 36.1879 36.8373 36.1879 37.4934C36.1879 38.2568 36.3818 38.2734 44.1055 38.1712C50.8433 38.0821 52.0231 37.9799 52.0231 37.4857C52.0231 37.0817 51.4786 36.8412 50.2343 36.6959C49.2503 36.5809 48.0914 36.1618 47.6587 35.7645C46.8891 35.0576 46.8719 34.7037 46.8719 19.6526C46.8719 2.0249 46.7258 2.80609 50.1153 2.31461C51.4275 2.12405 52.0231 1.85797 52.0231 1.46176C52.0231 0.973371 50.8135 0.869574 44.1055 0.780882C36.3818 0.678633 36.1879 0.695288 36.1879 1.45866ZM54.0176 1.18368C53.6982 2.02761 54.0436 2.24102 55.729 2.24102C56.7916 2.24102 57.4731 2.50903 58.1454 3.19185L59.0822 4.14229V19.4063C59.0822 34.2617 59.0612 34.6975 58.2912 35.6905C57.6551 36.5116 57.1785 36.711 55.8518 36.711C54.3194 36.711 53.385 37.3834 54.021 38.0286C54.3187 38.3311 69.5693 38.3311 69.8669 38.0286C70.503 37.3834 69.5685 36.711 68.0361 36.711C66.7094 36.711 66.2328 36.5116 65.5968 35.6905C64.8634 34.7447 64.8058 34.1645 64.8058 27.7508V20.8316H66.4988H68.1918L74.3958 29.5459L80.5994 38.2603H93.4347C100.494 38.2603 106.373 38.1561 106.498 38.0286C107.105 37.4124 106.208 36.711 104.813 36.711C103.726 36.711 103.051 36.4481 102.373 35.7602C101.443 34.8167 101.437 34.7544 101.437 27.3406V19.8715L108.317 26.8387C112.102 30.671 115.297 34.2005 115.419 34.6827C115.7 35.7966 115.023 36.6313 113.714 36.785C113.113 36.8555 112.693 37.1437 112.693 37.4857C112.693 37.9826 113.982 38.0817 121.594 38.1708C129.714 38.2657 130.484 38.2184 130.37 37.6321C130.293 37.2339 129.582 36.8183 128.501 36.5402C125.276 35.7103 123.069 33.9573 114.869 25.7128L106.742 17.5422L113.533 10.7365C120.19 4.06522 122.589 2.24102 124.708 2.24102C125.224 2.24102 125.476 1.98423 125.476 1.4575C125.476 0.69645 125.281 0.677085 118.703 0.77972C112.983 0.869187 111.93 0.975696 111.93 1.46641C111.93 1.8359 112.371 2.09074 113.142 2.16665C113.808 2.23211 114.557 2.53498 114.806 2.8394C115.794 4.04779 114.74 5.52574 108.4 11.8268C104.917 15.2881 101.925 18.1205 101.752 18.1205C101.39 18.1205 101.327 5.60204 101.681 4.25887C101.961 3.19727 103.634 2.24102 105.211 2.24102C106.468 2.24102 106.881 1.87424 106.44 1.14921C106.224 0.794825 104.227 0.701485 98.5523 0.780107C91.913 0.872286 90.9384 0.964463 90.835 1.51095C90.7438 1.99275 91.1246 2.18292 92.4945 2.33939C93.5961 2.46565 94.5824 2.85799 95.088 3.37078C95.8928 4.1876 95.9038 4.39675 95.9038 19.0024C95.9038 27.1446 95.7813 34.242 95.6318 34.7745C95.2357 36.1851 94.0757 36.7351 91.4024 36.7796C88.5551 36.8272 85.6899 35.7079 83.9736 33.8775C83.3375 33.1994 80.8421 29.8658 78.4282 26.4696L74.039 20.2944L76.1075 19.4412C79.1002 18.2065 80.7875 16.744 81.8231 14.4864C83.6249 10.5584 82.532 5.8197 79.2711 3.42229C76.3914 1.3049 74.7541 1.02333 64.0075 0.795987C55.458 0.615116 54.2141 0.663529 54.0176 1.18368ZM130.818 1.45866C130.818 2.11476 131.067 2.24102 132.361 2.24102C133.491 2.24102 134.156 2.49548 134.841 3.19185L135.778 4.14229V19.4063C135.778 34.2617 135.757 34.6975 134.987 35.6905C134.346 36.5186 133.877 36.711 132.507 36.711C131.072 36.711 130.818 36.8276 130.818 37.4857C130.818 38.2463 131.072 38.2603 145.063 38.2603H159.308L160.745 33.5452C161.535 30.9518 162.269 28.599 162.375 28.3166C162.498 27.9936 162.281 27.8031 161.791 27.8031C161.325 27.8031 160.906 28.1439 160.747 28.6532C160.104 30.7106 158.143 33.2807 156.442 34.295C154.755 35.302 154.376 35.3621 148.887 35.4926C143.425 35.6223 143.063 35.5852 142.304 34.8148C141.517 34.0158 141.502 33.7203 141.502 19.6949C141.502 11.1567 141.655 4.98196 141.881 4.37777C142.324 3.1934 144.288 2.24102 146.287 2.24102C147.391 2.24102 147.637 2.1074 147.534 1.56324C147.417 0.94626 146.66 0.876158 139.112 0.780882C131.011 0.679021 130.818 0.6949 130.818 1.45866ZM164.65 0.950133C163.946 1.66471 164.546 2.15697 166.332 2.33126C169.732 2.66279 169.547 1.67517 169.547 19.4756C169.547 37.2339 169.716 36.3059 166.408 36.6928C165.088 36.847 164.561 37.0891 164.468 37.5825C164.348 38.218 165.225 38.2603 178.618 38.2603H192.895L194.352 33.9031C195.153 31.5068 195.885 29.3283 195.978 29.0618C196.076 28.7826 195.837 28.5777 195.414 28.5777C194.952 28.5777 194.354 29.1671 193.8 30.1679C193.316 31.0425 192.4 32.3585 191.765 33.0925C189.738 35.4364 188.866 35.6963 182.465 35.8652C174.564 36.0732 175.031 36.6336 175.167 27.1168L175.271 19.8633L178.323 19.7402C182.497 19.5717 185.976 19.9865 186.92 20.765C187.351 21.1213 187.923 22.284 188.19 23.3491C188.489 24.5439 188.885 25.2856 189.223 25.2856C189.673 25.2856 189.789 24.126 189.875 18.7983C189.974 12.6498 189.942 12.3109 189.256 12.3109C188.705 12.3109 188.473 12.6862 188.284 13.8865C188.144 14.7761 187.632 15.8722 187.108 16.4039C186.21 17.3153 186 17.3459 180.621 17.3459H175.063L175.166 10.2776L175.271 3.20928L179.337 3.09696C181.573 3.03538 184.748 3.15466 186.393 3.36187C189.848 3.7972 190.807 4.56794 191.532 7.49092C191.846 8.75353 192.148 9.21248 192.667 9.21248C193.322 9.21248 193.359 8.93324 193.162 5.43627C193.045 3.35955 192.884 1.4424 192.803 1.17593C192.689 0.800247 189.548 0.691802 178.78 0.691802C171.149 0.691802 164.79 0.807993 164.65 0.950133ZM72.4338 4.12138C74.537 5.26663 75.9518 7.33057 76.1632 9.5626C76.4288 12.3671 75.9946 14.0778 74.6125 15.6758C73.0202 17.5167 70.7533 18.5012 67.4646 18.7812L64.8058 19.0074V11.431C64.8058 5.73256 64.9241 3.8065 65.2827 3.65932C65.5452 3.55204 66.9643 3.45018 68.4368 3.43353C70.3607 3.41145 71.4848 3.6051 72.4338 4.12138Z" fill="white"/>
</svg>
