<svg width="178" height="63" viewBox="0 0 178 63" fill="none" xmlns="http://www.w3.org/2000/svg">
<path fill-rule="evenodd" clip-rule="evenodd" d="M89.3074 0.552745C78.3481 1.57049 69.119 3.53785 60.4849 6.69672C48.8699 10.946 39.5344 16.6133 31.6825 24.1813L29.1861 26.5874L28.7351 25.9624C27.727 24.5649 24.7826 21.8016 23.1957 20.7639C19.9576 18.6465 16.0211 17.044 12.3685 16.3564C9.7238 15.8587 6.13559 15.8985 3.8147 16.4517C2.08164 16.8646 0.436438 17.5198 0.204941 17.8892C0.00744963 18.2046 1.49698 20.9839 2.75754 22.6521C4.00543 24.3034 6.02829 26.1953 7.91406 27.4752C9.05233 28.2475 12.8442 30.1467 13.6434 30.3444C14.3683 30.524 14.3797 30.7734 13.6711 30.9488C12.6503 31.2016 9.22046 32.9181 7.59892 33.9879C5.71125 35.2334 3.46787 37.3362 2.19633 39.0521C1.14086 40.4763 -0.0225439 42.8286 0.132069 43.2262C0.271686 43.5851 1.76945 44.276 3.35677 44.7137C5.2755 45.2427 9.66635 45.3539 12.1064 44.9354C18.933 43.7643 26.3179 39.4652 28.8583 35.1832C29.1128 34.7542 29.4087 34.4027 29.5158 34.4019C29.6231 34.4008 30.9063 35.5525 32.3673 36.9607C35.4929 39.9735 37.6936 41.8128 41.109 44.2668C49.9926 50.6498 61.3809 55.9054 72.7266 58.8582C90.2267 63.4127 110.146 63.9367 128.066 60.3139C140.646 57.7706 152.557 52.929 162.488 46.3217C166.263 43.8101 168.456 42.0984 172.375 38.6031C173.951 37.197 177.707 33.1827 177.877 32.7227C178.031 32.3066 174.693 28.2979 171.899 25.542C161.878 15.6593 148.634 8.41782 132.713 4.11725C127.539 2.7197 120.973 1.55549 113.598 0.728376C109.408 0.258359 93.6998 0.144813 89.3074 0.552745ZM69.3412 9.896C69.7575 10.0279 70.1901 10.3537 70.3413 10.6494C70.6203 11.1938 70.7046 13.5251 70.4759 14.3676C70.3498 14.8324 70.2841 14.8491 69.1587 14.7014C65.8493 14.267 65.1485 14.9181 65.0648 18.5042L65.0171 20.5455L68.1854 20.6497L71.3537 20.7539V22.3521C71.3537 23.7675 71.2933 24.0148 70.8256 24.5144C69.9939 25.403 69.1458 25.6499 66.9248 25.6499H64.9115V34.7127C64.9115 45.5827 65.2118 44.6089 61.8587 44.6089C60.633 44.6089 59.4115 44.5014 59.1128 44.367L58.5749 44.1254V34.8875V25.6499L57.466 25.6253C56.8562 25.6116 56.2759 25.6149 56.1767 25.6324C56.0776 25.6499 55.8191 25.6089 55.6026 25.5409C54.5904 25.2241 54.485 21.2243 55.4727 20.6051C55.6106 20.5185 56.3651 20.4464 57.1491 20.4445L58.5749 20.4414L58.5763 19.2434C58.5787 17.3123 59.1188 14.3112 59.6588 13.2278C60.2999 11.9415 61.5357 10.7164 62.7078 10.205C64.4595 9.44077 67.4643 9.30077 69.3412 9.896ZM79.2183 9.82495C79.8496 10.2204 80.3333 11.4771 80.3187 12.6848C80.2898 15.0701 79.4014 15.8579 76.7398 15.8579C73.9255 15.8579 73.0019 14.9012 73.2084 12.2007C73.3835 9.9135 74.1617 9.34306 76.951 9.4564C78.0169 9.49994 78.9382 9.64953 79.2183 9.82495ZM145.1 19.7251C147.294 20.172 148.786 20.9191 150.232 22.2954C152.237 24.2036 153.135 26.5833 153.348 30.5551C153.669 36.5397 151.406 41.1442 147.204 43.0547C145.024 44.0458 143.542 44.2708 140.038 44.1435L137.043 44.0345L136.635 44.8946C136.398 45.3923 135.215 46.7355 133.828 48.0818C132.51 49.3616 131.505 50.4452 131.597 50.4896C131.688 50.5341 133.046 50.596 134.614 50.6273C136.183 50.6583 137.544 50.7587 137.641 50.8504C137.946 51.1404 138.051 52.6561 137.799 53.1209C137.561 53.5594 137.46 53.5676 132.22 53.5676C128.351 53.5676 126.814 53.4988 126.63 53.3176C126.49 53.1796 126.377 52.5167 126.377 51.8392V50.6108L128.991 47.9745C130.428 46.5244 131.774 45.01 131.981 44.6089C132.498 43.6078 132.504 42.2697 131.994 41.714C131.413 41.0811 129.784 41.1211 128.295 41.8051C126.897 42.4468 126.693 42.3095 126.693 40.7261C126.693 39.7267 126.771 39.5071 127.273 39.0808C127.592 38.8104 128.376 38.4264 129.016 38.2274C129.655 38.0287 130.178 37.7658 130.176 37.6435C130.175 37.5212 130.038 36.9174 129.871 36.3017C129.398 34.5475 129.268 32.1783 129.528 30.069C129.948 26.6674 130.921 24.4536 132.796 22.6329C133.999 21.4645 134.711 21.0193 136.817 20.1172C138.53 19.3832 142.5 19.1953 145.1 19.7251ZM96.2862 20.5545C98.2269 21.0499 99.3186 21.6398 99.4868 22.2833C99.7711 23.3713 99.6596 25.6326 99.3045 25.9828C99.0029 26.2803 98.9097 26.2814 98.3439 25.9928C96.046 24.8207 93.0144 24.2973 91.4577 24.8042C89.2639 25.5182 89.2844 28.0683 91.4925 29.1729C91.9171 29.3852 93.2625 29.9578 94.4823 30.4453C98.2313 31.943 100.009 33.4689 100.629 35.7217C100.977 36.9822 100.757 39.7556 100.23 40.7646C98.7114 43.6716 95.564 45.2285 91.2084 45.2273C88.0933 45.2264 84.5017 44.2202 83.9439 43.1922C83.5696 42.5022 83.4366 40.609 83.6955 39.6608C83.8888 38.9539 84.0328 38.7754 84.4105 38.7754C84.6705 38.7754 85.0737 38.9068 85.3063 39.0675C86.1305 39.6371 88.4811 40.4596 89.8211 40.6475C93.1869 41.1196 95.4768 39.4004 94.4131 37.1999C93.9881 36.3209 93.5532 36.0447 90.8588 34.9436C87.808 33.6967 86.9753 33.2468 85.889 32.2593C84.2056 30.7286 83.5572 28.6846 83.9576 26.1708C84.3887 23.465 86.1621 21.6627 89.413 20.626C90.9243 20.1441 94.5315 20.1066 96.2862 20.5545ZM79.2081 21.1027L79.6969 21.5558V32.7549C79.6969 45.3252 79.812 44.4727 78.0804 44.7287C76.8499 44.9108 74.0252 44.6856 73.6461 44.3752C73.4125 44.1839 73.3635 42.2711 73.378 33.906C73.388 28.2765 73.4655 23.1194 73.5506 22.4456C73.7606 20.7837 73.9887 20.6497 76.6082 20.6497C78.4849 20.6497 78.7735 20.6999 79.2081 21.1027ZM109.131 21.4658C109.695 21.557 110.247 21.7625 110.358 21.9221C110.475 22.0906 110.533 23.9161 110.495 26.2749L110.429 30.3376L113.921 30.3944L117.412 30.4513L117.472 26.2276C117.506 23.82 117.621 21.9143 117.74 21.7956C118.046 21.4889 122.093 21.3997 123.038 21.6789L123.842 21.9164V33.2627C123.842 44.3312 123.832 44.6191 123.42 45.0256C123.048 45.3917 122.716 45.4423 120.684 45.4423C119.388 45.4423 118.135 45.3367 117.836 45.2023L117.302 44.9623L117.245 40.4052L117.189 35.8482L113.809 35.8236L110.429 35.799L110.373 40.3975L110.316 44.9958L109.558 45.2425C108.558 45.5681 104.794 45.4267 104.329 45.0458C104.022 44.7945 103.988 43.6235 103.99 33.4894C103.992 27.2868 104.075 22.0858 104.174 21.931C104.542 21.3593 107.032 21.1256 109.131 21.4658ZM140.297 24.1919C138.388 24.5147 137.526 25.2568 136.423 27.525C136 28.3956 135.837 29.1213 135.744 30.5459C135.5 34.3344 136.439 37.4678 138.175 38.6477C140.243 40.054 143.565 39.7542 145.205 38.0133C146.629 36.5013 147.173 34.4325 147.025 31.0909C146.908 28.4492 146.522 27.105 145.505 25.7891C144.492 24.4792 142.397 23.8369 140.297 24.1919Z" fill="white"/>
</svg>
