<svg width="208" height="93" viewBox="0 0 208 93" fill="none" xmlns="http://www.w3.org/2000/svg">
<path fill-rule="evenodd" clip-rule="evenodd" d="M23.846 0.529747C23.1173 0.82783 22.4669 1.64867 21.2433 3.81357C17.4884 10.457 11.0275 16.8219 4.26003 20.5453C3.1071 21.1796 1.91495 21.991 1.61053 22.3483C-0.103968 24.361 1.32052 27.4278 3.96837 27.4255C5.41035 27.4243 6.29927 26.7538 7.43375 24.8117C12.1341 16.7646 17.8781 11.0976 25.8659 6.62584C27.478 5.72318 28.1835 4.90958 28.3771 3.72964C28.5473 2.69231 27.8841 1.31856 26.9375 0.74764C26.1845 0.293384 24.6824 0.187477 23.846 0.529747ZM35.4083 1.44878C34.3731 2.07347 33.4698 3.23704 32.1526 5.64275C30.0323 9.51596 26.75 13.4525 20.4208 19.7132C14.0485 26.0164 10.0743 29.2526 6.16927 31.3179C3.49708 32.7312 2.12317 33.9777 1.76108 35.3169C1.02556 38.0382 3.30233 40.4318 6.18629 39.9688C7.77079 39.7145 8.54484 38.8305 11.2721 34.1615C12.941 31.3046 16.2199 27.3862 20.8916 22.6658C27.5168 15.9716 31.9042 12.3193 36.3726 9.77851C37.6726 9.03926 39.0212 8.23456 39.3693 7.99024C41.0512 6.8103 41.5459 4.19348 40.3821 2.63316C39.215 1.0684 36.938 0.52624 35.4083 1.44878ZM14.7136 2.15249C14.4004 2.3961 13.5619 3.57581 12.85 4.77398C11.1631 7.61291 8.45077 10.3527 5.91992 11.7734C3.10876 13.3518 2.45619 13.9669 2.45619 15.039C2.45619 15.7523 2.60556 16.0535 3.20826 16.5552C4.45312 17.5913 5.78473 17.0667 6.7689 15.1524C8.68996 11.416 11.785 8.31825 15.6545 6.25832C17.9143 5.05547 18.4362 3.68662 17.1282 2.39283C16.3279 1.60121 15.5248 1.52125 14.7136 2.15249ZM46.2862 5.18966C45.0151 5.76082 43.9531 7.03194 42.4216 9.81545C36.609 20.3786 21.0145 35.7854 10.3749 41.4761C6.53089 43.5321 5.00241 45.4945 5.44556 47.8043C6.03195 50.86 9.421 52.5503 12.1563 51.1513C13.1988 50.618 14.361 49.1421 15.8616 46.4453C19.7942 39.3792 27.7961 30.3458 37.0817 22.4902C41.3958 18.8402 43.8281 17.1249 47.7957 14.9336C50.6998 13.33 51.7785 12.4423 52.3583 11.1801C54.0992 7.3894 50.1224 3.46616 46.2862 5.18966ZM50.7584 16.8869C49.8258 17.4494 49.1436 18.3554 47.6943 20.9565C45.406 25.0637 41.3656 29.8413 34.8056 36.1964C28.9318 41.8866 25.3154 44.7415 21.0672 47.042C20.0587 47.5879 18.8741 48.3701 18.4345 48.7802C16.3955 50.6823 16.8942 53.961 19.3882 55.0523C21.7188 56.0721 23.7961 54.927 25.513 51.6762C27.7274 47.4836 31.5475 42.808 37.7813 36.6612C43.9411 30.5875 48.319 27.0542 52.4285 24.8405C55.5863 23.1394 56.5807 21.9772 56.5807 19.9872C56.5807 18.9078 55.8506 17.7314 54.7083 16.9699C53.6804 16.2847 51.8215 16.2456 50.7584 16.8869ZM52.895 29.2713C51.8915 29.7251 51.7289 29.9357 49.4485 33.7388C45.8881 39.6773 39.4873 45.8368 33.5364 49.0514C30.6463 50.6126 29.8765 51.4484 29.8753 53.0265C29.8737 55.3738 32.2975 56.889 34.3632 55.8323C35.1923 55.4082 35.8229 54.5845 37.3168 51.9745C40.544 46.3366 47.6414 39.2934 53.0354 36.3759C56.4462 34.5311 57.2871 33.6722 57.2888 32.0321C57.2912 29.7117 55.0437 28.2994 52.895 29.2713ZM52.6253 39.7068C52.3419 39.9032 51.5062 41.0866 50.7679 42.3369C49.0432 45.2579 46.1611 48.1263 43.4506 49.619C42.4176 50.1881 41.3386 50.8588 41.0529 51.1097C40.3412 51.7341 40.1609 52.7193 40.6033 53.5657C41.0134 54.35 41.3958 54.5462 42.5161 54.5462C43.4414 54.5462 44.029 53.9472 45.3074 51.7C47.0983 48.5522 49.8357 45.884 53.0867 44.1168C55.1614 42.989 55.6825 42.4246 55.6825 41.305C55.6825 39.7355 53.9165 38.8123 52.6253 39.7068ZM200.364 56.1923C198.548 56.5477 196.998 57.3734 195.92 58.5594C194.564 60.0505 194.042 61.587 194.191 63.6451C194.386 66.3416 195.601 68.1065 198.1 69.3229C199.6 70.0528 199.82 70.0933 202.287 70.0933C204.246 70.0933 205.169 69.9871 206.014 69.6647L207.137 69.2364V67.1515C207.137 66.005 207.1 65.0668 207.055 65.0668C207.011 65.0668 206.346 65.2811 205.578 65.543C203.366 66.2977 201.75 66.3828 200.448 65.813C197.838 64.6709 197.737 61.6434 200.27 60.5132C201.574 59.9315 204 60.1139 205.8 60.9287L207.137 61.5339V59.3578V57.1815L206.132 56.8079C203.914 55.983 202.309 55.8117 200.364 56.1923ZM59.9312 57.4101C59.788 58.0851 59.1356 61.0572 58.4814 64.0147C57.8272 66.9722 57.2914 69.5235 57.2907 69.6841C57.29 69.8962 57.8683 69.9764 59.3973 69.9764H61.5048L61.7414 68.8659C61.8716 68.255 62.3233 65.9669 62.745 63.7809C63.3245 60.7772 63.5568 59.9493 63.6963 60.3909C63.7977 60.7124 64.156 62.8691 64.4921 65.1836C64.8284 67.4982 65.1503 69.5235 65.2073 69.6841C65.2846 69.9025 66.3302 69.9764 69.3437 69.9764C72.3661 69.9764 73.3983 69.9032 73.463 69.6841C73.5108 69.5235 73.8353 67.4982 74.1846 65.1836C74.5337 62.8691 74.8977 60.7164 74.9936 60.3996C75.1213 59.9778 75.3732 60.8854 75.9348 63.7896C76.3564 65.9708 76.8098 68.255 76.9419 68.8659L77.1825 69.9764H79.4082C80.6323 69.9764 81.6335 69.8976 81.6328 69.801C81.632 69.7045 81.256 67.8898 80.7975 65.7681C79.827 61.28 78.7977 56.3894 78.7977 56.2673C78.7977 56.2208 77.1695 56.1827 75.1796 56.1827H71.5616L70.6627 60.917C70.1683 63.5207 69.6883 65.9103 69.5961 66.2271C69.4176 66.8396 69.3633 66.6072 68.0279 59.5142L67.4006 56.1827H63.7958H60.1912L59.9312 57.4101ZM83.9975 63.0756V69.9764H89.9062H95.815V68.2229V66.4695H91.9152H88.0154V65.6512V64.833H91.7971H95.5787V63.0795V61.3261H91.7971H88.0154V60.6306V59.935L91.8561 59.8708L95.6969 59.8065V58.053V56.2996L89.8472 56.2372L83.9975 56.1745V63.0756ZM96.9968 58.1699V60.1572H99.2374H101.478L101.542 65.0083L101.606 69.8595L103.674 69.927L105.742 69.9946V65.0759V60.1572H107.987H110.232V58.1699V56.1827H103.615H96.9968V58.1699ZM114.252 56.7087C113.64 58.143 109.287 69.5983 109.287 69.7739C109.287 69.8852 110.223 69.9764 111.367 69.9764H113.448L113.873 68.8074L114.298 67.6385H117.328H120.358L120.75 68.8074L121.143 69.9764H123.369C124.593 69.9764 125.595 69.9058 125.595 69.8193C125.595 69.733 125.342 69.023 125.033 68.2412C124.724 67.4596 123.538 64.4266 122.397 61.5014L120.323 56.1827H117.4C114.592 56.1827 114.468 56.2035 114.252 56.7087ZM134.104 57.001V57.8192L132.154 57.8216C130.611 57.8232 129.957 57.9375 129.022 58.3684C125.916 59.7992 125.156 64.2712 127.573 66.9013C128.532 67.9456 129.825 68.4165 132.036 68.5271L134.104 68.6309V69.3035V69.9764H136.231H138.358V69.3035V68.6309L140.426 68.5271C144.317 68.3323 146.231 66.5357 146.231 63.0795C146.231 61.4633 145.801 60.3208 144.837 59.3756C143.708 58.2688 142.876 57.9649 140.604 57.8293L138.476 57.7023L138.402 56.9425L138.328 56.1827H136.216H134.104V57.001ZM148.285 63.0618V69.9764H150.294H152.303V68.3398V66.7033H154.182C157.731 66.7033 159.539 65.907 160.582 63.8845C161.55 62.009 161.071 58.9987 159.594 57.6713C158.196 56.4151 157.68 56.3045 152.835 56.2234L148.285 56.1469V63.0618ZM166.589 56.9975C166.399 57.4456 165.489 59.7866 164.566 62.1993C163.642 64.6123 162.633 67.2464 162.322 68.053C162.011 68.8595 161.757 69.6222 161.757 69.7479C161.757 69.8793 162.641 69.9764 163.837 69.9764H165.918L166.343 68.8074L166.768 67.6385H169.761H172.755L173.174 68.8074L173.594 69.9764H175.83C177.059 69.9764 178.065 69.9399 178.065 69.8952C178.065 69.8188 177.148 67.4215 174.966 61.7937C174.443 60.4435 173.743 58.6286 173.413 57.7608L172.811 56.1827H169.872H166.933L166.589 56.9975ZM179.72 63.0795V69.9946L181.788 69.927L183.856 69.8595L183.919 67.6385C184.033 63.6483 183.775 63.7082 186.532 67.0339L188.972 69.9764H191.555C192.975 69.9764 194.137 69.913 194.137 69.8354C194.137 69.7578 192.872 68.1469 191.325 66.2558L188.513 62.8175L189.361 61.7797C189.826 61.2087 190.985 59.824 191.936 58.7023C192.887 57.5805 193.665 56.5549 193.665 56.4228C193.665 56.2748 192.774 56.1827 191.344 56.1827H189.023L186.56 59.2054C185.206 60.8676 184.063 62.1935 184.021 62.1516C183.979 62.1098 183.924 60.776 183.9 59.1876L183.856 56.2996L181.788 56.232L179.72 56.1645V63.0795ZM118.255 61.8334C118.652 62.9481 118.977 63.9214 118.977 63.996C118.977 64.0706 118.233 64.1316 117.323 64.1316C116.413 64.1316 115.668 64.0528 115.667 63.9562C115.663 63.4632 117.225 59.499 117.367 59.6409C117.458 59.7319 117.858 60.7185 118.255 61.8334ZM170.62 61.6768C170.987 62.7055 171.334 63.6787 171.392 63.8394C171.471 64.0556 171.061 64.1316 169.818 64.1316C168.894 64.1316 168.137 64.0528 168.135 63.9562C168.127 63.4961 169.677 59.4848 169.806 59.6349C169.887 59.7293 170.253 60.6481 170.62 61.6768ZM156.321 60.3909C156.581 60.6481 156.794 61.1215 156.794 61.443C156.794 62.5477 156.051 62.9626 154.076 62.9626H152.303V61.443V59.9234H154.076C155.533 59.9234 155.932 60.0066 156.321 60.3909ZM134.104 63.0795V64.833H132.942C131.435 64.833 131.089 64.6861 130.658 63.8627C129.966 62.5374 131.123 61.3364 133.099 61.3296L134.104 61.3261V63.0795ZM141.427 61.9073C142.078 62.4904 142.058 63.7377 141.386 64.3563C141 64.7119 140.55 64.833 139.614 64.833H138.358V63.0505V61.2681L139.655 61.3745C140.453 61.44 141.134 61.6448 141.427 61.9073ZM58.1075 78.9177C58.0435 79.0823 58.0196 82.2141 58.0541 85.8772L58.117 92.5372H60.1259H62.1349L62.1988 87.5691L62.2626 82.6011H65.9307H69.5992L69.5304 80.6723L69.4618 78.7435L63.8428 78.6809C59.4467 78.6318 58.1983 78.6832 58.1075 78.9177ZM70.9981 85.6242V92.6723L73.0662 92.6047L75.1343 92.5372V90.9006V89.2641L77.7341 89.1472C80.8908 89.0053 82.0454 88.4959 83.1239 86.7693C84.3704 84.7739 83.9864 81.6516 82.3038 80.099C81.0821 78.9719 80.1435 78.7772 75.4297 78.6736L70.9981 78.5761V85.6242ZM84.235 78.9104C84.2357 79.0757 84.7942 80.0527 85.4758 81.0814C88.1206 85.0718 89.6699 87.5485 89.6699 87.7861C89.6699 88.0582 88.1849 90.5719 87.5007 91.4582C86.663 92.5428 86.8694 92.6777 89.2527 92.6045L91.4354 92.5372L94.6862 87.3938C96.4742 84.5649 98.4102 81.5198 98.9888 80.6267C99.5671 79.7336 99.9873 78.9182 99.9226 78.8148C99.7758 78.5796 96.0221 78.5714 95.6881 78.8055C95.5534 78.8999 94.7557 80.0558 93.9157 81.3737C93.076 82.6915 92.3352 83.7681 92.27 83.7658C92.205 83.7635 91.4071 82.6326 90.4971 81.2526L88.8427 78.7435L86.5382 78.6767C84.7821 78.6257 84.234 78.6813 84.235 78.9104ZM100.887 78.9182C100.823 79.0825 100.799 82.2141 100.834 85.8772L100.897 92.5372H102.906H104.915L104.978 87.5691L105.042 82.6011H107.633H110.223L110.287 87.5691L110.351 92.5372H112.36H114.369L114.321 85.6403L114.273 78.7435L107.638 78.6813C102.423 78.6327 100.978 78.6832 100.887 78.9182ZM117.575 78.9588C117.363 79.2109 117.31 81.0031 117.366 85.9176L117.441 92.5372H119.45H121.459L121.523 87.5691L121.587 82.6011H124.177H126.768L126.831 87.5691L126.895 92.5372H128.904H130.913V85.6403V78.7435L124.386 78.6813C118.915 78.6294 117.814 78.6743 117.575 78.9588ZM78.8095 82.724C79.7339 83.1968 79.8358 84.218 79.0393 85.0264C78.4725 85.602 75.55 85.8713 75.2215 85.3783C75.0159 85.0697 74.9887 82.9078 75.1858 82.5426C75.359 82.2214 78.0946 82.3582 78.8095 82.724Z" fill="white"/>
</svg>
