<svg width="162" height="65" viewBox="0 0 162 65" fill="none" xmlns="http://www.w3.org/2000/svg">
<path fill-rule="evenodd" clip-rule="evenodd" d="M150.732 0.741064C150.565 0.805996 148.3 3.00351 145.7 5.62471C141.802 9.55458 140.973 10.49 140.973 10.9586C140.973 11.3862 141.288 11.8358 142.244 12.7759C142.943 13.463 143.729 14.0893 143.99 14.1679C144.409 14.2937 145.05 13.7199 149.353 9.37347C153.207 5.47892 154.24 4.32463 154.24 3.90787C154.24 3.52236 153.854 3.00228 152.815 1.9852C151.38 0.581181 151.288 0.52605 150.732 0.741064ZM151.342 20.6577C151.286 20.7143 150.6 20.8137 149.817 20.8786C147.601 21.062 146.677 21.2145 145.141 21.6495C141.208 22.7637 138.9 24.1067 136.076 26.925C132.448 30.5459 130.957 33.6204 130.082 39.2851C129.714 41.6709 129.719 43.4412 130.102 46.0324C130.753 50.4341 132.016 53.5029 134.396 56.4678C137.943 60.8841 142.389 63.3895 147.988 64.1256C151.71 64.6151 160.74 64.525 161.27 63.9933C161.345 63.9181 161.438 63.0352 161.478 62.0312C161.532 60.6249 161.476 60.0932 161.23 59.7167L160.911 59.2281L155.364 59.1252C149.616 59.0188 147.718 58.8854 147.388 58.5646C147.281 58.4615 146.997 58.377 146.755 58.377C145.495 58.377 141.865 56.3841 140.085 54.715C139.008 53.7053 137.401 51.4163 136.851 50.1072C136.375 48.9729 135.687 46.3513 135.687 45.6701C135.687 45.1184 135.715 45.1043 136.856 45.0992C137.499 45.0962 142.965 45.0378 149.002 44.9692C158.763 44.8583 160.008 44.8081 160.239 44.515C160.568 44.0987 160.468 40.5072 160.118 40.1558C159.943 39.9793 156.74 39.9146 147.835 39.9075L135.789 39.8977L135.829 39.008C135.885 37.7929 136.619 35.435 137.362 34.0853C139.08 30.9655 141.315 28.9718 144.633 27.5994C147.93 26.236 150.088 25.9105 155.833 25.9105C158.674 25.9105 160.673 25.8272 160.912 25.6992C161.261 25.5111 161.305 25.2549 161.305 23.3759C161.305 21.7183 161.237 21.2076 160.99 21.0018C160.762 20.8115 159.406 20.7139 156.059 20.6469C153.521 20.5962 151.398 20.6009 151.342 20.6577ZM65.3399 21.1927C62.7537 21.7295 60.9465 22.3329 59.1524 23.2583C51.6121 27.1479 47.071 34.7647 47.2117 43.2862C47.3388 50.9767 51.1631 57.5559 57.9189 61.7063C59.4891 62.6709 62.059 63.7436 63.6117 64.0821C64.2827 64.2285 65.1518 64.4284 65.5432 64.5264C66.7155 64.8201 71.393 64.7376 73.0303 64.3945C78.5328 63.2417 83.0434 60.3607 86.4475 55.8246C87.5159 54.4012 89.0524 51.4576 89.5387 49.903C89.6792 49.4538 89.8666 48.9025 89.9553 48.6779C90.2839 47.8462 90.393 46.7573 90.4859 43.3834C90.5693 40.3548 90.5274 39.6973 90.1476 38.0744C88.4699 30.9044 83.9138 25.3956 77.3355 22.583C73.65 21.0073 68.8906 20.4556 65.3399 21.1927ZM8.11417 21.366C6.40551 22.0762 5.79394 23.206 5.37775 26.421C5.24702 27.4318 5.05794 28.856 4.9575 29.586C4.85706 30.316 4.67388 31.6943 4.55046 32.6489C4.42685 33.6035 4.24468 34.9358 4.14586 35.6096C4.04685 36.2835 3.86488 37.6618 3.74127 38.6725C3.61765 39.6833 3.43304 41.0615 3.33077 41.7354C3.22871 42.4092 3.04613 43.7416 2.92557 44.6962C2.8048 45.6508 2.61734 47.0979 2.50897 47.9122C2.40081 48.7265 2.21762 50.1048 2.10214 50.975C1.88703 52.5961 1.43364 55.8105 1.08678 58.1728C0.979636 58.9028 0.851344 59.9135 0.801939 60.4189C0.75233 60.9243 0.647622 61.8644 0.569142 62.508C0.364607 64.1836 0.509775 64.2985 2.83204 64.2985C3.87342 64.2985 4.93737 64.2175 5.19619 64.1187C5.78276 63.8945 6.02572 63.0334 6.47078 59.6021C6.65295 58.1983 6.84264 56.7741 6.89245 56.4372C7.03681 55.4591 7.97978 48.6305 8.21766 46.8402C8.33701 45.9417 8.51755 44.6094 8.619 43.8794C9.00164 41.1246 9.6183 36.3553 9.83361 34.4866C10.2061 31.2542 10.5218 29.2566 10.592 29.6881C10.6286 29.9127 10.7467 30.4181 10.8547 30.8111C12.8016 37.9025 13.8855 41.7117 14.8358 44.8029C15.2164 46.041 15.5277 47.2071 15.5277 47.3943C15.5277 47.5818 15.6192 47.7917 15.731 47.8611C15.8428 47.9305 15.9343 48.2072 15.9343 48.4762C15.9343 48.7451 16.0207 49.1761 16.1262 49.434C16.2319 49.6919 16.5158 50.5922 16.7573 51.4345C16.9988 52.2768 17.2674 53.1956 17.354 53.4764C17.4407 53.7572 17.7192 54.676 17.9725 55.5183C19.021 59.0016 20.2263 62.5094 20.5398 62.9899C21.1085 63.8616 21.8341 64.0944 23.9819 64.0944C27.2285 64.0944 27.5838 63.6654 29.1433 57.8665C29.234 57.5296 29.6392 56.1513 30.0442 54.8036C30.449 53.456 30.965 51.7101 31.1907 50.924C31.7002 49.1496 32.5925 46.1945 32.8247 45.5129C32.9205 45.2322 33.7327 42.3837 34.6299 39.183C35.5272 35.9823 36.3451 33.0879 36.448 32.7509C36.5507 32.414 36.7513 31.633 36.8939 31.0153C37.2602 29.4296 37.4318 29.3595 37.5764 30.7368C37.6455 31.3953 37.7907 32.6464 37.8988 33.5167C38.4183 37.6942 38.5171 38.4822 38.7174 40.0508C38.8357 40.9772 39.0199 42.3326 39.1267 43.0626C39.6217 46.4461 40.1778 50.3694 40.559 53.1701C40.7882 54.8547 41.0142 56.4168 41.061 56.6414C41.181 57.2158 41.478 59.1072 41.6384 60.3168C41.9052 62.3303 42.2209 63.6852 42.4724 63.8949C42.6269 64.0235 43.6435 64.0852 45.0374 64.0503L47.3465 63.9923L47.4156 63.2776C47.4536 62.8845 47.3819 61.8738 47.2558 61.0315C46.9608 59.0578 46.7095 57.2523 46.4462 55.212C46.039 52.0575 45.7924 50.2947 45.5037 48.4737C45.3434 47.463 44.7992 43.5578 44.2943 39.7956C43.7893 36.0333 43.2845 32.3119 43.1722 31.5258C43.0602 30.7397 42.8784 29.4304 42.7685 28.6161C42.0912 23.5997 41.9428 23.0672 40.9402 22.0605C39.9879 21.1041 38.6328 20.8319 36.3719 21.1431C35.6447 21.2431 35.2143 21.4585 34.6373 22.0109C33.9818 22.6386 33.7614 23.1021 33.1238 25.1959C31.908 29.187 31.7524 29.6709 31.565 30.0426C31.4668 30.2376 31.3867 30.5132 31.3873 30.6551C31.3879 30.797 31.1067 31.8321 30.7627 32.9551C30.4185 34.0782 30.0397 35.3646 29.921 35.8138C29.5647 37.1601 29.3814 37.7945 28.9766 39.0809C28.486 40.6405 26.8737 46.0383 26.5067 47.3506C26.3967 47.7437 26.1324 48.6626 25.9195 49.3926C25.7064 50.1225 25.3315 51.5008 25.0863 52.4554C24.8413 53.41 24.5573 54.4022 24.4554 54.6601C24.3536 54.918 24.2688 55.3315 24.2672 55.579C24.2653 55.8264 24.183 56.1574 24.0838 56.3147C23.8807 56.6369 23.9315 56.7919 21.9128 49.6988C21.1776 47.1158 20.4975 44.7268 20.4015 44.3899C19.9274 42.7269 19.7605 42.1013 19.6661 41.6333C19.6096 41.3525 19.488 40.939 19.3959 40.7144C19.1491 40.1131 18.8734 39.2555 18.4105 37.6515C18.1838 36.8654 17.7072 35.2574 17.3516 34.0782C16.996 32.899 16.5394 31.3829 16.3371 30.709C14.4916 24.5651 13.8218 22.7272 13.2015 22.1042C12.1217 21.0197 9.76855 20.6781 8.11417 21.366ZM95.6221 21.6119C94.2359 22.0344 93.5822 22.6686 93.1008 24.0581C92.8273 24.8475 92.7875 27.3909 92.7875 44.1032C92.7875 54.6307 92.843 63.3895 92.9109 63.5671C93.0138 63.8367 93.4344 63.8902 95.4452 63.8902C97.618 63.8902 97.8766 63.8514 98.0659 63.4965C98.2081 63.2296 98.2375 57.5514 98.1572 45.885C98.042 29.1174 98.0487 28.6837 98.4122 29.2989C99.2805 30.7693 100.31 32.3991 101.886 34.8018C102.808 36.2079 103.563 37.3951 103.563 37.4402C103.563 37.4853 104.204 38.4928 104.986 39.6792C105.769 40.8655 106.41 41.9208 106.41 42.0241C106.41 42.1274 106.485 42.2424 106.578 42.28C106.671 42.3173 107.241 43.129 107.845 44.0836C108.449 45.0382 109.01 45.9111 109.092 46.0234C109.174 46.1357 111.585 49.7652 114.45 54.089C117.314 58.4127 119.994 62.2572 120.404 62.6323C121.629 63.7527 122.174 63.9518 123.713 63.8412C125.976 63.6786 127.104 62.7012 127.557 60.5075C127.721 59.7144 127.768 54.0155 127.722 40.604C127.664 24.1702 127.618 21.7875 127.351 21.6182C126.894 21.3279 122.808 21.366 122.512 21.6633C122.326 21.85 122.267 25.9994 122.264 39.0707L122.259 56.233L121.35 54.8036C119.42 51.7728 115.728 46.0996 112.56 41.3002C110.743 38.5471 109.256 36.2093 109.256 36.1052C109.256 36.0011 109.171 35.9159 109.066 35.9159C108.962 35.9159 108.819 35.7328 108.748 35.5088C108.677 35.2848 108.492 34.9738 108.337 34.8178C108.181 34.6616 107.89 34.2542 107.689 33.9126C107.359 33.3498 103.776 27.931 103.411 27.442C103.327 27.3297 102.807 26.5486 102.256 25.7063C100.721 23.3604 99.7862 22.3206 98.7871 21.849C97.8626 21.4126 96.5893 21.3172 95.6221 21.6119ZM72.189 26.5021C73.0626 26.715 74.0505 26.9966 74.3844 27.1277C80.013 29.3395 83.9156 34.1756 84.8592 40.1082C86.0449 47.5622 82.3859 54.7044 75.7204 57.9472C75.0035 58.2959 74.2557 58.5812 74.0585 58.5812C73.8613 58.5812 73.6496 58.6629 73.588 58.7629C73.5266 58.8628 73.1324 59.0131 72.7119 59.0968C71.6856 59.3016 66.2532 59.3095 65.2549 59.108C64.0682 58.8681 61.4883 57.7258 60.2391 56.887C58.3414 55.6126 56.1198 53.3188 55.2555 51.7408C53.458 48.4596 52.9405 46.753 52.7878 43.6015C52.5575 38.8497 54.3117 34.3349 57.7219 30.9022C61.5753 27.0234 67.249 25.2978 72.189 26.5021Z" fill="white"/>
</svg>
