<svg width="8" height="11" viewBox="0 0 8 11" fill="none" xmlns="http://www.w3.org/2000/svg">
<path d="M6.18398 5.48837C5.99317 5.66462 5.77289 5.80635 5.53308 5.90718C5.12551 6.06271 4.68379 6.10795 4.25293 6.0383C4.02925 6.01181 3.80947 5.95926 3.5981 5.88174C4.08125 7.58986 5.01323 9.13891 6.29803 10.3693C4.97396 10.2856 3.70243 9.82274 2.63651 9.03654C1.17347 7.93667 -0.218773 5.90522 0.0289993 3.70939C0.0702944 3.35124 0.302342 1.62902 1.5471 0.707236C2.35334 0.108371 3.32018 -0.110169 4.44761 0.0516157C5.37577 0.184697 6.09156 0.556541 6.5989 1.15932C7.10624 1.7621 7.29305 2.52927 7.15933 3.45105C7.03086 4.33174 6.70574 5.01084 6.18398 5.48837Z" fill="#DA4533"/>
</svg>
