<svg width="8" height="11" viewBox="0 0 8 11" fill="none" xmlns="http://www.w3.org/2000/svg">
<path d="M1.81602 5.48837C2.00683 5.66462 2.22711 5.80635 2.46692 5.90718C2.87449 6.06271 3.31621 6.10795 3.74707 6.0383C3.97076 6.01181 4.19053 5.95926 4.4019 5.88174C3.91875 7.58986 2.98677 9.13891 1.70197 10.3693C3.02604 10.2856 4.29757 9.82274 5.36349 9.03654C6.82653 7.93667 8.21878 5.90522 7.971 3.70939C7.92971 3.35124 7.69766 1.62902 6.4529 0.707236C5.64666 0.108371 4.67982 -0.110169 3.55239 0.0516157C2.62423 0.184697 1.90844 0.556541 1.4011 1.15932C0.893756 1.7621 0.706949 2.52927 0.840667 3.45105C0.969141 4.33174 1.29426 5.01084 1.81602 5.48837Z" fill="#DA4533"/>
</svg>
