<svg width="70" height="100" viewBox="0 0 70 100" fill="none" xmlns="http://www.w3.org/2000/svg">
<path d="M35.6773 99.7197C35.5202 99.7197 35.3744 99.6524 35.2734 99.5177L0.821119 55.291C0.686452 55.1226 0.675231 54.887 0.787453 54.7074L35.2397 0.358179C35.3519 0.178624 35.5539 0.0888664 35.7559 0.133755C35.9579 0.167422 36.1262 0.32454 36.1711 0.52654L49.2001 60.8123C49.2226 60.9021 49.2113 60.9919 49.1889 61.0816L36.1599 99.3718C36.1038 99.5514 35.9467 99.6748 35.7559 99.7085C35.7335 99.7197 35.711 99.7197 35.6773 99.7197ZM1.85358 54.9543L35.4978 98.1486L48.1789 60.8909L35.4417 1.96298L1.85358 54.9543Z" fill="#8A8A8A"/>
<path d="M35.6773 99.7197C35.5763 99.7197 35.4865 99.6973 35.3968 99.6412C35.1611 99.4841 35.0938 99.1698 35.2509 98.9342L68.8614 47.7496L35.2621 0.941749C35.0938 0.717305 35.1499 0.391844 35.3743 0.223511C35.5988 0.0551772 35.9242 0.111295 36.0926 0.33574L69.8939 47.4242C70.0173 47.5925 70.0173 47.8282 69.9051 48.0078L36.1038 99.4953C36.0028 99.6412 35.8457 99.7197 35.6773 99.7197Z" fill="#8A8A8A"/>
<path d="M48.7063 61.4407C48.6839 61.4407 48.6614 61.4407 48.639 61.4407L1.15779 55.5042C0.87723 55.4705 0.675213 55.2124 0.720102 54.9318C0.753769 54.6513 1.01189 54.4381 1.29245 54.4942L48.5941 60.4083L69.2093 47.3119C69.445 47.1548 69.7592 47.2334 69.9163 47.4691C70.0622 47.7047 69.9949 48.019 69.7592 48.1761L48.9869 61.3734C48.8971 61.407 48.8073 61.4407 48.7063 61.4407Z" fill="#8A8A8A"/>
<path d="M1.22512 55.2349C1.13535 55.2349 1.05679 55.19 1.0119 55.1114C0.933343 54.988 0.967018 54.8309 1.09046 54.7635L22.6932 41.2408L35.4417 0.560209C35.4866 0.425543 35.6212 0.34696 35.7671 0.391849C35.9018 0.436738 35.9803 0.582636 35.9354 0.717303L23.1646 41.4877C23.1421 41.5438 23.1084 41.5999 23.0523 41.6223L1.37102 55.2012C1.31491 55.2236 1.27001 55.2349 1.22512 55.2349Z" fill="#8A8A8A"/>
<path d="M35.6773 99.4728C35.5651 99.4728 35.4529 99.3943 35.4304 99.2709L22.6596 41.4652C22.6371 41.3866 22.6596 41.2969 22.7269 41.2407C22.783 41.1846 22.8728 41.151 22.9513 41.1622L69.5348 47.4803C69.6807 47.5027 69.7705 47.6262 69.7592 47.7721C69.748 47.9179 69.6021 47.9965 69.4675 47.9965L23.2543 41.7233L35.9467 99.1699C35.9803 99.3045 35.8906 99.4392 35.7559 99.4728C35.711 99.4616 35.6998 99.4728 35.6773 99.4728Z" fill="#8A8A8A"/>
</svg>
