<svg width="162" height="161" viewBox="0 0 162 161" fill="none" xmlns="http://www.w3.org/2000/svg">
<path d="M77.1858 160.117C77.1302 160.117 77.0745 160.117 77.0373 160.097L42.1529 153.135C42.0416 153.116 41.9303 153.077 41.8561 152.998L13.5959 133.443C13.5031 133.384 13.4289 133.286 13.3547 133.189L3.11208 117.329C2.96364 117.094 2.92653 116.821 3.00075 116.547L13.0207 84.3976L15.7298 58.5452L0.811099 29.4465C0.699766 29.2314 0.681269 28.9576 0.755492 28.7229C0.829714 28.4883 1.01529 28.2927 1.23795 28.1949L25.991 17.5176L49.0927 0.973599C49.3154 0.817155 49.6123 0.778038 49.8535 0.875816L72.7882 9.75402C72.9181 9.81269 73.048 9.89092 73.1407 10.0083L80.9897 19.9034L130.069 17.8891C130.18 17.8891 130.31 17.9087 130.403 17.9478L160.908 30.5416C161.131 30.6394 161.298 30.8154 161.391 31.05C161.484 31.2847 161.465 31.5389 161.354 31.7736L146.213 63.5905L131.461 92.1025L130.403 121.123C130.403 121.279 130.347 121.436 130.255 121.573L120.977 136.298C120.921 136.396 120.847 136.474 120.754 136.533L100.807 151.375C100.733 151.414 100.677 151.454 100.603 151.493L77.4642 160.038C77.39 160.097 77.2786 160.117 77.1858 160.117ZM42.6354 151.414L77.1301 158.318L99.9535 149.889L119.678 135.222L128.733 120.849L129.791 91.8678C129.791 91.7309 129.828 91.594 129.902 91.4767L144.728 62.8083L159.443 31.8909L129.958 19.7274L80.6371 21.7416C80.3959 21.7611 80.1176 21.6438 79.9506 21.4287L71.9903 11.3771L49.6679 2.73359L26.7704 19.1212L2.74095 29.5051L17.3442 57.978C17.4184 58.1345 17.4555 58.3105 17.4369 58.506L14.6536 84.8083L4.72641 116.723L14.635 132.074L42.6354 151.414Z" fill="white"/>
<path d="M77.1858 160.117C76.7405 160.117 76.3693 159.745 76.3508 159.276L75.2003 137.276C75.2003 137.198 75.2003 137.139 75.2189 137.061L82.3999 96.3069L77.928 55.8073C77.8909 55.4358 78.0765 55.0643 78.3919 54.9078L103.442 42.0989L134.077 30.2678C134.17 30.2287 134.281 30.2287 134.374 30.2091L160.612 30.5416C161.075 30.5416 161.447 30.9523 161.447 31.4411C161.447 31.93 161.057 32.3211 160.593 32.3211C160.593 32.3211 160.593 32.3211 160.574 32.3211L134.485 31.9887L104.073 43.7416L79.6537 56.2376L84.0699 96.2483C84.0699 96.3265 84.0699 96.4242 84.0699 96.522L76.8888 137.315L78.0394 159.217C78.0579 159.706 77.7053 160.136 77.2414 160.156C77.2228 160.117 77.2044 160.117 77.1858 160.117Z" fill="white"/>
<path d="M78.7629 56.57C78.7444 56.57 78.7259 56.57 78.7073 56.57L49.4266 54.458C49.2781 54.4384 49.1112 54.3798 48.9999 54.3016L27.1971 37.8554L1.33063 29.8962C0.885293 29.7593 0.62552 29.2705 0.755409 28.8011C0.885297 28.3318 1.34918 28.058 1.79452 28.1949L27.7909 36.2127C27.8836 36.2322 27.9764 36.2909 28.0507 36.3496L49.7792 52.7371L78.8186 54.8296C79.2825 54.8687 79.6351 55.2794 79.5979 55.7878C79.5794 56.218 79.2083 56.57 78.7629 56.57Z" fill="white"/>
<path d="M120.29 136.728C119.882 136.728 119.53 136.415 119.455 135.985L113.536 98.7514C113.518 98.634 113.518 98.4971 113.555 98.3798L122.999 61.5371L133.242 31.754L103.331 25.6331L67.0174 22.4456C66.8133 22.426 66.6091 22.3282 66.4792 22.1718L48.9628 2.36201C48.6473 2.01001 48.6659 1.4429 48.9999 1.11046C49.3339 0.778013 49.8721 0.797577 50.1875 1.14958L67.4813 20.7051L103.553 23.8731L134.523 30.2091C134.764 30.2678 134.968 30.4242 135.098 30.6394C135.228 30.874 135.246 31.1283 135.153 31.3825L124.595 62.0651L115.225 98.6536L121.107 135.711C121.181 136.2 120.866 136.65 120.42 136.728C120.383 136.728 120.327 136.728 120.29 136.728Z" fill="white"/>
<path d="M100.343 151.571C100.325 151.571 100.325 151.571 100.306 151.571C99.8422 151.551 99.471 151.141 99.5081 150.632L100.807 119.461L102.013 80.9362L102.941 43.7807L76.5735 45.0909C76.425 45.0909 76.2766 45.0714 76.1467 44.9931L50.5771 31.2847L25.954 19.1603C25.5272 18.9452 25.3416 18.4171 25.5457 17.9869C25.7498 17.5371 26.2509 17.3416 26.6591 17.5567L51.3008 29.7007L76.7034 43.3309L103.757 41.9816C103.999 42.0011 104.221 42.0598 104.388 42.2358C104.555 42.4118 104.648 42.6465 104.648 42.9007L103.683 81.0145L102.477 119.558L101.178 150.73C101.16 151.199 100.788 151.571 100.343 151.571Z" fill="white"/>
<path d="M42.3199 153.135C41.856 153.135 41.4849 152.744 41.4663 152.275L40.9653 132.015C40.9653 131.898 40.9839 131.781 41.021 131.683L54.6222 94.3905L48.6473 53.7149C48.5917 53.2847 48.8329 52.874 49.2225 52.7372L76.1467 43.4287L103.015 24.0296C103.108 23.9709 103.201 23.9123 103.312 23.8927L129.921 17.9674C130.385 17.85 130.83 18.1825 130.923 18.6518C131.015 19.1407 130.719 19.61 130.273 19.7078L103.832 25.594L77.0003 44.9736C76.926 45.0127 76.8703 45.0518 76.7775 45.0909L50.4101 54.2038L56.2922 94.3514C56.3108 94.5078 56.2923 94.6643 56.2366 94.8011L42.6168 132.152L43.1178 152.236C43.1364 152.725 42.7653 153.135 42.3014 153.155C42.3199 153.135 42.3199 153.135 42.3199 153.135Z" fill="white"/>
<path d="M14.0412 133.58C13.9113 133.58 13.7815 133.541 13.6516 133.482C13.2434 133.247 13.0764 132.719 13.299 132.289L26.2508 106.124L39.852 77.8074L26.7704 37.3274C26.6961 37.0927 26.7146 36.8385 26.826 36.6038C26.9373 36.3887 27.1415 36.2323 27.3642 36.1736L51.6719 30.2287L66.6462 20.7638C67.0359 20.5096 67.574 20.6465 67.8152 21.0767C68.0565 21.5069 67.9265 22.0545 67.5183 22.3087L52.4326 31.8323C52.3584 31.8714 52.2842 31.9105 52.1914 31.93L28.663 37.6989L41.5591 77.5727C41.6333 77.8074 41.6147 78.042 41.5219 78.2571L27.7538 106.926L14.7834 133.11C14.635 133.404 14.3381 133.58 14.0412 133.58Z" fill="white"/>
<path d="M76.0539 138.097C76.0168 138.097 75.9796 138.097 75.924 138.097L41.689 132.876C41.4477 132.837 41.2251 132.68 41.0952 132.465L26.2879 107.004L13.1134 85.1798C12.8721 84.7691 12.9835 84.2216 13.3732 83.9478C13.7628 83.674 14.2824 83.8109 14.5422 84.2216L27.7166 106.065L42.3199 131.194L75.8497 136.318L101.03 118.894L113.647 98.1452C113.74 97.9887 113.889 97.8714 114.056 97.7931L130.329 91.0856C130.756 90.9096 131.257 91.1247 131.424 91.594C131.591 92.0438 131.386 92.5718 130.941 92.7478L114.928 99.3576L102.347 120.028C102.291 120.126 102.199 120.223 102.106 120.282L76.4992 137.98C76.3693 138.058 76.2023 138.097 76.0539 138.097Z" fill="white"/>
<path d="M83.2535 97.2064C83.2349 97.2064 83.2163 97.2064 83.1977 97.2064L55.4386 95.3487C55.2159 95.3291 55.0118 95.2314 54.8634 95.0554L39.9447 77.8269L16.1009 59.0731C15.7298 58.7798 15.6555 58.2127 15.9338 57.8216C16.2122 57.4304 16.7318 57.3522 17.1214 57.6456L41.0766 76.4971L55.884 93.5691L82.9937 95.3878L102.347 80.2322L123.259 61.0482C123.426 60.8918 123.649 60.8136 123.871 60.8331L145.526 62.2998C145.99 62.3389 146.342 62.7496 146.305 63.2385C146.268 63.7273 145.86 64.0989 145.415 64.0598L124.113 62.6127L103.405 81.6011L83.7544 96.9913C83.6059 97.1478 83.4205 97.2064 83.2535 97.2064Z" fill="white"/>
<path d="M59.0569 156.03C58.927 156.03 58.7972 155.971 58.7229 155.854L43.6373 135.183L51.4863 153.8C51.5791 154.035 51.4862 154.289 51.2636 154.387C51.0595 154.485 50.7997 154.387 50.7069 154.152L41.4291 132.133C41.3364 131.918 41.4106 131.683 41.5962 131.566C41.7817 131.448 42.0229 131.507 42.1528 131.683L59.3909 155.286C59.5394 155.482 59.5023 155.756 59.3167 155.912C59.2239 156.01 59.1497 156.03 59.0569 156.03Z" fill="white"/>
<path d="M73.2149 158.865C73.1221 158.865 73.0293 158.826 72.955 158.767L47.6268 137.432L65.8854 156.577C66.0524 156.753 66.0524 157.027 65.8854 157.203C65.7184 157.379 65.4586 157.379 65.2916 157.203L41.5219 132.289C41.3549 132.133 41.355 131.859 41.5035 131.683C41.6519 131.507 41.9117 131.487 42.0787 131.624L73.4747 158.063C73.6602 158.22 73.6787 158.494 73.5488 158.689C73.4561 158.806 73.3262 158.865 73.2149 158.865Z" fill="white"/>
<path d="M77.0187 156.303C76.9445 156.303 76.8518 156.284 76.7961 156.225L41.5777 132.348C41.3921 132.211 41.3364 131.957 41.4292 131.761C41.5405 131.546 41.7817 131.468 41.9858 131.585L76.8704 149.126C77.0745 149.224 77.1672 149.498 77.0745 149.713C76.9817 149.928 76.7219 150.026 76.5178 149.928L47.6454 135.418L77.26 155.482C77.4641 155.619 77.5198 155.893 77.3899 156.088C77.2971 156.225 77.1486 156.303 77.0187 156.303Z" fill="white"/>
<path d="M76.3508 143.475C76.3137 143.475 76.2766 143.475 76.2209 143.455L41.6704 132.406C41.4478 132.328 41.318 132.094 41.3922 131.859C41.4664 131.624 41.689 131.487 41.9117 131.566L76.4621 142.614C76.6848 142.693 76.8147 142.927 76.7405 143.162C76.7034 143.338 76.5363 143.475 76.3508 143.475Z" fill="white"/>
<path d="M69.5224 136.67C69.4667 136.67 69.4296 136.67 69.3739 136.65C69.1512 136.572 69.04 136.318 69.1142 136.083L80.6186 102.643L64.4382 135.614C64.3268 135.829 64.0671 135.926 63.863 135.809C63.6588 135.692 63.566 135.418 63.6773 135.203L82.8453 96.1309C82.938 95.9158 83.1792 95.8376 83.3833 95.9353C83.5874 96.0331 83.6803 96.2678 83.6061 96.5024L69.8749 136.396C69.8564 136.552 69.6894 136.67 69.5224 136.67Z" fill="white"/>
<path d="M58.5189 134.988C58.4446 134.988 58.3518 134.968 58.2776 134.91C58.0921 134.773 58.0364 134.499 58.1663 134.284L78.9485 102.154L52.5996 133.873C52.4512 134.069 52.1728 134.088 52.0058 133.912C51.8388 133.756 51.8202 133.462 51.9687 133.286L82.9193 96.0135C83.0678 95.8375 83.3091 95.818 83.4947 95.9549C83.6617 96.0918 83.7173 96.3655 83.5874 96.5611L58.8528 134.773C58.7786 134.91 58.6487 134.988 58.5189 134.988Z" fill="white"/>
<path d="M46.0495 133.071C45.9381 133.071 45.8268 133.032 45.7341 132.934C45.5856 132.758 45.5856 132.465 45.7526 132.309L77.3157 101.509L43.7486 127.713C43.5631 127.85 43.2847 127.811 43.1548 127.615C43.0064 127.42 43.0621 127.146 43.2477 126.99L82.9937 95.9745C83.1792 95.8376 83.4204 95.8767 83.5689 96.0527C83.7173 96.2287 83.6987 96.5024 83.5317 96.6589L46.3279 132.974C46.2536 133.032 46.1423 133.071 46.0495 133.071Z" fill="white"/>
<path d="M46.3464 119.95C46.198 119.95 46.0681 119.871 45.9753 119.734C45.864 119.519 45.9197 119.246 46.1238 119.128L78.1321 99.0055L49.6308 111.345C49.4081 111.423 49.1668 111.326 49.074 111.11C48.9813 110.876 49.0926 110.622 49.2967 110.524L83.0678 95.8962C83.2719 95.818 83.5132 95.8962 83.606 96.1113C83.6988 96.3264 83.6431 96.5807 83.439 96.698L46.5505 119.891C46.4948 119.93 46.4206 119.95 46.3464 119.95Z" fill="white"/>
<path d="M51.7091 105.244C51.5235 105.244 51.3565 105.107 51.3008 104.911C51.2452 104.677 51.3751 104.422 51.5978 104.364L77.8538 97.3042L53.7502 99.7291C53.5275 99.7878 53.3048 99.5727 53.2863 99.3185C53.2677 99.0642 53.4347 98.8491 53.6574 98.8296L83.1792 95.8571C83.4019 95.8376 83.606 95.994 83.6431 96.2287C83.6803 96.4633 83.5504 96.6785 83.3277 96.7371L51.8019 105.224C51.7833 105.244 51.7462 105.244 51.7091 105.244Z" fill="white"/>
<path d="M114.371 99.0447C114.241 99.0447 114.111 98.986 114.037 98.8687C113.907 98.6927 113.926 98.4189 114.093 98.2625L138.512 75.7931C138.679 75.6367 138.957 75.6562 139.106 75.8322C139.254 76.0082 139.236 76.3016 139.069 76.458L119.53 94.4491L134.226 84.1434C134.411 84.0065 134.689 84.0651 134.819 84.2607C134.949 84.4562 134.894 84.7496 134.708 84.8865L114.631 98.9665C114.538 99.0056 114.445 99.0447 114.371 99.0447Z" fill="white"/>
<path d="M114.371 99.0447C114.278 99.0447 114.186 99.0056 114.111 98.9469C113.944 98.7905 113.907 98.5362 114.037 98.3407L137.992 62.4758C138.122 62.2607 138.382 62.2216 138.586 62.3585C138.772 62.4954 138.827 62.7691 138.698 62.9842L118.379 93.4127L145.192 62.906C145.359 62.73 145.619 62.7105 145.786 62.8865C145.953 63.0429 145.971 63.3362 145.804 63.5122L114.705 98.8882C114.594 98.986 114.482 99.0447 114.371 99.0447Z" fill="white"/>
<path d="M114.371 99.0447C114.315 99.0447 114.241 99.0251 114.186 99.0056C113.981 98.9078 113.889 98.634 113.982 98.4189L130.255 62.026C130.347 61.8109 130.607 61.7131 130.811 61.8109C131.016 61.9087 131.108 62.1825 131.016 62.3976L114.742 98.7905C114.687 98.9469 114.52 99.0447 114.371 99.0447Z" fill="white"/>
</svg>
