<svg width="94" height="96" viewBox="0 0 94 96" fill="none" xmlns="http://www.w3.org/2000/svg">
<path d="M46.8118 95.4563C46.6771 95.4563 46.5424 95.4002 46.4414 95.2992L0.632341 48.2668C0.441563 48.0648 0.441563 47.7506 0.632341 47.5598L46.4414 0.52748C46.6322 0.32548 46.9801 0.32548 47.1709 0.52748L92.98 47.5598C93.1708 47.7618 93.1708 48.076 92.98 48.2668L47.1709 95.2992C47.0811 95.4002 46.9577 95.4563 46.8118 95.4563ZM1.7209 47.9077L46.8118 94.2106L91.9027 47.9077L46.8118 1.6048L1.7209 47.9077Z" fill="#8A8A8A"/>
<path d="M52.9167 51.4203L0.980225 48.4239C0.69967 48.4127 0.486439 48.1658 0.497661 47.8853C0.508883 47.6047 0.744562 47.3802 1.03634 47.4027L52.9055 50.399L92.576 47.4027C92.879 47.369 93.1034 47.5935 93.1259 47.874C93.1483 48.1546 92.9351 48.4015 92.6546 48.4239L52.9167 51.4203Z" fill="#8A8A8A"/>
<path d="M46.8118 95.4563C46.7893 95.4563 46.7669 95.4563 46.7444 95.4563C46.4639 95.4226 46.2731 95.1645 46.3068 94.8839L52.3668 50.9153L46.3068 0.94271C46.2731 0.662154 46.4751 0.404032 46.7557 0.370365C47.0362 0.336699 47.2943 0.538726 47.328 0.819282L53.388 50.8479C53.388 50.8928 53.388 50.9377 53.388 50.9826L47.328 95.0186C47.2831 95.2655 47.0699 95.4563 46.8118 95.4563Z" fill="#8A8A8A"/>
<path d="M46.8118 95.1982C46.6883 95.1982 46.5761 95.1084 46.5537 94.9737L39.8428 44.3615C39.8428 44.3391 39.8428 44.3166 39.8428 44.2829L46.5537 0.830494C46.5761 0.695827 46.6883 0.594825 46.823 0.617269C46.9577 0.628491 47.0587 0.740726 47.0587 0.875392V94.9401C47.0587 95.0747 46.9577 95.1869 46.823 95.1982C46.823 95.1982 46.823 95.1982 46.8118 95.1982ZM40.359 44.3278L46.5537 91.0684V4.19716L40.359 44.3278Z" fill="#8A8A8A"/>
<path d="M92.6209 48.1658H1.0139C0.879229 48.1658 0.767011 48.0536 0.755789 47.9189C0.755789 47.7843 0.856779 47.6608 0.991446 47.6496L40.0897 44.0697L92.6433 47.6496C92.778 47.6608 92.8902 47.773 92.879 47.9077C92.8678 48.0536 92.7556 48.1658 92.6209 48.1658ZM6.59134 47.6496H85.1132L40.0784 44.5747L6.59134 47.6496Z" fill="#8A8A8A"/>
<path d="M52.883 51.1622C52.8381 51.1622 52.8044 51.1509 52.7708 51.1285L39.9999 44.5523C39.8765 44.485 39.8203 44.339 39.8877 44.2044C39.955 44.0809 40.1121 44.0248 40.2356 44.0922L53.0065 50.6684C53.1299 50.7357 53.186 50.8816 53.1187 51.0163C53.0626 51.1173 52.9728 51.1622 52.883 51.1622Z" fill="#8A8A8A"/>
</svg>
