<svg width="163" height="163" viewBox="0 0 163 163" fill="none" xmlns="http://www.w3.org/2000/svg">
<path d="M102.162 162.257C102.106 162.257 102.069 162.257 102.014 162.238L55.9402 153.692C55.7361 153.653 55.5506 153.536 55.4207 153.36L30.4634 118.727L0.960099 62.6413C0.848766 62.4262 0.830194 62.1916 0.885861 61.9569L10.7018 25.7596C10.7574 25.5445 10.8873 25.3685 11.0543 25.2511L46.9037 0.963102C47.0521 0.865324 47.2191 0.806703 47.3676 0.826259L111.162 2.1756C111.236 2.1756 111.31 2.19513 111.384 2.21469L150.221 14.5738C150.499 14.652 150.703 14.8867 150.796 15.18L162.319 57.9089C162.375 58.124 162.356 58.3587 162.264 58.5542L141.147 102.163L115.299 147.415L102.83 161.944C102.626 162.16 102.403 162.257 102.162 162.257ZM56.5525 152.01L101.847 160.4L113.908 146.378L139.626 101.322L160.575 58.0653L149.275 16.1578L110.995 3.97467L47.5716 2.62534L12.2048 26.5809L2.57442 62.1134L31.8551 117.768L56.5525 152.01Z" fill="white"/>
<path d="M43.9162 53.6654C43.7307 53.6654 43.5451 53.6067 43.3967 53.4698L10.9615 26.7178C10.5904 26.4049 10.5348 25.8574 10.8131 25.4662C11.11 25.0751 11.6296 25.0165 12.0007 25.3098L44.1389 51.8272L99.787 42.0885L110.308 2.84051C110.438 2.37118 110.902 2.0974 111.347 2.23429C111.792 2.37118 112.052 2.86006 111.922 3.3294L101.271 43.1249C101.179 43.4573 100.919 43.7116 100.603 43.7703L44.0647 53.6654C44.009 53.6654 43.9533 53.6654 43.9162 53.6654Z" fill="white"/>
<path d="M140.349 102.672C140.09 102.672 139.83 102.535 139.663 102.3L99.7685 43.3987C99.4901 43.0076 99.5829 42.4405 99.9725 42.1667C100.344 41.8733 100.882 41.9712 101.142 42.3818L141.036 101.283C141.314 101.694 141.222 102.241 140.832 102.515C140.683 102.632 140.516 102.672 140.349 102.672Z" fill="white"/>
<path d="M114.539 147.865C114.39 147.865 114.242 147.825 114.112 147.747L69.5229 120.311C69.3559 120.213 69.2446 120.056 69.1704 119.88L43.1369 53.0983C42.9514 52.6485 43.1741 52.1205 43.6008 51.9445C44.0276 51.7489 44.5286 51.9836 44.6956 52.4334L70.6177 118.922L114.965 146.202C115.374 146.457 115.504 147.004 115.262 147.415C115.114 147.708 114.817 147.865 114.539 147.865Z" fill="white"/>
<path d="M69.9496 120.448H69.9311L31.0943 119.098C30.6304 119.079 30.2593 118.668 30.2779 118.179C30.2964 117.69 30.6675 117.319 31.15 117.319L69.9868 118.668C70.4507 118.688 70.8217 119.098 70.8032 119.587C70.7661 120.056 70.395 120.448 69.9496 120.448Z" fill="white"/>
<path d="M120.402 38.1578H120.384L57.5545 34.7943C57.3875 34.7943 57.2391 34.6574 57.1834 34.4814L46.9408 1.88225C46.8665 1.64759 46.9964 1.39341 47.2005 1.31519C47.4232 1.23696 47.6644 1.35427 47.7386 1.58893L57.8885 33.8947L120.291 37.2387L149.72 15.0627C149.906 14.9258 150.165 14.9649 150.314 15.1605C150.444 15.356 150.407 15.6494 150.221 15.7863L120.681 38.0405C120.569 38.1187 120.495 38.1578 120.402 38.1578Z" fill="white"/>
<path d="M21.0929 83.5267C20.9816 83.5267 20.8702 83.4876 20.796 83.3898L1.3869 62.524C1.2199 62.348 1.2199 62.0743 1.3869 61.8983C1.5539 61.7223 1.81364 61.7223 1.98064 61.8983L21.0557 82.4121L57.2391 34.0512C57.3875 33.8556 57.6473 33.8165 57.8329 33.9729C58.0184 34.1294 58.0556 34.4032 57.9071 34.5987L21.4269 83.3507C21.3527 83.4485 21.2413 83.5071 21.1114 83.5267C21.0929 83.5267 21.0929 83.5267 21.0929 83.5267Z" fill="white"/>
<path d="M56.0702 153.262C55.9032 153.262 55.7547 153.164 55.6805 152.988L44.5843 125.102L20.7218 83.3116C20.6105 83.0965 20.6662 82.8227 20.8703 82.7053C21.0744 82.588 21.3342 82.6467 21.4455 82.8618L45.345 124.711L56.4598 152.656C56.5526 152.89 56.4413 153.144 56.2372 153.242C56.1815 153.262 56.1258 153.262 56.0702 153.262Z" fill="white"/>
<path d="M124.559 112.117C124.503 112.117 124.466 112.117 124.41 112.078L91.771 98.8191C91.6597 98.78 91.5669 98.6822 91.5298 98.5649C91.4926 98.4476 91.4927 98.3107 91.5483 98.2129L120.031 37.5125C120.142 37.2974 120.384 37.1996 120.588 37.317C120.792 37.4343 120.885 37.6885 120.773 37.9036L92.4946 98.1738L124.41 111.139L161.132 57.909C161.262 57.7134 161.54 57.6547 161.725 57.8111C161.911 57.948 161.948 58.2414 161.818 58.4369L124.911 111.941C124.818 112.058 124.689 112.117 124.559 112.117Z" fill="white"/>
<path d="M102.162 161.808C102.106 161.808 102.032 161.788 101.977 161.768C101.772 161.671 101.68 161.397 101.772 161.182L124.169 111.491C124.262 111.276 124.522 111.178 124.726 111.276C124.93 111.374 125.023 111.648 124.93 111.863L102.533 161.553C102.478 161.729 102.311 161.808 102.162 161.808Z" fill="white"/>
<path d="M44.9739 125.395C44.8255 125.395 44.677 125.317 44.6028 125.16C44.4914 124.945 44.5657 124.672 44.7698 124.554L91.6968 98.0174C91.9009 97.9 92.1607 97.9782 92.272 98.1934C92.3833 98.4085 92.3091 98.6822 92.105 98.7996L45.178 125.336C45.1223 125.376 45.0481 125.395 44.9739 125.395Z" fill="white"/>
</svg>
