<svg width="155" height="175" viewBox="0 0 155 175" fill="none" xmlns="http://www.w3.org/2000/svg">
<path d="M56.8542 128.491C56.634 128.491 56.3954 128.394 56.2486 128.218C56.0283 127.963 55.9549 127.592 56.0834 127.279L82.6749 58.8149C82.7484 58.6389 82.8585 58.502 83.0053 58.4042L119.562 33.4513C119.819 33.2753 120.149 33.2558 120.424 33.4318C120.7 33.5882 120.865 33.9011 120.846 34.2336L119.268 105.729C119.268 106.1 119.03 106.433 118.699 106.55L57.1478 128.472C57.0377 128.491 56.9459 128.491 56.8542 128.491ZM84.1064 59.734L58.3223 126.145L117.598 105.044L119.121 35.8371L84.1064 59.734Z" fill="white"/>
<path d="M55.5879 174.427H55.5696C55.1108 174.408 54.7437 173.997 54.7621 173.508L56.01 127.983L24.3167 95.8727C24.1699 95.7162 24.0781 95.5207 24.0598 95.3056L18.5176 28.0345C18.4992 27.7216 18.6277 27.4087 18.8663 27.2327C19.1048 27.0567 19.4168 27.0176 19.6921 27.1545L83.776 58.3456C84.1981 58.5411 84.3816 59.0887 84.1798 59.5189C83.9963 59.9687 83.4824 60.1642 83.0787 59.9491L20.316 29.3838L25.6931 94.8167L57.4231 126.966C57.5882 127.142 57.6984 127.377 57.68 127.631L56.4137 173.547C56.4137 174.036 56.0467 174.427 55.5879 174.427Z" fill="white"/>
<path d="M116.46 166.664C116.46 166.664 116.442 166.664 116.424 166.664C115.965 166.644 115.598 166.234 115.616 165.745L117.561 105.65C117.58 105.279 117.8 104.966 118.112 104.849L153.09 91.414C153.531 91.238 154.008 91.4922 154.155 91.942C154.32 92.4113 154.081 92.9198 153.659 93.0762L119.213 106.296L117.286 165.784C117.286 166.292 116.919 166.664 116.46 166.664Z" fill="white"/>
<path d="M129.747 18.2762C129.747 18.2762 129.729 18.2762 129.71 18.2762L80.069 16.3598C79.9773 16.3598 79.8671 16.3402 79.7754 16.2816L49.5502 2.6709C49.1281 2.47534 48.9263 1.9669 49.1098 1.49757C49.2933 1.04779 49.7888 0.832674 50.2109 1.02823L80.2892 14.5607L129.765 16.4576C130.224 16.4771 130.591 16.8878 130.573 17.3767C130.573 17.8851 130.206 18.2762 129.747 18.2762Z" fill="white"/>
<path d="M135.766 72.5625C135.454 72.5625 135.142 72.3669 135.014 72.0344L119.378 34.8593L80.0323 16.3989L19.5086 28.8167C19.1232 28.8753 18.7194 28.6602 18.5726 28.2691L13.6727 15.1278C13.5076 14.678 13.7094 14.15 14.1315 13.974C14.5536 13.798 15.0491 14.0131 15.2143 14.4629L19.8756 26.9393L79.9589 14.5998C80.1241 14.5607 80.2892 14.5802 80.4544 14.6585L120.333 33.3731C120.516 33.4513 120.681 33.6273 120.755 33.8229L136.519 71.3109C136.702 71.7607 136.519 72.2887 136.097 72.4842C136.005 72.5429 135.876 72.5625 135.766 72.5625Z" fill="white"/>
<path d="M55.5879 174.427C55.331 174.427 55.0924 174.31 54.9273 174.075L20.7565 126.77L6.71747 125.46C6.31373 125.421 6.00176 125.089 5.96506 124.678L0.422852 71.4478C0.422852 71.4282 0.422852 71.4087 0.422852 71.3891C0.422852 71.3109 0.422859 71.2327 0.459563 71.1349L13.636 14.5998C13.7095 14.3065 13.9113 14.0718 14.1682 13.974L49.6236 1.04779C49.7337 1.00868 49.8438 0.989126 49.954 1.00868L89.8321 3.92246L130.004 16.5554C130.316 16.6531 130.554 16.9465 130.591 17.2985L136.574 71.3109L154.008 91.6682C154.155 91.8442 154.228 92.0593 154.228 92.294L153.164 133.322C153.164 133.576 153.054 133.81 152.87 133.967L116.993 166.449C116.864 166.566 116.717 166.625 116.552 166.664L55.6797 174.427C55.6613 174.427 55.6246 174.427 55.5879 174.427ZM22.0778 125.675L55.9733 172.589L116.13 164.923L151.53 132.872L152.558 92.5873L135.161 72.2887C135.051 72.1518 134.977 71.9758 134.94 71.7998L128.995 18.0807L89.5385 5.6629L50.009 2.76868L15.1409 15.4798L2.18461 71.0567L25.4545 94.582C25.6564 94.7776 25.7481 95.0514 25.7114 95.3447L22.0778 125.675ZM7.5433 123.759L20.4629 124.971L24.0047 95.5793L2.33142 73.6771L7.5433 123.759Z" fill="white"/>
<path d="M56.2119 151.332C56.0651 151.332 55.9366 151.254 55.8448 151.117L24.5186 95.462C24.4085 95.2665 24.4635 94.9927 24.647 94.8558C24.8306 94.7189 25.0691 94.758 25.2159 94.9536L56.8542 139.482C57.001 139.677 56.9643 139.951 56.7808 140.107C56.5973 140.264 56.3403 140.225 56.1935 140.029L29.235 102.072L56.5789 150.648C56.689 150.863 56.634 151.137 56.4321 151.254C56.3587 151.313 56.2853 151.332 56.2119 151.332Z" fill="white"/>
<path d="M47.2746 162.479C47.1095 162.479 46.9443 162.362 46.8892 162.186L24.5002 95.3838C24.4268 95.1687 24.5186 94.9145 24.7204 94.8167C24.9223 94.7189 25.1609 94.8167 25.2526 95.0318L56.3036 160.954C56.4137 161.169 56.322 161.442 56.1201 161.54C55.9182 161.658 55.6613 161.56 55.5512 161.345L27.5833 101.954L47.6784 161.892C47.7518 162.127 47.6417 162.381 47.4214 162.459C47.3847 162.479 47.3297 162.479 47.2746 162.479Z" fill="white"/>
<path d="M36.0801 146.971C35.8966 146.971 35.7131 146.834 35.6764 146.619L25.5463 100.194L27.1612 133.556C27.1796 133.81 26.996 134.006 26.7575 134.026C26.5189 134.006 26.3354 133.85 26.317 133.595L24.4635 95.2273C24.4452 94.9927 24.6103 94.7971 24.8306 94.758C25.0141 94.7385 25.2526 94.8753 25.2894 95.0905L36.4839 146.385C36.5389 146.619 36.3921 146.874 36.1719 146.913C36.1535 146.971 36.1168 146.971 36.0801 146.971Z" fill="white"/>
<path d="M56.8542 128.061C56.7257 128.061 56.6156 128.002 56.5238 127.905C56.377 127.729 56.3954 127.455 56.5606 127.298L118.956 67.5953C119.121 67.4389 119.397 67.4389 119.543 67.6345C119.69 67.8105 119.69 68.1038 119.507 68.2602L62.9102 122.429L118.718 79.5634C118.901 79.4069 119.158 79.4656 119.305 79.6611C119.433 79.8567 119.397 80.1305 119.213 80.2869L57.0744 128.002C57.0193 128.022 56.9459 128.061 56.8542 128.061Z" fill="white"/>
<path d="M57.8085 127.553C57.6617 127.553 57.5148 127.455 57.4414 127.298C57.3497 127.083 57.4231 126.829 57.6066 126.712L118.552 90.1233C118.754 90.006 119.011 90.0842 119.121 90.2993C119.231 90.5145 119.158 90.7882 118.956 90.9056L66.3053 122.527L118.424 97.3589C118.644 97.2611 118.883 97.3589 118.975 97.574C119.066 97.7891 118.975 98.0629 118.773 98.1607L57.992 127.514C57.9186 127.533 57.8635 127.553 57.8085 127.553Z" fill="white"/>
<path d="M98.8611 87.8745C98.806 87.8745 98.751 87.8549 98.6959 87.8353C98.4757 87.7376 98.384 87.4834 98.4757 87.2487L119.617 34.0185C119.709 33.8033 119.929 33.7056 120.131 33.7642C120.333 33.8424 120.461 34.0771 120.406 34.2922L109.854 77.3927C109.799 77.6273 109.578 77.7838 109.34 77.7056C109.12 77.6469 108.991 77.3927 109.046 77.158L118.149 39.9829L99.2465 87.5811C99.1731 87.7571 99.0263 87.8745 98.8611 87.8745Z" fill="white"/>
<path d="M70.5812 114.92C70.5078 114.92 70.416 114.9 70.3426 114.842C70.1591 114.705 70.1041 114.431 70.2142 114.216L119.617 33.9402C119.745 33.7447 119.984 33.686 120.186 33.8033C120.388 33.9207 120.443 34.1945 120.333 34.39L87.7767 98.5518C87.6666 98.7669 87.4097 98.8451 87.2078 98.7278C87.0059 98.6105 86.9325 98.3367 87.0426 98.1216L114.919 43.19L70.9115 114.705C70.8565 114.842 70.728 114.92 70.5812 114.92Z" fill="white"/>
<path d="M56.8542 128.061C56.7808 128.061 56.7074 128.042 56.634 128.002C56.4321 127.866 56.377 127.592 56.5055 127.396L101.504 50.4451L71.6089 90.8078C71.4621 91.0034 71.2052 91.0425 71.0217 90.886C70.8381 90.7296 70.8014 90.4558 70.9482 90.2602L105.504 43.6202C105.651 43.4247 105.89 43.4051 106.073 43.5225C106.257 43.6594 106.312 43.9136 106.183 44.1287L57.2212 127.866C57.1295 127.983 57.001 128.061 56.8542 128.061Z" fill="white"/>
<path d="M98.8611 68.9838C98.8244 68.9838 98.7877 68.9838 98.7326 68.9642C98.5124 68.886 98.384 68.6514 98.4574 68.4167L105.413 43.7376C105.468 43.542 105.651 43.3856 105.853 43.4247C106.055 43.4442 106.202 43.6202 106.22 43.8353L107.156 55.6665C107.174 55.9207 107.009 56.1358 106.771 56.1554C106.514 56.1945 106.33 55.9989 106.312 55.7447L105.578 46.2211L99.2465 68.6514C99.2098 68.8665 99.0263 68.9838 98.8611 68.9838Z" fill="white"/>
<path d="M111.983 47.6487C111.909 47.6487 111.854 47.6291 111.799 47.6096L105.633 44.2656C105.486 44.1873 105.394 44.0113 105.413 43.8353C105.431 43.6593 105.541 43.5029 105.706 43.4442L116.038 40.022C116.258 39.9438 116.497 40.0807 116.552 40.3154C116.625 40.55 116.497 40.8042 116.277 40.8629L106.936 43.9722L112.184 46.8273C112.386 46.9447 112.478 47.1989 112.368 47.4336C112.276 47.5705 112.129 47.6487 111.983 47.6487Z" fill="white"/>
<path d="M78.3073 72.7971C78.1972 72.7971 78.087 72.758 78.0136 72.6602C77.8485 72.4842 77.8485 72.2105 78.0136 72.0345L105.523 43.542C105.688 43.366 105.945 43.366 106.11 43.542C106.275 43.718 106.275 43.9918 106.11 44.1678L78.6009 72.6602C78.5275 72.758 78.4174 72.7971 78.3073 72.7971Z" fill="white"/>
<path d="M152.338 133.732C152.191 133.732 152.026 133.634 151.971 133.478L136.06 98.9625C135.95 98.7474 136.042 98.4736 136.243 98.3758C136.445 98.278 136.702 98.3562 136.794 98.5713L151.163 129.723L144.043 95.7749C143.988 95.5402 144.135 95.3056 144.355 95.2469C144.575 95.1882 144.795 95.3447 144.85 95.5793L152.742 133.185C152.797 133.4 152.668 133.634 152.466 133.693C152.43 133.732 152.375 133.732 152.338 133.732Z" fill="white"/>
<path d="M152.338 133.732C152.246 133.732 152.154 133.693 152.081 133.634L119.745 105.435C119.562 105.279 119.543 105.005 119.69 104.81C119.837 104.614 120.094 104.594 120.277 104.751L149.475 130.232L128.205 102.091C128.059 101.896 128.095 101.622 128.26 101.466C128.444 101.309 128.701 101.348 128.848 101.524L152.65 133.009C152.778 133.185 152.778 133.439 152.613 133.595C152.54 133.693 152.448 133.732 152.338 133.732Z" fill="white"/>
<path d="M152.338 133.732C152.301 133.732 152.264 133.732 152.228 133.713L117.727 124.306C117.506 124.248 117.36 123.994 117.433 123.759C117.488 123.524 117.708 123.368 117.947 123.446L148.888 131.874L117.947 114.881C117.745 114.763 117.653 114.509 117.763 114.274C117.873 114.059 118.13 113.962 118.332 114.079L152.54 132.872C152.723 132.97 152.815 133.204 152.742 133.419C152.668 133.615 152.503 133.732 152.338 133.732Z" fill="white"/>
<path d="M117.231 142.61C117.048 142.61 116.864 142.474 116.827 142.278C116.772 142.043 116.919 141.789 117.139 141.75L149.071 133.674L117.543 132.97C117.305 132.97 117.121 132.754 117.139 132.52C117.139 132.266 117.378 132.05 117.561 132.09L152.356 132.872C152.558 132.872 152.742 133.048 152.76 133.263C152.778 133.478 152.65 133.693 152.448 133.752L117.341 142.63C117.286 142.61 117.268 142.61 117.231 142.61Z" fill="white"/>
<path d="M116.901 152.623C116.754 152.623 116.607 152.525 116.534 152.369C116.424 152.154 116.515 151.88 116.717 151.782L152.154 132.891C152.356 132.774 152.613 132.872 152.705 133.087C152.815 133.302 152.723 133.576 152.521 133.674L117.084 152.564C117.029 152.603 116.974 152.623 116.901 152.623Z" fill="white"/>
<path d="M131.802 34.566C131.362 34.566 127.6 33.1971 79.9956 15.8905C79.7937 15.8122 79.6653 15.5776 79.7203 15.3429C79.7754 15.1082 79.9773 14.9714 80.1975 15.03L130.811 25.8247C131.032 25.8638 131.178 26.0985 131.142 26.3527C131.105 26.5873 130.885 26.7633 130.646 26.7047L86.2535 17.2398C99.7787 22.1482 131.38 33.6469 131.729 33.7642L131.6 34.1749L131.839 34.5465C131.839 34.566 131.839 34.566 131.802 34.566Z" fill="white"/>
<path d="M132.683 44.3047C132.61 44.3047 132.536 44.2851 132.481 44.246L120.92 37.2647C120.718 37.1473 120.645 36.8736 120.755 36.6585C120.865 36.4433 121.122 36.3651 121.324 36.4824L132.885 43.4638C133.087 43.5811 133.16 43.8549 133.05 44.07C132.977 44.2265 132.83 44.3047 132.683 44.3047Z" fill="white"/>
<path d="M133.949 55.6665C133.839 55.6665 133.748 55.6273 133.656 55.5491L124.627 46.2016C124.462 46.0256 124.462 45.7518 124.627 45.5758C124.792 45.3998 125.049 45.3998 125.214 45.5758L134.243 54.9233C134.408 55.0993 134.408 55.3731 134.243 55.5491C134.17 55.6273 134.06 55.6665 133.949 55.6665Z" fill="white"/>
</svg>
