<svg width="162" height="166" viewBox="0 0 162 166" fill="none" xmlns="http://www.w3.org/2000/svg">
<path d="M83.1659 165.237C82.9432 165.237 82.7205 165.139 82.5721 164.963C82.3123 164.689 82.2567 164.278 82.4237 163.926L117.624 91.2385C117.698 91.0625 117.828 90.9256 117.995 90.8474L151.747 72.9736C151.988 72.8367 152.267 72.8563 152.508 72.9736C152.749 73.1105 152.916 73.3452 152.953 73.6189L161.118 124.033C161.173 124.424 160.988 124.815 160.654 124.972L83.537 165.1C83.4257 165.198 83.2958 165.237 83.1659 165.237ZM118.997 92.3336L85.0772 162.362L159.355 123.701L151.487 75.1247L118.997 92.3336Z" fill="white"/>
<path d="M45.8879 147.871C45.7209 147.871 45.5538 147.813 45.4054 147.715L1.07615 114.823C0.797817 114.627 0.667924 114.275 0.72359 113.923L18.6482 12.7425C18.7039 12.4296 18.9267 12.1558 19.2235 12.0581C19.5204 11.9603 19.8358 12.0385 20.077 12.2732L81.9599 75.1638C82.2382 75.4376 82.2938 75.8678 82.1268 76.2198L46.63 147.383C46.5187 147.617 46.3146 147.774 46.0734 147.832C46.0177 147.852 45.9435 147.871 45.8879 147.871ZM2.48639 113.688L45.5723 145.662L80.3084 75.9852L20.0028 14.6981L2.48639 113.688Z" fill="white"/>
<path d="M118.366 92.5487C118.236 92.5487 118.087 92.5096 117.958 92.4314L95.6723 79.5247L81.199 76.6892C80.7352 76.5914 80.4383 76.1416 80.5311 75.6527C80.6238 75.1638 81.0691 74.8314 81.5145 74.9487L96.1177 77.8234C96.2104 77.8429 96.2847 77.8821 96.3775 77.9212L118.774 90.9061C119.182 91.1407 119.331 91.6883 119.108 92.1185C118.96 92.3923 118.663 92.5487 118.366 92.5487Z" fill="white"/>
<path d="M83.1659 165.237C82.9618 165.237 82.7763 165.158 82.6093 165.022L62.5508 146.874L45.925 147.871C45.424 147.93 45.0714 147.519 45.0343 147.03C45.0158 146.542 45.3683 146.111 45.8322 146.092L62.792 145.075C62.9776 145.055 63.2188 145.134 63.3858 145.29L83.7041 163.672C84.0567 163.985 84.0938 164.552 83.7969 164.924C83.6299 165.139 83.4071 165.237 83.1659 165.237Z" fill="white"/>
<path d="M62.8476 146.855C62.7177 146.855 62.5879 146.815 62.458 146.757C62.0498 146.522 61.8828 145.994 62.1054 145.564L95.2271 78.2732C95.3198 78.0972 95.4682 77.9407 95.6538 77.8625L128.293 63.1958C128.72 63.0003 129.221 63.2154 129.406 63.6652C129.592 64.1149 129.388 64.6429 128.961 64.8385L96.6001 79.3878L63.627 146.385C63.4414 146.678 63.1445 146.855 62.8476 146.855Z" fill="white"/>
<path d="M152.137 74.6749C152.026 74.6749 151.933 74.6554 151.822 74.6163L128.293 64.8385C128.219 64.7994 128.163 64.7603 128.089 64.7212L49.9701 2.96473L35.2927 19.0981C35.07 19.3523 34.7175 19.4501 34.402 19.3132L19.205 13.7398C18.7597 13.5834 18.537 13.0749 18.6854 12.6056C18.8339 12.1363 19.3163 11.8821 19.7617 12.0581L34.4576 17.4358L49.2835 1.14606C49.5804 0.813615 50.0629 0.774505 50.3969 1.04828L129.035 63.1958L152.452 72.9345C152.879 73.1105 153.102 73.6385 152.935 74.0883C152.786 74.4598 152.471 74.6749 152.137 74.6749Z" fill="white"/>
<path d="M95.9693 79.5638C95.7652 79.5638 95.5611 79.4856 95.3941 79.3292L34.105 19.1176C33.771 18.7852 33.7526 18.2181 34.068 17.8661C34.3834 17.5141 34.9215 17.475 35.2555 17.827L96.5445 78.0385C96.8785 78.3709 96.897 78.9381 96.5816 79.2901C96.4146 79.4856 96.192 79.5638 95.9693 79.5638Z" fill="white"/>
<path d="M52.9204 147.011C52.8462 147.011 52.7534 146.991 52.6792 146.933C52.4936 146.796 52.438 146.522 52.5679 146.307L90.7923 86.0172L51.6029 136.392C51.4545 136.588 51.1947 136.607 51.0091 136.451C50.8236 136.294 50.8051 136.021 50.9535 135.825L95.6168 78.3905C95.7652 78.2145 96.0064 78.1754 96.192 78.3123C96.3775 78.4492 96.4146 78.7229 96.2847 78.9185L53.2544 146.796C53.1987 146.933 53.0689 147.011 52.9204 147.011Z" fill="white"/>
<path d="M58.8397 146.639C58.7655 146.639 58.6913 146.62 58.6356 146.581C58.4315 146.463 58.3572 146.19 58.4871 145.975L94.188 81.0501L64.8331 109.914C64.6661 110.09 64.3878 110.071 64.2393 109.895C64.0723 109.718 64.0909 109.425 64.2579 109.269L95.691 78.3709C95.8394 78.2145 96.0807 78.2145 96.2477 78.3514C96.4146 78.4883 96.4518 78.7229 96.359 78.9185L59.2479 146.444C59.1365 146.561 58.9881 146.639 58.8397 146.639Z" fill="white"/>
<path d="M73.6283 91.7665C73.4799 91.7665 73.3315 91.6883 73.2573 91.5318C73.146 91.3167 73.2201 91.043 73.4242 90.9256L93.2045 79.7398L78.0631 83.0447C77.8219 83.1034 77.6178 82.9469 77.5621 82.6927C77.5064 82.4581 77.655 82.2234 77.8962 82.1647L95.895 78.2341C96.0991 78.1949 96.3032 78.3123 96.3775 78.5078C96.4517 78.7229 96.3589 78.9576 96.1734 79.0554L73.8325 91.6883C73.7583 91.747 73.7026 91.7665 73.6283 91.7665Z" fill="white"/>
<path d="M151.487 129.235C151.395 129.235 151.32 129.215 151.246 129.157L113.523 101.544C113.337 101.407 113.282 101.153 113.393 100.958C113.504 100.762 113.745 100.684 113.931 100.782L160.468 123.818C160.673 123.916 160.765 124.19 160.673 124.405C160.58 124.62 160.32 124.718 160.116 124.62L118.125 103.832L151.729 128.433C151.914 128.57 151.97 128.844 151.84 129.059C151.747 129.176 151.617 129.235 151.487 129.235Z" fill="white"/>
<path d="M134.361 138.152C134.212 138.152 134.082 138.074 133.99 137.937L113.374 101.427C113.263 101.231 113.3 100.977 113.486 100.84C113.653 100.703 113.894 100.723 114.042 100.879L143.379 132.422C143.546 132.598 143.546 132.872 143.379 133.048C143.212 133.224 142.952 133.224 142.785 133.048L115.917 104.145L134.732 137.468C134.843 137.683 134.788 137.957 134.583 138.074C134.509 138.133 134.435 138.152 134.361 138.152Z" fill="white"/>
<path d="M119.089 146.092C118.885 146.092 118.7 145.935 118.663 145.701L113.319 101.231C113.3 100.997 113.43 100.801 113.634 100.743C113.857 100.684 114.061 100.821 114.135 101.036L126.976 141.594C127.05 141.829 126.939 142.083 126.716 142.161C126.493 142.239 126.252 142.102 126.178 141.887L114.692 105.612L119.498 145.603C119.535 145.838 119.368 146.072 119.127 146.092C119.127 146.092 119.108 146.092 119.089 146.092Z" fill="white"/>
<path d="M104.375 153.758C104.356 153.758 104.319 153.758 104.301 153.758C104.078 153.719 103.911 153.484 103.967 153.23L113.356 101.095C113.393 100.86 113.56 100.703 113.82 100.743C114.042 100.762 114.209 100.958 114.191 101.192L113.022 149.045C113.022 149.299 112.781 149.514 112.595 149.475C112.354 149.475 112.187 149.26 112.187 149.025L113.226 106.668L104.802 153.406C104.746 153.601 104.579 153.758 104.375 153.758Z" fill="white"/>
<path d="M89.1965 161.658C89.1409 161.658 89.0853 161.639 89.0296 161.619C88.8069 161.521 88.7142 161.267 88.807 161.032L113.374 101.016C113.467 100.801 113.69 100.684 113.913 100.782C114.117 100.86 114.228 101.114 114.172 101.329L96.7301 157.649C96.6559 157.884 96.4147 158.001 96.192 157.942C95.9694 157.864 95.858 157.61 95.9137 157.375L110.498 110.286L89.5863 161.404C89.512 161.541 89.3635 161.658 89.1965 161.658Z" fill="white"/>
<path d="M155.978 122.527C155.829 122.527 155.681 122.449 155.607 122.293L135.808 82.4581C135.697 82.243 135.771 81.9692 135.994 81.8518C136.198 81.7345 136.458 81.8127 136.569 82.0474L154.401 117.912L143.397 78.3514C143.323 78.1167 143.453 77.8625 143.676 77.8038C143.898 77.7452 144.139 77.8625 144.195 78.1167L156.386 121.98C156.442 122.195 156.33 122.43 156.145 122.508C156.089 122.508 156.034 122.527 155.978 122.527Z" fill="white"/>
<path d="M155.978 122.527C155.755 122.527 155.588 122.351 155.551 122.136L150.17 74.6554C150.133 74.4012 150.3 74.1861 150.541 74.1665C150.819 74.1665 150.986 74.3034 151.005 74.5576L156.071 119.281L157.704 110.774C157.741 110.54 157.982 110.364 158.205 110.422C158.427 110.462 158.576 110.696 158.539 110.951L156.386 122.175C156.349 122.371 156.182 122.527 155.978 122.527Z" fill="white"/>
<path d="M155.978 122.527C155.885 122.527 155.774 122.488 155.7 122.41L121.446 90.2216C121.279 90.0652 121.26 89.7718 121.409 89.5958C121.557 89.4198 121.836 89.4003 122.003 89.5567L152.842 118.538L129.035 86.1149C128.887 85.9194 128.924 85.6456 129.109 85.4892C129.295 85.3327 129.555 85.3718 129.703 85.5674L156.312 121.804C156.442 121.98 156.423 122.254 156.275 122.41C156.182 122.488 156.089 122.527 155.978 122.527Z" fill="white"/>
<path d="M155.477 122.058C155.403 122.058 155.329 122.038 155.254 121.98L116.269 95.8927C116.065 95.7558 116.009 95.482 116.139 95.2865C116.269 95.0714 116.529 95.0127 116.714 95.1496L155.7 121.237C155.904 121.374 155.959 121.647 155.83 121.843C155.755 121.98 155.625 122.058 155.477 122.058Z" fill="white"/>
</svg>
