<svg width="305" height="305" viewBox="0 0 305 305" fill="none" xmlns="http://www.w3.org/2000/svg">
<path d="M0 0V305H305V0H0ZM1.41259 1.40482H303.595V151.538C303.44 131.584 299.451 112.219 291.736 93.9727C284.13 75.99 273.241 59.8389 259.372 45.9696C245.503 32.1003 229.352 21.2114 211.369 13.6054C192.75 5.7278 172.974 1.7385 152.585 1.7385C132.197 1.7385 112.421 5.7278 93.8019 13.6054C75.8192 21.2114 59.6682 32.1003 45.7989 45.9696C31.9296 59.8389 21.0407 75.99 13.4347 93.9727C5.55707 112.592 1.56778 132.367 1.56778 152.756C1.56778 173.145 5.55707 192.92 13.4347 211.54C21.0407 229.522 31.9296 245.673 45.7989 259.543C59.6682 273.412 75.8192 284.301 93.8019 291.907C110.132 298.814 127.354 302.734 145.096 303.595H1.40482V1.40482H1.41259ZM300.987 152.5L274.009 179.478L259.209 164.677V110.721L300.987 152.5ZM259.209 108.378V48.267C286.35 75.9512 301.515 112.444 301.934 151.103L259.209 108.378ZM272.923 180.565L259.209 194.279V166.85L272.923 180.565ZM301.942 153.882C301.655 192.742 286.49 229.421 259.209 257.253V196.615L301.942 153.882ZM219.603 218.346V197.437C219.673 196.335 219.712 195.241 219.728 194.178C219.743 192.983 219.697 191.772 219.603 190.584V153.563H240.419C241.692 156.373 242.685 159.151 243.36 161.829C248.677 182.815 243.826 199.075 238.82 209.017C233.9 218.796 227.877 224.54 226.79 225.533L219.603 218.346ZM225.929 227.14C223.911 229.119 221.792 231.043 219.603 232.867V220.814L225.929 227.14ZM86.1649 87.43V107.974C86.0951 109.076 86.0563 110.17 86.0407 111.234C86.0252 112.429 86.0718 113.64 86.1649 114.827V151.848H64.9381C63.6575 149.023 62.6562 146.221 61.981 143.528C56.7189 122.596 61.6008 106.36 66.6145 96.4253C71.5506 86.6617 77.5656 80.9106 78.6599 79.9172L86.1649 87.43ZM79.4592 78.2486C81.6013 76.1375 83.8599 74.0963 86.1649 72.1793V84.9542L79.4592 78.2486ZM112.181 168.799V181.201C110.085 181.558 107.927 181.737 105.77 181.737C98.1017 181.737 90.6044 179.532 84.0928 175.349C82.5948 174.387 81.1512 173.308 79.793 172.151L78.8384 171.197L96.4485 153.587H112.173V166.237V166.261C112.173 166.284 112.165 166.307 112.165 166.331C112.08 167.122 112.08 167.953 112.181 168.799ZM91.7763 214.722L112.181 194.317V218.012H108.347C102.743 217.655 97.0229 216.522 91.7763 214.722ZM97.7602 218.012H88.4855L90.5733 215.925C92.8862 216.747 95.2922 217.454 97.7602 218.012ZM105.809 198.175L85.7536 178.12C91.9004 181.488 98.7847 183.265 105.762 183.265C107.92 183.265 110.077 183.095 112.181 182.745V191.811L105.809 198.175ZM151.693 65.8927V93.9805L135.487 77.7751L138.212 75.051C142.263 71.4808 146.92 68.3142 151.693 65.8927ZM145.74 67.5225L151.693 61.5696V64.1929C149.683 65.1708 147.688 66.2885 145.74 67.5225ZM151.693 96.1459V111.893H139.197H139.174C139.151 111.893 139.127 111.886 139.104 111.886C138.739 111.847 138.351 111.823 137.963 111.823C137.536 111.823 137.094 111.847 136.652 111.901H124.195C122.72 102.487 124.917 92.3739 130.225 84.1393C131.195 82.6414 132.274 81.1822 133.446 79.824L134.401 78.8694L151.693 96.1459ZM151.693 142.643V150.482L146.314 145.104C146.881 144.553 147.409 143.986 147.898 143.427C148.216 143.062 148.526 142.682 148.821 142.294C149.791 142.465 150.754 142.581 151.693 142.643ZM149.846 140.897C150.575 139.795 151.196 138.662 151.693 137.505V141.091C151.08 141.044 150.459 140.982 149.846 140.897ZM149.419 167.619C150.855 170.49 151.677 173.704 151.848 177.157V177.165H143.443L136.388 170.11L138.103 168.395C138.444 168.1 138.778 167.836 139.089 167.596C141.402 165.873 144.211 164.747 147.44 164.258C148.185 165.353 148.844 166.478 149.419 167.619ZM149.155 164.056C149.838 164.002 150.544 163.971 151.243 163.971C151.444 163.971 151.646 163.971 151.848 163.979V169.412C151.538 168.558 151.173 167.72 150.777 166.92C150.288 165.942 149.745 164.98 149.155 164.056ZM145.934 183.824C146.369 183.824 146.811 183.917 147.23 184.096L146.074 185.252L144.863 184.042C144.948 183.995 145.034 183.964 145.111 183.941C145.375 183.863 145.647 183.824 145.934 183.824ZM145.709 182.295L146.066 181.938L146.439 182.311C146.276 182.295 146.12 182.288 145.957 182.288C145.872 182.288 145.787 182.295 145.709 182.295ZM147.261 192.028C146.027 192.983 144.157 193.766 142.736 193.906C142.55 193.922 142.364 193.929 142.162 193.929C140.284 193.929 138.033 193.099 136.24 191.756L141.619 186.378L147.261 192.028ZM143.769 185.214C143.776 185.19 143.784 185.159 143.792 185.136L143.916 185.26L143.753 185.423C143.745 185.353 143.753 185.291 143.769 185.214ZM142.17 195.466C142.418 195.466 142.667 195.451 142.899 195.427C143.45 195.373 144.064 195.241 144.692 195.047L142.1 197.639L139.531 195.07C140.439 195.334 141.339 195.466 142.17 195.466ZM148.86 193.052C148.231 194.62 147.626 195.901 147.207 196.739C146.563 198.027 145.818 199.308 144.995 200.55L143.179 198.734L148.86 193.052ZM148.317 190.91L145.453 188.046L148.511 184.988C148.775 185.268 148.992 185.578 149.163 185.912C150.055 187.713 149.054 189.769 148.317 190.91ZM135.138 190.693L134.409 189.963C132.212 187.092 131.382 182.994 132.111 178.702H142.814L144.972 180.859L135.138 190.693ZM109.93 143.117C109.984 143.668 110.108 144.273 110.31 144.902L107.726 142.317L110.279 139.764C109.953 140.936 109.829 142.084 109.93 143.117ZM111.567 148.34C110.644 147.944 109.728 147.517 108.851 147.075C107.594 146.439 106.344 145.709 105.133 144.902L106.631 143.404L111.567 148.34ZM111.451 142.962C111.265 140.998 112.103 138.475 113.601 136.489L118.956 141.844L113.321 147.479C112.367 146.237 111.591 144.374 111.451 142.962ZM121.284 145.073C121.331 145.158 121.362 145.243 121.385 145.313C121.579 145.988 121.525 146.726 121.23 147.424L120.081 146.275L121.284 145.073ZM120.074 144.118L119.918 143.963C119.942 143.963 119.957 143.955 119.981 143.955C120.019 143.955 120.066 143.963 120.112 143.97C120.136 143.978 120.167 143.986 120.19 143.994L120.074 144.118ZM126.803 144.987V151.778C124.831 151.77 122.751 151.569 120.632 151.157L126.803 144.987ZM123.023 145.911L123.372 146.26L123.007 146.625C123.031 146.384 123.031 146.144 123.023 145.911ZM122.48 153.594C121.711 153.936 120.951 154.339 120.206 154.797L119.003 153.594H122.48ZM125.522 154.169C126.159 154.013 126.834 153.897 127.548 153.812V162.147L121.308 155.907C122.689 155.1 124.141 154.502 125.522 154.169ZM126.803 120.935C126.345 119.833 125.933 118.723 125.569 117.621C125.126 116.278 124.754 114.866 124.466 113.422H126.803V120.935ZM126.803 124.614V125.592L114.625 113.415H122.914C123.225 115.013 123.628 116.589 124.117 118.087C124.622 119.616 125.491 121.983 126.803 124.614ZM126.803 128.068V130.838C125.763 130.668 124.715 130.582 123.675 130.582C121.936 130.582 120.291 130.815 118.762 131.273L124.389 125.646L126.803 128.068ZM123.667 132.104C124.707 132.104 125.763 132.197 126.81 132.383V142.822L124.459 145.173L114.664 135.387L115.394 134.657C118.149 132.546 121.409 132.104 123.667 132.104ZM117.287 145.662L120.33 148.705C120.05 148.969 119.74 149.186 119.406 149.349C118.933 149.582 118.413 149.706 117.854 149.706C116.558 149.706 115.301 149.077 114.431 148.518L117.287 145.662ZM118.91 155.674C116.713 157.289 114.889 159.353 113.709 161.55V153.594H116.829L118.91 155.674ZM119.996 156.769L127.548 164.32V167.347H113.702V166.315C114.183 162.753 116.472 159.276 119.996 156.769ZM127.556 168.884V169.404C127.4 169.218 127.237 169.047 127.059 168.884H127.556ZM126.857 171.228H125.235V169.52C125.328 169.551 125.406 169.582 125.475 169.621C126.089 169.963 126.578 170.529 126.857 171.228ZM123.706 169.536V169.707H123.489C123.527 169.66 123.574 169.613 123.636 169.575C123.659 169.559 123.683 169.551 123.706 169.536ZM121.3 168.884V176.847C119.763 176.653 117.893 175.885 116.791 174.977C115.27 173.727 114.082 171.344 113.733 168.876H121.3V168.884ZM115.828 176.172C116.255 176.521 116.775 176.862 117.357 177.165H113.709V173.556C114.299 174.612 115.029 175.512 115.828 176.172ZM120.679 178.702C119.647 179.129 118.607 179.517 117.575 179.858C116.325 180.277 115.021 180.627 113.709 180.914V178.702H120.679ZM118.048 181.31C119.523 180.821 121.812 179.967 124.373 178.702H125.289L113.709 190.282V182.466C115.192 182.163 116.651 181.775 118.048 181.31ZM122.821 176.8V172.765H127.121C127.113 173.145 127.043 173.517 126.927 173.874C126.298 175.768 124.156 176.513 122.821 176.8ZM127.804 178.702H130.567C130.148 181.418 130.311 184.181 131.033 186.587L125.475 181.03L127.804 178.702ZM130.869 177.165H129.341L131.529 174.977C131.265 175.675 131.048 176.412 130.869 177.165ZM129.077 174.177V165.849L133.609 170.382L132.6 171.391C131.529 172.361 130.35 173.292 129.077 174.177ZM143.986 160.005L140.175 163.816C140.563 162.985 140.897 162.147 141.176 161.294C141.51 160.285 141.797 159.252 142.038 158.212C142.705 158.763 143.357 159.361 143.986 160.005ZM141.2 142.465L143.932 145.197C143.427 145.631 142.907 146.051 142.372 146.454C142.1 145.049 141.712 143.714 141.2 142.465ZM140.975 155.488C139.841 154.735 138.669 154.099 137.474 153.594H141.184C141.138 154.223 141.068 154.852 140.975 155.488ZM140.687 157.172C140.439 158.422 140.113 159.656 139.725 160.82C138.708 163.87 137.016 166.719 134.696 169.288L129.077 163.668V153.68C129.41 153.664 129.744 153.656 130.07 153.656C131.009 153.656 131.91 153.718 132.748 153.843C135.487 154.246 138.157 155.364 140.687 157.172ZM135.379 171.259L141.285 177.165H132.445C132.849 175.621 133.454 174.169 134.191 172.959C134.533 172.4 134.929 171.825 135.379 171.259ZM142.542 163.956L145.189 161.309C145.616 161.806 146.035 162.318 146.439 162.853C145.08 163.102 143.769 163.474 142.542 163.956ZM145.08 158.903C144.591 158.406 144.087 157.925 143.59 157.49C143.194 157.141 142.791 156.807 142.379 156.489C142.542 155.519 142.667 154.549 142.736 153.587H150.389L145.08 158.903ZM142.822 151.848C142.837 151.056 142.814 150.288 142.767 149.543C142.736 149.093 142.698 148.635 142.635 148.169C143.466 147.579 144.273 146.951 145.034 146.291L150.583 151.84H142.822V151.848ZM145.228 144.017L141.192 139.981C142.115 140.424 143.062 140.804 144.025 141.122C145.034 141.456 146.074 141.743 147.121 141.968C146.532 142.674 145.903 143.357 145.228 144.017ZM141.27 151.848H135.712C136.683 151.507 137.622 151.103 138.522 150.653C139.422 150.195 140.315 149.69 141.184 149.147C141.254 150.024 141.285 150.932 141.27 151.848ZM137.831 149.287C134.975 150.73 131.785 151.553 128.339 151.732V143.45L135.2 136.59C136.147 137.451 137.001 138.39 137.684 139.306C139.368 141.572 140.478 144.312 140.975 147.455C139.95 148.13 138.895 148.751 137.831 149.287ZM128.65 121.052C128.844 119.507 129.604 117.629 130.505 116.519C131.747 114.99 134.114 113.795 136.566 113.446V121.052H128.65ZM136.566 126.834V127.33H136.046C136.24 127.175 136.411 127.012 136.566 126.834ZM135.938 125.002C135.907 125.095 135.875 125.181 135.837 125.25C135.503 125.864 134.936 126.353 134.246 126.64V125.01H135.938V125.002ZM135.751 123.473V123.248C135.798 123.287 135.837 123.333 135.876 123.395C135.891 123.419 135.899 123.442 135.914 123.473H135.751ZM132.709 122.581V126.904C132.329 126.896 131.964 126.826 131.607 126.71C129.721 126.073 128.976 123.923 128.696 122.588H132.709V122.581ZM129.317 115.557C128.968 115.984 128.634 116.504 128.332 117.086V113.422H131.925C130.87 114.02 129.977 114.749 129.317 115.557ZM130.598 131.863C129.876 131.584 129.115 131.343 128.339 131.157V129.604L130.598 131.863ZM132.344 134.416C132.903 134.758 133.47 135.154 134.036 135.596L128.339 141.293V132.724C129.806 133.128 131.18 133.71 132.344 134.416ZM134.944 133.625C133.563 132.236 132.251 130.629 131.04 128.859H139.71L134.944 133.625ZM138.103 127.33V113.422H139.127C142.721 113.904 146.213 116.247 148.712 119.864L141.246 127.33H138.103ZM149.551 121.184C150.319 122.526 150.893 123.939 151.212 125.289C151.367 125.926 151.483 126.609 151.569 127.33H143.412L149.551 121.184ZM150.661 120.074L151.693 119.041V122.037C151.398 121.378 151.049 120.718 150.661 120.074ZM149.799 118.77C148.177 116.511 146.089 114.633 143.862 113.422H151.693V116.876L149.799 118.77ZM123.093 97.5894C122.099 102.378 121.952 107.19 122.658 111.893H113.104L107.237 106.026L127.455 85.808C125.413 89.4946 123.954 93.4527 123.093 97.5894ZM123.31 124.575L114.361 133.524L114.338 133.539C114.323 133.555 114.299 133.57 114.284 133.578C113.671 134.067 113.089 134.657 112.553 135.324L103.861 144.017C96.1459 138.398 90.5346 129.69 88.4623 120.097C88.0898 118.351 87.8259 116.558 87.6862 114.773V113.422H112.149L123.31 124.575ZM92.9482 134.68C95.6336 138.778 98.9399 142.286 102.774 145.111L96.0372 151.848H87.6862V123.264C88.8659 127.307 90.6276 131.149 92.9482 134.68ZM98.2026 151.848L104.047 146.004C105.389 146.912 106.779 147.727 108.176 148.433C109.511 149.108 111.645 150.102 114.245 150.994L115.091 151.84H98.2026V151.848ZM113.709 192.796L124.397 182.109L133.276 190.988L133.291 191.011C133.306 191.034 133.322 191.05 133.338 191.066C133.827 191.679 134.416 192.268 135.092 192.796L144.118 201.823C138.522 209.537 129.876 215.148 120.361 217.221C118.622 217.601 116.837 217.865 115.06 218.005H113.709V192.796ZM134.836 212.75C138.902 210.065 142.387 206.759 145.204 202.925L151.848 209.568V218.02H123.489C127.509 216.84 131.327 215.071 134.836 212.75ZM146.105 201.652C147.028 200.286 147.859 198.865 148.573 197.43C149.333 195.908 150.443 193.471 151.398 190.514L151.848 190.064V207.395L146.105 201.652ZM151.258 184.973L144.987 178.702H151.856V180.13C151.77 181.69 151.569 183.32 151.258 184.973ZM151.848 162.427C151.638 162.419 151.429 162.419 151.227 162.419C150.606 162.419 149.985 162.442 149.38 162.481C148.984 162.504 148.581 162.543 148.169 162.59C147.572 161.759 146.943 160.952 146.291 160.207L151.848 154.65V162.427ZM151.53 132.554C151.126 135.332 149.993 138.049 148.154 140.618C146.896 140.377 145.662 140.059 144.49 139.671C141.456 138.669 138.615 136.993 136.046 134.688L141.867 128.867H151.685V128.929V130.776C151.67 131.397 151.615 131.995 151.53 132.554ZM151.693 59.4043L137.172 73.9255C136.341 74.6551 135.542 75.4001 134.781 76.1452C133.927 76.9834 133.097 77.8682 132.329 78.7685L106.15 104.947L91.3882 90.1853C92.5058 87.1119 93.8253 84.2867 95.2999 81.7876C106.321 63.184 121.176 55.1201 131.692 51.6276C140.074 48.8491 147.028 48.43 150.436 48.43C151.002 48.43 151.429 48.4455 151.693 48.4533V59.4043ZM112.708 54.0879C105.537 56.9984 98.6916 60.6926 92.3429 65.0777L109.782 47.6383H135.837C127.928 48.9034 120.159 51.0688 112.708 54.0879ZM87.6939 67.3905V47.6383H107.446L87.6939 67.3905ZM129.76 50.6885C123.458 52.947 117.582 56.1291 112.258 60.1727C105.102 65.6133 98.9555 72.6216 93.9883 81.0115C92.5758 83.3942 91.3029 86.0796 90.2008 88.9978L87.6862 86.4832V70.9297C99.9799 61.1195 114.509 54.1345 129.76 50.6885ZM89.5488 90.8139C88.8193 92.9405 88.1984 95.1524 87.6862 97.3954V88.959L89.5488 90.8139ZM90.7596 92.0247L110.628 111.893H87.6939V108.044C88.0354 102.642 89.091 97.1083 90.7596 92.0247ZM94.2909 153.594L77.7596 170.126L75.0509 167.417C71.4032 163.273 68.1977 158.492 65.7685 153.594H94.2909ZM67.5613 159.928L61.2282 153.594H64.061C65.0855 155.736 66.2652 157.863 67.5613 159.928ZM65.2563 95.75C61.9888 102.223 59.8234 109.123 58.8144 116.255C57.5571 125.165 58.1315 134.471 60.4987 143.908C61.1428 146.485 62.0741 149.147 63.2616 151.848H59.4819L48.9034 141.27C50.6885 124.831 56.4395 108.944 65.5822 95.1137C65.4658 95.3232 65.3572 95.5327 65.2563 95.75ZM57.3088 151.848H48.2825C48.3058 149 48.4455 146.105 48.7016 143.241L57.3088 151.848ZM49.0276 153.594H59.0551L73.9177 168.457C74.6395 169.28 75.3847 170.079 76.1298 170.84C76.9602 171.693 77.845 172.516 78.7453 173.285L104.73 199.269L89.9369 214.062C87.1273 212.991 84.5274 211.749 82.2223 210.368C63.704 199.285 55.6711 184.36 52.1941 173.789C48.7637 163.373 48.9655 155.069 49.0276 153.594ZM50.7428 174.262C53.009 181.147 56.3542 187.557 60.6927 193.316C66.11 200.503 73.0873 206.681 81.4384 211.679C83.6426 212.999 86.1029 214.194 88.7495 215.242L85.9787 218.012H71.3333C60.6539 204.741 53.3816 189.048 50.1762 172.431C50.347 173.052 50.541 173.657 50.7428 174.262ZM84.442 219.549L78.2252 225.766C76.2617 223.771 74.3679 221.676 72.5906 219.549H84.442ZM86.9488 219.549H108.284C109.379 219.619 110.465 219.658 111.529 219.673C111.668 219.673 111.808 219.673 111.948 219.673C113.003 219.673 114.066 219.634 115.099 219.549H151.84V240.45C148.914 241.801 146.027 242.833 143.249 243.539C137.21 245.06 131.172 245.836 125.297 245.836C112.382 245.836 102.238 242.088 96.0062 238.944C86.4832 234.14 80.8098 228.35 79.5369 226.969L86.9488 219.549ZM141.223 256.415C131.661 255.367 122.309 253.015 113.422 249.422C108.106 247.249 102.937 244.626 98.0241 241.591C103.721 244.152 109.72 245.883 115.89 246.744C118.933 247.171 122.061 247.389 125.196 247.389C131.227 247.389 137.436 246.597 143.644 245.029C146.307 244.354 149.062 243.384 151.856 242.142V245.798L141.223 256.415ZM151.848 247.963V257.036C148.969 257.013 146.058 256.873 143.202 256.609L151.848 247.963ZM111.288 250.516L111.404 250.563C111.792 250.726 112.188 250.889 112.576 251.052L112.708 251.106L112.817 251.153C120.462 254.257 128.456 256.461 136.613 257.703H109.115L89.4868 238.075C96.2235 243.066 103.542 247.249 111.288 250.516ZM138.281 259.356L124.529 273.109L110.776 259.356H138.281ZM140.455 259.356H152.096C152.151 259.395 152.213 259.418 152.283 259.418H194.069L152.453 301.034L125.615 274.196L140.455 259.356ZM193.308 136.597V123.892C195.28 123.582 197.298 123.419 199.316 123.419C207.03 123.419 214.574 125.646 221.132 129.861C222.63 130.823 224.089 131.909 225.448 133.074L226.402 134.028L208.637 151.794H193.301V139.143V139.12C193.308 139.096 193.308 139.065 193.308 139.042C193.409 138.281 193.402 137.451 193.308 136.597ZM213.27 90.5035L193.301 110.473V87.3912H197.158C202.591 87.7327 208.156 88.8115 213.27 90.5035ZM207.791 87.3912H216.39L214.489 89.2928C212.316 88.5477 210.073 87.9112 207.791 87.3912ZM199.339 106.973L219.456 127.09C213.27 123.69 206.332 121.898 199.316 121.898C197.298 121.898 195.272 122.053 193.301 122.348V113.011L199.339 106.973ZM159.252 121.378C158.825 121.378 158.391 121.284 157.972 121.114L159.128 119.957L160.323 121.152C160.238 121.199 160.153 121.23 160.075 121.253C159.819 121.331 159.539 121.378 159.252 121.378ZM159.477 122.899L159.128 123.248L158.763 122.883C158.919 122.899 159.074 122.907 159.229 122.907C159.314 122.907 159.4 122.906 159.477 122.899ZM157.972 113.205C159.206 112.243 161.068 111.459 162.489 111.319C162.683 111.304 162.877 111.288 163.086 111.288C164.949 111.288 167.184 112.103 168.954 113.43L163.575 118.809L157.972 113.205ZM161.425 119.981C161.418 120.004 161.41 120.035 161.402 120.058L161.286 119.942L161.441 119.786C161.449 119.849 161.441 119.911 161.425 119.981ZM163.086 109.759C162.83 109.759 162.574 109.775 162.326 109.798C161.775 109.852 161.177 109.984 160.548 110.178L163.141 107.586L165.686 110.132C164.794 109.891 163.909 109.759 163.086 109.759ZM156.629 111.948C157.095 110.822 157.591 109.72 158.127 108.665C158.779 107.369 159.532 106.072 160.37 104.815L162.07 106.515L156.629 111.948ZM156.924 114.323L159.765 117.163L156.707 120.221C156.45 119.95 156.233 119.639 156.062 119.305C155.178 117.512 156.179 115.464 156.924 114.323ZM170.048 114.501L170.77 115.223C172.966 118.102 173.781 122.387 172.966 126.71H162.582L160.207 124.335L170.048 114.501ZM195.311 162.124C195.256 161.573 195.125 160.967 194.931 160.339L197.523 162.931L194.962 165.492C195.295 164.313 195.412 163.156 195.311 162.124ZM193.697 156.932C194.744 157.366 195.769 157.832 196.747 158.329C197.911 158.911 199.059 159.57 200.169 160.285L198.609 161.845L193.697 156.932ZM193.79 162.279C193.984 164.243 193.145 166.773 191.655 168.768L186.277 163.389L191.911 157.754C192.866 158.988 193.65 160.859 193.79 162.279ZM153.625 239.596V211.338L169.963 227.675L167.239 230.399C163.148 234 158.445 237.175 153.625 239.596ZM159.726 237.912L153.625 244.012V241.304C155.682 240.303 157.731 239.169 159.726 237.912ZM153.625 209.172V193.51H166.183H166.206C166.23 193.518 166.261 193.518 166.284 193.518C166.656 193.557 167.037 193.58 167.433 193.58C167.859 193.58 168.31 193.557 168.752 193.503H181.17C182.668 202.948 180.502 213.076 175.217 221.303C174.255 222.801 173.168 224.26 172.004 225.626L171.049 226.581L153.625 209.172ZM153.625 162.52V154.828L159.05 160.253C158.468 160.812 157.925 161.387 157.421 161.961C157.157 162.264 156.893 162.574 156.637 162.908C155.636 162.729 154.627 162.605 153.625 162.52ZM155.597 164.305C154.813 165.446 154.153 166.633 153.625 167.836V164.072C154.277 164.134 154.937 164.212 155.597 164.305ZM170.095 136.225L170.459 135.86L176.342 141.743V151.724C176.009 151.739 175.675 151.747 175.341 151.747C174.394 151.747 173.486 151.685 172.648 151.561C169.815 151.15 167.052 149.97 164.444 148.068C164.693 146.78 165.019 145.523 165.415 144.32C166.369 141.417 167.953 138.685 170.095 136.225ZM169.738 133.858L164.119 128.238H172.609C172.206 129.674 171.624 131.025 170.925 132.158C170.584 132.717 170.18 133.291 169.738 133.858ZM167.898 151.809H163.948C163.994 151.134 164.064 150.451 164.157 149.76C165.368 150.583 166.625 151.274 167.898 151.809ZM163.956 143.846C163.614 144.878 163.319 145.942 163.086 147.005C162.419 146.439 161.767 145.825 161.138 145.181L164.918 141.402C164.553 142.201 164.227 143.016 163.956 143.846ZM162.861 159.043C163.133 160.323 163.505 161.557 163.979 162.714L161.449 160.184C161.899 159.788 162.372 159.408 162.861 159.043ZM160.339 159.081L154.813 153.556H162.326C162.318 154.262 162.341 154.953 162.388 155.612C162.427 156.187 162.489 156.769 162.566 157.335C161.798 157.886 161.045 158.476 160.339 159.081ZM159.927 143.838C159.501 143.334 159.082 142.814 158.686 142.271C160.067 142.007 161.394 141.627 162.636 141.13L159.927 143.838ZM160.044 146.275C160.603 146.858 161.185 147.409 161.759 147.913C162.077 148.193 162.403 148.456 162.753 148.736C162.582 149.768 162.458 150.8 162.395 151.817H154.51L160.044 146.275ZM160.145 161.356L164.01 165.221C163.079 164.77 162.124 164.39 161.161 164.064C160.246 163.762 159.299 163.498 158.344 163.273C158.903 162.613 159.508 161.969 160.145 161.356ZM163.886 153.556H169.699C168.729 153.897 167.774 154.301 166.874 154.751C165.904 155.24 164.941 155.783 164.018 156.365C163.925 155.449 163.878 154.51 163.886 153.556ZM167.557 156.117C170.436 154.673 173.649 153.85 177.126 153.672V161.488L170.002 168.612C169.055 167.743 168.193 166.804 167.51 165.888C165.88 163.699 164.778 161.061 164.25 158.049C165.329 157.327 166.439 156.676 167.557 156.117ZM176.816 184.352C176.622 185.897 175.853 187.775 174.945 188.885C173.688 190.414 171.305 191.609 168.837 191.958V184.352H176.816ZM168.83 178.57V178.073H169.357C169.163 178.228 168.993 178.391 168.83 178.57ZM169.466 180.402C169.497 180.308 169.528 180.223 169.567 180.161C169.908 179.54 170.475 179.059 171.173 178.772V180.402H169.466ZM169.652 181.931V182.156C169.606 182.117 169.559 182.07 169.52 182.008C169.505 181.985 169.497 181.962 169.481 181.931H169.652ZM172.718 182.823V178.5C173.098 178.508 173.471 178.578 173.836 178.694C175.737 179.331 176.482 181.488 176.769 182.815H172.718V182.823ZM176.133 189.847C176.482 189.42 176.824 188.892 177.126 188.31V191.981H173.502C174.565 191.384 175.473 190.654 176.133 189.847ZM174.627 173.362C175.427 173.673 176.265 173.929 177.134 174.138V175.869L174.627 173.362ZM172.873 170.793C172.314 170.452 171.748 170.048 171.173 169.606L177.126 163.653V172.563C175.566 172.159 174.099 171.546 172.873 170.793ZM170.296 171.616C171.725 173.052 173.075 174.705 174.317 176.544H165.368L170.296 171.616ZM167.293 178.073V191.981H166.261C162.644 191.5 159.004 189.048 156.505 185.408L163.839 178.073H167.293ZM155.674 184.065C154.945 182.769 154.394 181.403 154.083 180.107C153.928 179.47 153.812 178.787 153.726 178.065H161.674L155.674 184.065ZM154.557 185.182L153.625 186.114V183.421C153.897 184.018 154.207 184.608 154.557 185.182ZM155.41 186.502C157.064 188.823 159.198 190.747 161.487 191.981H153.625V188.287L155.41 186.502ZM183.933 160.145C183.886 160.059 183.855 159.974 183.832 159.896C183.63 159.221 183.692 158.476 183.987 157.778L185.144 158.934L183.933 160.145ZM185.144 161.099L185.299 161.255C185.276 161.255 185.26 161.262 185.237 161.262C185.198 161.262 185.151 161.255 185.097 161.247C185.074 161.239 185.043 161.231 185.019 161.224L185.144 161.099ZM178.663 159.951V153.633C180.518 153.641 182.458 153.819 184.445 154.169L178.663 159.951ZM182.187 159.299L181.837 158.95L182.21 158.577C182.179 158.818 182.171 159.058 182.187 159.299ZM182.963 151.809C183.723 151.476 184.476 151.08 185.221 150.622L186.409 151.809H182.963ZM179.905 151.235C179.268 151.39 178.585 151.507 177.864 151.592V143.272L184.104 149.512C182.73 150.311 181.286 150.901 179.905 151.235ZM178.663 184.756C179.067 185.741 179.439 186.742 179.765 187.728C180.215 189.094 180.596 190.522 180.891 191.989H178.663V184.756ZM181.216 187.247C180.735 185.796 179.905 183.545 178.663 181.022V179.874L190.771 191.981H182.451C182.14 190.359 181.721 188.768 181.216 187.247ZM178.663 177.406V174.433C179.641 174.581 180.619 174.658 181.589 174.658C183.312 174.658 184.957 174.425 186.479 173.968L180.852 179.594L178.663 177.406ZM181.604 173.137C180.627 173.137 179.641 173.052 178.663 172.889V162.116L180.743 160.036L190.576 169.87L189.847 170.599C187.107 172.695 183.855 173.137 181.604 173.137ZM187.938 159.563L184.88 156.505C185.159 156.241 185.47 156.024 185.803 155.861C186.269 155.628 186.789 155.511 187.348 155.511C188.652 155.511 189.917 156.14 190.794 156.714L187.938 159.563ZM186.517 149.753C188.737 148.131 190.584 146.058 191.78 143.846V151.809H188.582L186.517 149.753ZM185.423 148.658L177.864 141.099V138.049H191.772V139.081C191.298 142.659 188.985 146.144 185.423 148.658ZM178.298 132.639C178.306 132.259 178.376 131.886 178.492 131.529C179.129 129.635 181.279 128.883 182.613 128.603V132.639H178.298ZM181.954 135.697C181.915 135.744 181.868 135.79 181.806 135.829C181.783 135.844 181.76 135.852 181.729 135.868V135.697H181.954ZM180.192 134.176V135.883C180.099 135.852 180.013 135.821 179.951 135.782C179.33 135.441 178.849 134.882 178.562 134.176H180.192ZM178.36 136.52H177.864V136C178.019 136.186 178.182 136.357 178.36 136.52ZM184.15 136.52V128.557C185.695 128.751 187.573 129.519 188.683 130.427C190.212 131.677 191.407 134.059 191.756 136.52H184.15ZM189.637 129.232C189.211 128.883 188.69 128.541 188.101 128.238H191.772V131.855C191.174 130.792 190.445 129.892 189.637 129.232ZM183.84 126.702C185.074 126.174 186.354 125.693 187.573 125.289C188.923 124.839 190.336 124.467 191.78 124.179V126.71H183.84V126.702ZM187.092 123.838C185.485 124.373 182.986 125.297 180.223 126.71H179.602L191.764 114.548V122.619C190.173 122.93 188.597 123.341 187.092 123.838ZM177.072 126.702H174.518C175 123.908 174.86 121.052 174.13 118.568L179.672 124.11L177.072 126.702ZM174.185 128.238H175.535L173.572 130.202C173.804 129.573 174.014 128.914 174.185 128.238ZM176.335 130.769V139.57L171.538 134.773L172.928 133.384C173.967 132.476 175.116 131.599 176.335 130.769ZM168.744 135.03L168.705 135.076L167.402 136.38C166.936 136.807 166.47 137.195 166.02 137.529C163.707 139.252 160.913 140.377 157.708 140.881C157.04 139.873 156.435 138.833 155.915 137.793C154.541 135.061 153.726 132.018 153.501 128.758V128.246H161.961L168.744 135.03ZM154.541 138.476C154.984 139.353 155.473 140.23 156 141.076C155.278 141.138 154.533 141.169 153.796 141.169C153.695 141.169 153.594 141.169 153.493 141.169V136.062C153.804 136.892 154.153 137.699 154.541 138.476ZM153.827 142.721C154.487 142.721 155.131 142.698 155.76 142.651C156.156 142.62 156.559 142.581 156.97 142.535C157.553 143.365 158.181 144.172 158.833 144.941L153.501 150.28V142.721C153.602 142.721 153.719 142.721 153.827 142.721ZM153.757 172.85C154.176 170.002 155.364 167.231 157.281 164.607C158.453 164.848 159.602 165.159 160.688 165.516C163.746 166.532 166.602 168.224 169.179 170.553L163.195 176.536H153.625V174.107C153.656 173.665 153.703 173.238 153.757 172.85ZM153.625 246.186L168.279 231.532C169.109 230.803 169.908 230.058 170.669 229.313C171.523 228.474 172.353 227.59 173.122 226.689L199.3 200.511L214.248 215.459C213.146 218.431 211.85 221.179 210.399 223.608C199.292 242.212 184.337 250.276 173.735 253.768C165.291 256.547 158.282 256.966 154.852 256.966C154.316 256.966 153.897 256.958 153.618 256.943V246.186H153.625ZM177.988 219.65C180.014 215.963 181.473 211.997 182.319 207.853C183.304 203.057 183.436 198.237 182.714 193.518H192.299L198.213 199.432L177.988 219.65ZM181.938 180.681L190.887 171.732L190.902 171.717C190.926 171.701 190.941 171.686 190.965 171.67C191.578 171.181 192.16 170.591 192.695 169.924L201.465 161.154C209.405 166.765 215.172 175.559 217.291 185.299C217.671 187.037 217.935 188.838 218.074 190.623V191.981H193.246L181.938 180.681ZM202.56 160.059L209.064 153.556H218.067V182.171C215.474 173.3 209.871 165.306 202.56 160.059ZM206.898 153.556L201.271 159.182C200.022 158.36 198.733 157.615 197.437 156.97C196.04 156.272 193.805 155.24 191.073 154.324L190.313 153.563H206.898V153.556ZM191.772 111.994L180.743 123.023L171.903 114.183L171.888 114.167C171.872 114.144 171.856 114.129 171.841 114.105C171.352 113.492 170.77 112.91 170.102 112.382L161.247 103.527C166.866 95.8277 175.543 90.2318 185.082 88.1596C186.82 87.7793 188.621 87.5231 190.421 87.3757H191.764V111.994H191.772ZM170.568 92.6378C166.486 95.3154 162.985 98.6139 160.16 102.44L153.493 95.7733V87.3834H181.946C177.918 88.5631 174.092 90.3249 170.568 92.6378ZM159.26 103.713C158.321 105.095 157.483 106.523 156.753 107.966C156.024 109.41 154.968 111.723 154.029 114.532L153.486 115.075V97.9465L159.26 103.713ZM154.068 120.353L160.416 126.702H153.493V124.738C153.587 123.318 153.781 121.843 154.068 120.353ZM168.511 257.765C177.313 256.461 185.928 254.04 194.147 250.563C201.077 247.629 207.682 243.966 213.821 239.658L195.714 257.765H168.511ZM218.067 237.757V257.765H198.058L218.067 237.757ZM177.266 254.133C183.017 251.921 188.403 248.933 193.316 245.231C200.519 239.79 206.712 232.782 211.718 224.392C213.1 222.071 214.357 219.472 215.436 216.654L218.059 219.277V234.125C206.192 243.663 192.136 250.547 177.266 254.133ZM216.103 214.846C216.871 212.634 217.531 210.337 218.067 207.993V216.809L216.103 214.846ZM214.892 213.635L194.768 193.51H218.059V197.36C217.717 202.847 216.623 208.466 214.892 213.635ZM210.81 151.809L227.497 135.123L230.221 137.847C233.907 142.038 237.144 146.858 239.596 151.809H210.81ZM237.734 145.367L244.175 151.809H241.296C240.256 149.636 239.061 147.471 237.734 145.367ZM240.186 209.692C243.446 203.212 245.603 196.304 246.597 189.156C247.831 180.223 247.249 170.902 244.851 161.433C244.206 158.88 243.275 156.225 242.103 153.556H245.929L256.523 164.15C254.723 180.51 249.042 196.281 240.062 209.964C240.101 209.871 240.14 209.786 240.186 209.692ZM248.087 153.556H257.137C257.113 156.427 256.966 159.33 256.71 162.171L248.087 153.556ZM256.733 151.809H246.349L231.354 136.815C230.624 135.984 229.879 135.185 229.134 134.424C228.296 133.57 227.411 132.74 226.511 131.972L200.433 105.894L215.164 91.1631C218.175 92.273 220.954 93.5769 223.414 95.0437C242.018 106.127 250.082 121.052 253.574 131.622C256.989 142.007 256.795 150.335 256.733 151.809ZM245.021 112.087C239.581 104.901 232.572 98.7226 224.183 93.7244C221.839 92.3274 219.2 91.0623 216.344 89.9757L218.928 87.3912H234.342C236.042 89.51 237.679 91.7297 239.224 93.996C246.775 105.141 252.014 117.427 254.816 130.559C252.542 123.892 249.251 117.675 245.021 112.087ZM220.465 85.8545L227.085 79.2342C229.173 81.3452 231.191 83.5727 233.092 85.8545H220.465ZM217.919 85.8545H197.228C196.126 85.7846 195.031 85.7458 193.968 85.7303C193.828 85.7303 193.681 85.7303 193.541 85.7303C192.486 85.7303 191.415 85.7691 190.375 85.8545H153.501V65.0234C156.45 63.6497 159.361 62.5941 162.163 61.8723C168.263 60.3123 174.371 59.5208 180.308 59.5208C190.545 59.5208 200.278 61.7948 209.219 66.2807C218.757 71.0617 224.346 76.8049 225.603 78.1709L217.919 85.8545ZM164.444 48.8103C174.169 49.8968 183.661 52.3338 192.672 56.0514C192.672 56.0514 192.936 56.1601 192.998 56.1834C193.099 56.2222 193.192 56.2688 193.293 56.3076L193.495 56.393C198.602 58.5661 203.576 61.1661 208.295 64.1386C202.304 61.3368 195.963 59.4586 189.42 58.5738C186.471 58.1702 183.436 57.9685 180.402 57.9685C174.309 57.9685 168.038 58.7834 161.767 60.39C159.082 61.073 156.303 62.0664 153.493 63.3392V59.7691L164.444 48.8103ZM153.493 57.6037V48.1583C156.489 48.1816 159.508 48.3291 162.481 48.6085L153.493 57.6037ZM199.673 57.2078L199.587 57.1691C199.059 56.913 198.532 56.6569 198.004 56.4085L197.895 56.3541C197.36 56.1058 196.809 55.8497 196.258 55.6013L196.095 55.5315C195.575 55.2987 195.055 55.0736 194.535 54.8485L194.147 54.6778C193.821 54.5381 193.487 54.4061 193.161 54.2664L192.975 54.1888C192.975 54.1888 192.75 54.0957 192.703 54.0724L192.649 54.0491C192.23 53.8783 191.803 53.7153 191.384 53.5446C191.384 53.5446 191.05 53.4127 190.972 53.3816C190.569 53.2264 190.157 53.0712 189.754 52.9237C189.754 52.9237 189.358 52.7762 189.273 52.7452C188.9 52.6054 188.52 52.4736 188.139 52.3416L188 52.295C187.845 52.2407 187.697 52.1864 187.542 52.1321C187.208 52.0157 186.867 51.8992 186.533 51.7905L186.51 51.7828C186.261 51.6974 186.021 51.6198 185.772 51.5345C185.485 51.4413 185.206 51.3482 184.919 51.2628C184.6 51.1619 184.274 51.061 183.956 50.9601C183.739 50.8903 183.514 50.8282 183.296 50.7583C182.893 50.6342 182.489 50.5178 182.086 50.4013L181.667 50.2849C181.17 50.1452 180.65 50.0055 180.13 49.8658L180.021 49.8347C176.723 48.9577 173.354 48.236 169.978 47.6849H196.289L215.063 66.4592C210.212 62.9589 205.043 59.8467 199.673 57.2078ZM167.215 46.0472L180.921 32.341L194.628 46.0472H167.215ZM154.332 3.41495C192.905 3.85734 229.336 18.9839 256.981 46.0472H196.964L154.332 3.41495ZM179.843 31.2544L165.058 46.0395H153.377C153.323 46.0007 153.261 45.9774 153.191 45.9774H111.443L153.004 4.41618L179.843 31.2544ZM109.099 45.9852H48.2515C76.1142 18.7433 112.817 3.64002 151.677 3.40718L109.099 45.9852ZM86.1649 47.6383V68.9196L80.4372 74.6474C79.467 75.5554 78.4891 76.4867 77.5423 77.4336C76.5954 78.3805 75.6563 79.3506 74.7638 80.3207L48.2126 106.872V47.6305H86.1649V47.6383ZM65.2019 92.211C60.8091 98.5674 57.107 105.42 54.1966 112.6C51.5267 119.189 49.5165 126.058 48.2126 133.027V109.2L65.2019 92.211ZM54.1966 192.594C57.4951 200.728 61.7948 208.42 66.9948 215.482L48.2126 196.7V172.144C49.501 179.121 51.519 185.997 54.1966 192.594ZM67.1811 218.012H48.2048V199.036L67.1811 218.012ZM68.71 219.549L76.7506 227.59C76.7584 227.652 76.7894 227.714 76.836 227.76L106.779 257.703H48.2048V219.549H68.71ZM108.432 259.356L151.188 302.113C112.421 301.756 75.827 286.583 48.073 259.356H108.432ZM196.405 259.418H257.043C229.22 286.676 192.556 301.826 153.711 302.113L196.405 259.418ZM219.603 257.765V236.22L257.556 198.268V257.765H219.603ZM239.798 213.689C244.113 207.55 247.777 200.938 250.71 194.007C253.885 186.494 256.182 178.64 257.556 170.622V195.939L239.798 213.689ZM250.718 111.249C247.645 103.977 243.764 97.0617 239.169 90.6665L257.563 109.061V134.649C256.19 126.632 253.892 118.77 250.718 111.249ZM238.223 87.3912H257.556V106.724L238.223 87.3912ZM236.686 85.8545L228.482 77.6509C228.474 77.5889 228.443 77.5267 228.397 77.4801L198.625 47.7081H257.563V85.8623H236.686V85.8545ZM46.5595 158.197V195.047L4.46269 152.95L31.4407 125.972L46.5595 141.091V146.958C46.4586 148.821 46.4121 150.723 46.4121 152.593C46.4121 154.448 46.4586 156.334 46.5595 158.197ZM3.22869 151.848C3.46152 112.584 18.8365 75.6175 46.5518 47.6616V108.525L3.22869 151.848ZM46.5595 110.853V138.918L32.5272 124.886L46.5595 110.853ZM46.5595 197.391V257.851C18.9529 230.003 3.57795 193.177 3.23646 154.068L46.5595 197.391ZM160.075 303.595C177.817 302.734 195.039 298.814 211.369 291.907C229.352 284.301 245.503 273.412 259.372 259.543C273.241 245.673 284.13 229.522 291.736 211.54C299.451 193.293 303.44 173.929 303.595 153.975V303.587H160.075V303.595Z" fill="white" fill-opacity="0.2"/>
</svg>
