<svg width="130" height="129" viewBox="0 0 130 129" fill="none" xmlns="http://www.w3.org/2000/svg">
<path d="M68.49 77.8058C68.205 77.8058 67.95 77.6323 67.845 77.3325C67.815 77.2536 67.7849 77.1748 67.7549 77.0959C67.5599 76.591 67.365 76.1176 67.17 75.6601C66.3 73.6563 65.265 71.7314 64.065 69.9327C63.855 69.6014 63.93 69.1596 64.23 68.9387C64.545 68.7178 64.965 68.7967 65.175 69.1123C66.42 70.9898 67.515 72.9778 68.4 75.0605C68.61 75.5338 68.82 76.0387 69 76.5436C69.03 76.6225 69.075 76.7329 69.12 76.8592C69.255 77.2378 69.06 77.6481 68.715 77.7743C68.655 77.7901 68.565 77.8058 68.49 77.8058Z" fill="white"/>
<path d="M35.82 128.358C16.065 128.358 0 111.46 0 90.6805C0 71.1003 13.95 54.9754 32.46 53.1767C32.475 53.1767 32.49 53.1767 32.505 53.1767C32.55 53.1767 32.595 53.1609 32.64 53.1609C33.015 53.1609 33.315 53.4765 33.315 53.8867C33.315 54.2654 33.0301 54.581 32.6851 54.5967C32.6701 54.5967 32.67 54.5967 32.655 54.5967C32.64 54.5967 32.6101 54.5967 32.5951 54.5967C14.7901 56.3165 1.35004 71.8261 1.35004 90.6805C1.35004 110.671 16.8 126.922 35.805 126.922C47.025 126.922 57.585 121.132 64.035 111.46C64.065 111.428 64.095 111.381 64.125 111.349C64.5 110.955 65.295 111.255 65.295 111.854C65.295 111.996 65.25 112.123 65.19 112.233C65.175 112.265 65.1451 112.312 65.1151 112.343C58.4251 122.362 47.475 128.358 35.82 128.358Z" fill="white"/>
<path d="M93.42 128.358C81.765 128.358 70.815 122.362 64.11 112.328C64.095 112.296 64.065 112.28 64.05 112.249C63.975 112.138 63.93 111.996 63.93 111.838C63.93 111.239 64.725 110.939 65.085 111.334C65.115 111.365 65.145 111.412 65.175 111.444C71.625 121.132 82.17 126.906 93.405 126.906C112.395 126.906 127.86 110.655 127.86 90.6647C127.86 71.8102 114.42 56.2849 96.585 54.5809C96.57 54.5809 96.5551 54.5809 96.5251 54.5809C96.2401 54.5809 95.985 54.3916 95.88 54.1076C95.76 53.7289 95.94 53.3187 96.3 53.1925C96.405 53.1609 96.555 53.1452 96.675 53.1609C96.72 53.1609 96.75 53.1609 96.78 53.1767C115.29 54.9912 129.24 71.1003 129.24 90.6805C129.24 111.46 113.175 128.358 93.42 128.358Z" fill="white"/>
<path d="M60.75 77.6954C60.69 77.6954 60.63 77.6796 60.57 77.6638C60.225 77.5376 60 77.222 60.12 76.8591C60.15 76.7645 60.195 76.6698 60.225 76.5752C60.39 76.1018 60.615 75.5812 60.84 75.0447C61.74 72.9778 62.82 70.974 64.065 69.1123C64.29 68.7809 64.7101 68.7178 65.0101 68.9387C65.3101 69.1596 65.385 69.6172 65.175 69.9327C63.975 71.7314 62.94 73.6563 62.07 75.6443C61.845 76.1492 61.6501 76.6383 61.4551 77.1432C61.3501 77.4587 61.05 77.6954 60.75 77.6954Z" fill="white"/>
<path d="M96.57 54.6756C96.465 54.6756 96.375 54.6599 96.285 54.6125C95.94 54.439 95.8051 54.0287 95.955 53.6658L95.9701 53.6501C95.9851 53.5554 96.015 53.5081 96.045 53.4607C98.055 48.7747 99.075 43.7732 99.075 38.5665C99.075 18.5761 83.625 2.32494 64.62 2.32494C45.615 2.32494 30.165 18.5761 30.165 38.5665C30.165 43.7574 31.185 48.7589 33.195 53.4449C33.21 53.4765 33.2251 53.508 33.2401 53.5396C33.3901 53.8078 33.345 54.1707 33.12 54.3916C32.85 54.6756 32.415 54.6756 32.16 54.3916C32.115 54.3443 32.07 54.2812 32.04 54.2181C32.025 54.1865 31.965 54.0761 31.95 54.0445C29.85 49.1534 28.8 43.9467 28.8 38.5665C28.8 17.7872 44.865 0.88916 64.62 0.88916C84.375 0.88916 100.44 17.7872 100.44 38.5665C100.44 44.0098 99.36 49.2481 97.245 54.155C97.245 54.1707 97.23 54.1865 97.23 54.2023C97.215 54.2338 97.215 54.2654 97.2 54.2812C97.065 54.5178 96.825 54.6756 96.57 54.6756ZM33.285 53.6343C33.3 53.6974 33.315 53.7763 33.315 53.8394C33.315 53.7605 33.3 53.6974 33.285 53.6343Z" fill="white"/>
<path d="M70.125 75.7705C69.945 75.7705 69.78 75.7074 69.645 75.5654C69.375 75.2814 69.375 74.8238 69.645 74.5556C69.915 74.2716 70.35 74.2716 70.62 74.5556C70.89 74.8396 70.89 75.2814 70.62 75.5654C70.47 75.7074 70.29 75.7705 70.125 75.7705Z" fill="white"/>
<path d="M64.62 76.2123C63.525 76.2123 62.4449 76.165 61.3949 76.0545C61.0349 76.023 60.675 75.9914 60.3 75.9441C59.925 75.8967 59.6549 75.5496 59.6999 75.1552C59.7449 74.7607 60.0749 74.4925 60.4499 74.5241C60.7949 74.5714 61.14 74.6029 61.5 74.6345C63.54 74.8396 65.7 74.8396 67.725 74.6345C68.1 74.6029 68.43 74.8869 68.475 75.2814C68.505 75.6758 68.2349 76.0229 67.8599 76.0703C66.8099 76.1649 65.715 76.2123 64.62 76.2123Z" fill="white"/>
<path d="M64.62 86.2154C64.47 86.2154 64.335 86.168 64.2 86.0734C63.9 85.8367 63.84 85.3792 64.08 85.0636C65.1 83.6752 65.955 82.1605 66.63 80.5827C67.14 79.3678 67.545 78.1372 67.83 76.9223C67.875 76.7645 67.905 76.6067 67.935 76.449C68.025 76.0072 68.115 75.5812 68.175 75.1394C68.37 73.9245 68.475 72.6623 68.475 71.3843C68.475 70.8794 68.46 70.3903 68.43 69.8854C68.37 68.8441 68.235 67.8343 68.055 66.8718C67.935 66.2565 67.8 65.6569 67.635 65.0732C66.9 62.4067 65.7 59.9296 64.08 57.705C61.635 54.3601 58.38 51.8041 54.645 50.321C52.23 49.3585 49.695 48.8852 47.1 48.8852C41.97 48.8852 36.99 50.8258 33.105 54.3758C33.09 54.3916 33.06 54.4232 33.045 54.4389C32.775 54.7229 32.34 54.7229 32.07 54.4389C31.8 54.1549 31.8 53.7132 32.07 53.4292C32.1 53.3976 32.175 53.3345 32.22 53.3029C36.45 49.5005 41.685 47.4652 47.115 47.4652C49.875 47.4652 52.575 47.9858 55.14 48.9956C59.115 50.5734 62.58 53.2872 65.175 56.8529C66.9 59.2196 68.175 61.8545 68.955 64.6945C69.135 65.3256 69.285 65.9567 69.405 66.6036C69.6 67.6292 69.735 68.702 69.81 69.8065C69.84 70.3271 69.855 70.8636 69.855 71.4001C69.855 72.757 69.75 74.098 69.54 75.376C69.48 75.8336 69.375 76.3069 69.285 76.7645C69.255 76.938 69.21 77.1116 69.165 77.2852C68.865 78.5632 68.43 79.8885 67.89 81.1665C67.17 82.8547 66.255 84.464 65.175 85.9314C65.025 86.1049 64.83 86.2154 64.62 86.2154Z" fill="white"/>
<path d="M64.62 112.58C64.245 112.58 63.93 112.265 63.93 111.854V85.7263C62.895 84.2905 62.025 82.7285 61.335 81.0876C60.81 79.857 60.39 78.5632 60.075 77.2536C60.045 77.1747 60.015 77.0327 59.985 76.8907C59.865 76.4174 59.7601 75.8809 59.6851 75.3445C59.4751 74.0823 59.37 72.7411 59.37 71.3843C59.37 70.8478 59.385 70.3114 59.415 69.7907C59.49 68.6705 59.625 67.5976 59.82 66.5879C59.955 65.941 60.09 65.2941 60.27 64.663C61.05 61.823 62.325 59.1881 64.05 56.8214C66.615 53.303 70.035 50.6049 73.95 49.0114C76.56 47.9543 79.305 47.4336 82.11 47.4336C87.54 47.4336 92.805 49.4847 96.93 53.2083C97.005 53.2556 97.095 53.3503 97.14 53.4292C97.395 53.729 97.3651 54.1707 97.08 54.4389C96.795 54.7072 96.36 54.6756 96.12 54.3758C92.175 50.81 87.225 48.8852 82.11 48.8852C79.47 48.8852 76.89 49.3901 74.43 50.3683C70.755 51.8514 67.53 54.3916 65.13 57.705C63.51 59.9296 62.31 62.4067 61.575 65.0732C61.41 65.6727 61.275 66.2723 61.155 66.8718C60.975 67.8185 60.84 68.8441 60.765 69.8854C60.735 70.3745 60.7201 70.8794 60.7201 71.3843C60.7201 72.6623 60.825 73.9087 61.02 75.1236C61.095 75.6285 61.2 76.1176 61.305 76.591C61.32 76.7014 61.3351 76.7803 61.3651 76.8592C61.68 78.1529 62.07 79.3678 62.565 80.5196C63.24 82.1289 64.095 83.6436 65.13 85.0636C65.22 85.1898 65.265 85.3476 65.265 85.5054V111.87C65.295 112.249 64.995 112.58 64.62 112.58Z" fill="white"/>
<path d="M64.635 112.58C64.26 112.58 63.945 112.265 63.945 111.854C63.945 111.523 64.155 111.239 64.44 111.16C71.76 108.651 77.25 102.182 78.78 94.262C79.065 92.8105 79.215 91.2959 79.215 89.7654C79.215 87.1936 78.81 84.685 78 82.271C77.055 79.431 75.585 76.8592 73.635 74.6029C73.08 73.956 72.48 73.3407 71.835 72.757C71.55 72.4887 71.5201 72.0469 71.7751 71.7472C72.0301 71.4474 72.465 71.4158 72.735 71.684C73.41 72.2994 74.055 72.9621 74.64 73.6405C76.71 76.023 78.2701 78.7683 79.2751 81.7976C80.1301 84.3536 80.565 87.0359 80.565 89.7654C80.565 91.3905 80.415 92.9998 80.1 94.5618C78.48 102.956 72.66 109.835 64.905 112.517C64.83 112.564 64.74 112.58 64.635 112.58Z" fill="white"/>
<path d="M64.62 68.4023C64.545 68.4023 64.485 68.3865 64.41 68.3707C63.87 68.1814 63.3301 68.0236 62.7751 67.8816C62.0251 67.6923 61.2451 67.5503 60.4201 67.4398C58.3951 67.1874 56.2651 67.2347 54.3301 67.5661C53.9701 67.6449 53.61 67.3767 53.55 66.9823C53.49 66.5878 53.73 66.2249 54.105 66.1618C56.175 65.7831 58.4401 65.7358 60.6001 66.0198C61.4701 66.1303 62.31 66.2881 63.105 66.4932C63.69 66.6352 64.2601 66.8087 64.8301 66.998C65.1901 67.1243 65.385 67.5187 65.265 67.8974C65.175 68.2129 64.905 68.4023 64.62 68.4023Z" fill="white"/>
<path d="M64.635 112.58C64.53 112.58 64.44 112.564 64.3651 112.517C56.5951 109.851 50.775 102.971 49.14 94.5618C48.84 92.9998 48.69 91.3905 48.69 89.7654C48.69 87.0516 49.125 84.3694 49.965 81.8292C50.985 78.7841 52.5601 76.0387 54.6151 73.6563C55.2001 72.9778 55.815 72.3625 56.415 71.7787C57.435 70.832 58.575 69.9643 59.76 69.207C60.075 69.0019 60.51 69.1123 60.69 69.4594C60.885 69.8065 60.78 70.2483 60.45 70.4376C59.325 71.1476 58.26 71.9523 57.3 72.8516C56.73 73.3881 56.145 73.9876 55.59 74.6187C53.655 76.8592 52.185 79.4467 51.225 82.3025C50.43 84.7007 50.0251 87.2094 50.0251 89.7654C50.0251 91.2959 50.175 92.8105 50.46 94.262C51.99 102.182 57.495 108.667 64.815 111.16C64.935 111.192 65.025 111.271 65.1151 111.365C65.2351 111.491 65.3101 111.665 65.3101 111.854C65.3101 112.265 65.01 112.58 64.635 112.58Z" fill="white"/>
<path d="M64.62 68.4023C64.335 68.4023 64.0651 68.213 63.9751 67.8974C63.8551 67.5187 64.065 67.1085 64.425 66.9981C64.995 66.8087 65.5651 66.6352 66.1501 66.4932C66.9451 66.2881 67.785 66.1303 68.6551 66.0198C70.7551 65.7516 72.945 65.7832 75 66.1303C75.375 66.1934 75.63 66.5563 75.57 66.9507C75.51 67.3452 75.15 67.6134 74.79 67.5503C72.855 67.2347 70.8 67.1874 68.82 67.4398C68.01 67.5503 67.215 67.6923 66.48 67.8816C65.925 68.0236 65.3851 68.1814 64.8451 68.3708C64.7551 68.3865 64.695 68.4023 64.62 68.4023Z" fill="white"/>
<path d="M54.0601 83.0756C52.8451 83.0756 51.66 82.9809 50.505 82.7916C46.305 82.0974 42.375 80.1725 39.135 77.2221C34.155 72.6623 31.29 66.0672 31.29 59.1407C31.29 57.3263 31.485 55.5276 31.86 53.7763C31.86 53.7605 31.86 53.7447 31.875 53.7289C31.905 53.6027 31.965 53.4765 32.055 53.3976L32.385 53.7447H32.565L33.225 53.934C33.225 53.9498 33.21 53.9814 33.21 53.9972C33.21 54.0287 33.21 54.0603 33.195 54.0918C32.835 55.7327 32.655 57.421 32.655 59.1407C32.655 65.657 35.34 71.8576 40.02 76.1334C43.065 78.9103 46.755 80.709 50.7 81.3716C53.445 81.8292 56.43 81.703 59.175 80.993C60.015 80.7721 60.855 80.5038 61.725 80.1567C62.07 80.0147 62.475 80.2041 62.61 80.5669C62.745 80.9298 62.5651 81.3558 62.2201 81.4978C61.2901 81.8765 60.405 82.1605 59.505 82.3972C57.75 82.839 55.9051 83.0756 54.0601 83.0756Z" fill="white"/>
<path d="M75.045 83.0756C73.245 83.0756 71.475 82.8547 69.75 82.4129C68.85 82.1921 67.935 81.8923 67.02 81.5451C66.66 81.4031 66.48 80.9929 66.615 80.6143C66.75 80.2356 67.14 80.0463 67.5 80.1883C68.355 80.5196 69.225 80.8036 70.065 81.0087C72.84 81.7187 75.855 81.8134 78.51 81.34C82.455 80.6616 86.13 78.8314 89.16 76.0545C93.78 71.7787 96.435 65.6096 96.435 59.1407C96.435 57.4525 96.255 55.7642 95.895 54.1234C95.895 54.1076 95.895 54.1076 95.895 54.0918C95.88 54.0603 95.88 54.0129 95.865 53.9814C95.73 53.6185 95.9099 53.2083 96.2549 53.0663C96.6149 52.9243 97.005 53.1294 97.14 53.4923C97.155 53.5238 97.1849 53.6343 97.2 53.7132C97.2 53.7447 97.215 53.7763 97.215 53.8078C97.59 55.5434 97.785 57.3421 97.785 59.1407C97.785 66.0198 94.965 72.5834 90.045 77.1432C86.82 80.1094 82.905 82.05 78.72 82.7758C77.565 82.9651 76.32 83.0756 75.045 83.0756Z" fill="white"/>
<path d="M68.385 77.5061C68.205 77.5061 68.01 77.4272 67.89 77.2694C67.635 76.9854 67.65 76.5279 67.935 76.2596C68.01 76.1965 68.07 76.1334 68.145 76.0703C68.685 75.5812 69.1649 75.0763 69.6299 74.5556C70.3949 73.7036 71.085 72.7885 71.715 71.826C72.78 70.2009 73.62 68.4339 74.25 66.5879C74.31 66.4301 74.415 66.288 74.55 66.2092L96.21 53.2556C96.525 53.0663 96.96 53.1767 97.14 53.5239C97.32 53.871 97.215 54.3127 96.885 54.5021L75.45 67.3294C74.805 69.207 73.92 70.9898 72.855 72.6465C72.18 73.6721 71.445 74.6503 70.635 75.5496C70.125 76.1176 69.615 76.6383 69.075 77.1432L68.865 77.3325C68.715 77.443 68.55 77.5061 68.385 77.5061Z" fill="white"/>
<path d="M60.75 77.5849C60.645 77.5849 60.525 77.5534 60.42 77.4587C60.405 77.4429 60.285 77.3325 60.27 77.3167C59.64 76.7487 59.04 76.1492 58.455 75.5023C57.705 74.666 56.985 73.7194 56.31 72.7254C55.215 71.0687 54.33 69.2542 53.67 67.3451L32.205 54.5021C31.875 54.3127 31.77 53.8709 31.95 53.5238C32.13 53.1767 32.55 53.0505 32.88 53.2556L54.555 66.2249C54.705 66.3038 54.81 66.4458 54.855 66.6036C55.485 68.4811 56.355 70.264 57.42 71.8891C58.05 72.8358 58.725 73.7194 59.43 74.5083C59.985 75.1236 60.54 75.6916 61.11 76.1965C61.395 76.4489 61.5 76.9538 61.275 77.2536C61.14 77.4745 60.945 77.5849 60.75 77.5849Z" fill="white"/>
<path d="M7.01998 112.217C6.91498 112.217 6.79498 112.154 6.73498 112.059C6.62998 111.886 6.67499 111.665 6.83999 111.57L50.43 81.7819C50.58 81.6714 50.805 81.7187 50.895 81.8923C51 82.0658 50.955 82.2867 50.79 82.3814L7.19997 112.17C7.15497 112.201 7.07998 112.217 7.01998 112.217Z" fill="white"/>
<path d="M64.62 57.626C64.425 57.626 64.2751 57.4683 64.2751 57.2632V1.58339C64.2751 1.37828 64.425 1.22048 64.62 1.22048C64.815 1.22048 64.965 1.37828 64.965 1.58339V57.2632C64.965 57.4683 64.815 57.626 64.62 57.626Z" fill="white"/>
<path d="M122.22 112.217C122.16 112.217 122.085 112.201 122.04 112.154L78.4351 82.3498C78.2701 82.2394 78.225 82.0185 78.33 81.8607C78.435 81.6872 78.645 81.6556 78.795 81.7503L122.4 111.57C122.565 111.681 122.61 111.902 122.505 112.059C122.445 112.17 122.34 112.217 122.22 112.217Z" fill="white"/>
</svg>
